G75*
%MOIN*%
%OFA0B0*%
%FSLAX25Y25*%
%IPPOS*%
%LPD*%
%AMOC8*
5,1,8,0,0,1.08239X$1,22.5*
%
%ADD10R,0.05224X0.02862*%
%ADD11R,0.11200X0.15000*%
%ADD12R,0.05224X0.07587*%
%ADD13R,0.02862X0.06602*%
%ADD14C,0.01700*%
%ADD15R,0.09950X0.07000*%
%ADD16R,0.02900X0.02500*%
%ADD17R,0.02500X0.02900*%
%ADD18R,0.12311X0.06012*%
%ADD19R,0.03650X0.05224*%
%ADD20R,0.05224X0.03650*%
%ADD21R,0.03650X0.03650*%
%ADD22C,0.01275*%
%ADD23R,0.01500X0.05600*%
%ADD24R,0.03300X0.01500*%
%ADD25R,0.05224X0.03256*%
%ADD26C,0.01331*%
%ADD27R,0.06500X0.09100*%
%ADD28R,0.06400X0.09600*%
%ADD29R,0.03300X0.16100*%
%ADD30C,0.06110*%
%ADD31C,0.13555*%
%ADD32R,0.02862X0.01287*%
%ADD33R,0.01287X0.02862*%
%ADD34C,0.03281*%
%ADD35C,0.08374*%
%ADD36R,0.10343X0.24122*%
%ADD37R,0.24122X0.10343*%
%ADD38R,0.10700X0.32800*%
%ADD39R,0.06406X0.06406*%
%ADD40C,0.06406*%
%ADD41R,0.05300X0.05300*%
%ADD42C,0.05300*%
%ADD43R,0.09555X0.06799*%
%ADD44C,0.05500*%
%ADD45R,0.01900X0.05100*%
%ADD46R,0.02862X0.05224*%
%ADD47C,0.02300*%
%ADD48C,0.17000*%
D10*
X0227843Y0204068D03*
X0227843Y0209068D03*
X0227843Y0214068D03*
X0227843Y0219068D03*
X0249890Y0219068D03*
X0249890Y0214068D03*
X0249890Y0209068D03*
X0249890Y0204068D03*
X0176440Y0206318D03*
X0176440Y0211318D03*
X0176440Y0216318D03*
X0176440Y0221318D03*
X0154393Y0221318D03*
X0154393Y0216318D03*
X0154393Y0211318D03*
X0154393Y0206318D03*
D11*
X0238867Y0211568D03*
D12*
X0223785Y0163878D03*
X0232164Y0149678D03*
X0223785Y0142778D03*
X0193864Y0142778D03*
X0186235Y0142828D03*
X0156314Y0142828D03*
X0146885Y0140778D03*
X0124964Y0140778D03*
X0160364Y0163378D03*
X0182285Y0163378D03*
X0193864Y0163878D03*
X0262085Y0149678D03*
X0224085Y0107128D03*
X0202164Y0107128D03*
X0115085Y0103828D03*
X0093164Y0103828D03*
X0290764Y0086828D03*
X0312685Y0086828D03*
X0332564Y0089428D03*
X0354485Y0089428D03*
X0355585Y0070328D03*
X0333664Y0070328D03*
X0309885Y0050228D03*
X0287964Y0050228D03*
X0288764Y0027828D03*
X0310685Y0027828D03*
D13*
X0305567Y0019068D03*
X0301630Y0019068D03*
X0297693Y0019068D03*
X0293756Y0019068D03*
X0292956Y0041468D03*
X0296893Y0041468D03*
X0300830Y0041468D03*
X0304767Y0041468D03*
X0338656Y0061568D03*
X0342593Y0061568D03*
X0346530Y0061568D03*
X0350467Y0061568D03*
X0349367Y0080668D03*
X0345430Y0080668D03*
X0341493Y0080668D03*
X0337556Y0080668D03*
X0307567Y0078068D03*
X0303630Y0078068D03*
X0299693Y0078068D03*
X0295756Y0078068D03*
X0218967Y0098368D03*
X0215030Y0098368D03*
X0211093Y0098368D03*
X0207156Y0098368D03*
X0206856Y0134018D03*
X0210793Y0134018D03*
X0214730Y0134018D03*
X0218667Y0134018D03*
X0202919Y0134018D03*
X0198982Y0134018D03*
X0181117Y0134068D03*
X0177180Y0134068D03*
X0173243Y0134068D03*
X0169306Y0134068D03*
X0165369Y0134068D03*
X0161432Y0134068D03*
X0141767Y0132018D03*
X0137830Y0132018D03*
X0133893Y0132018D03*
X0129956Y0132018D03*
X0165356Y0154618D03*
X0169293Y0154618D03*
X0173230Y0154618D03*
X0177167Y0154618D03*
X0198982Y0155118D03*
X0202919Y0155118D03*
X0206856Y0155118D03*
X0210793Y0155118D03*
X0214730Y0155118D03*
X0218667Y0155118D03*
X0237282Y0140918D03*
X0241219Y0140918D03*
X0245156Y0140918D03*
X0249093Y0140918D03*
X0253030Y0140918D03*
X0256967Y0140918D03*
X0109967Y0095068D03*
X0106030Y0095068D03*
X0102093Y0095068D03*
X0098156Y0095068D03*
D14*
X0214767Y0176368D02*
X0214767Y0178368D01*
X0217267Y0178368D02*
X0217267Y0176368D01*
X0219867Y0176368D02*
X0219867Y0178368D01*
X0222367Y0178318D02*
X0222367Y0176418D01*
X0222367Y0187968D02*
X0222367Y0189968D01*
X0219867Y0189968D02*
X0219867Y0187968D01*
X0217267Y0187968D02*
X0217267Y0189968D01*
X0214767Y0189968D02*
X0214767Y0187968D01*
D15*
X0218567Y0183168D03*
D16*
X0230367Y0176068D03*
X0234767Y0176068D03*
X0235667Y0169568D03*
X0231267Y0169568D03*
X0221267Y0171368D03*
X0216867Y0171368D03*
X0230817Y0161418D03*
X0235217Y0161418D03*
X0242067Y0165968D03*
X0246467Y0165968D03*
X0251667Y0171068D03*
X0256067Y0171068D03*
X0261867Y0165368D03*
X0266267Y0165368D03*
X0264117Y0158418D03*
X0259717Y0158418D03*
X0276567Y0161868D03*
X0280967Y0161868D03*
X0281567Y0171568D03*
X0277167Y0171568D03*
X0277167Y0151568D03*
X0281567Y0151568D03*
X0280967Y0141868D03*
X0276567Y0141868D03*
X0276567Y0132168D03*
X0280967Y0132168D03*
X0281617Y0121868D03*
X0277217Y0121868D03*
X0276767Y0116868D03*
X0281167Y0116868D03*
X0281017Y0111468D03*
X0276617Y0111468D03*
X0275767Y0106318D03*
X0280167Y0106318D03*
X0279017Y0100018D03*
X0283417Y0100018D03*
X0283717Y0093818D03*
X0279317Y0093818D03*
X0238567Y0102318D03*
X0234167Y0102318D03*
X0313217Y0059018D03*
X0317617Y0059018D03*
X0323967Y0056618D03*
X0328367Y0056618D03*
X0316467Y0018018D03*
X0312067Y0018018D03*
X0208367Y0028618D03*
X0203967Y0028618D03*
X0198517Y0028568D03*
X0194117Y0028568D03*
X0080867Y0089168D03*
X0076467Y0089168D03*
X0082767Y0106518D03*
X0087167Y0106518D03*
X0085467Y0114968D03*
X0089867Y0114968D03*
X0077267Y0114368D03*
X0072867Y0114368D03*
X0077567Y0140668D03*
X0081967Y0140668D03*
X0086567Y0140668D03*
X0090967Y0140668D03*
X0107417Y0145268D03*
X0111817Y0145268D03*
X0160467Y0173168D03*
X0164867Y0173168D03*
X0172367Y0173668D03*
X0176767Y0173668D03*
X0175017Y0189868D03*
X0170617Y0189868D03*
X0164867Y0189968D03*
X0160467Y0189968D03*
X0204267Y0193568D03*
X0208667Y0193568D03*
X0231167Y0194668D03*
X0235567Y0194668D03*
X0336967Y0151968D03*
X0341367Y0151968D03*
X0331317Y0115568D03*
X0326917Y0115568D03*
X0085067Y0201368D03*
X0080667Y0201368D03*
D17*
X0096667Y0193968D03*
X0096667Y0189568D03*
X0158767Y0182718D03*
X0158767Y0178318D03*
X0182367Y0184968D03*
X0182367Y0189368D03*
X0206467Y0182568D03*
X0206467Y0178168D03*
X0228667Y0182968D03*
X0228667Y0187368D03*
X0253367Y0165418D03*
X0253367Y0161018D03*
X0269817Y0156218D03*
X0269817Y0151818D03*
X0269767Y0141768D03*
X0269767Y0137368D03*
X0336867Y0158918D03*
X0336867Y0163318D03*
X0327067Y0066768D03*
X0327067Y0062368D03*
X0319517Y0052268D03*
X0319517Y0047868D03*
X0265567Y0021568D03*
X0265567Y0017168D03*
X0251517Y0017068D03*
X0251517Y0021468D03*
X0165267Y0029168D03*
X0165267Y0033568D03*
X0158867Y0033868D03*
X0158867Y0029468D03*
X0130067Y0120368D03*
X0130067Y0124768D03*
X0109867Y0124768D03*
X0109867Y0129168D03*
X0102267Y0127468D03*
X0102267Y0131868D03*
X0096767Y0131968D03*
X0096767Y0136368D03*
X0072267Y0125368D03*
X0072267Y0120968D03*
D18*
X0302018Y0209768D03*
X0320915Y0209768D03*
D19*
X0309010Y0190568D03*
X0301923Y0190568D03*
X0223210Y0195368D03*
X0216123Y0195368D03*
X0174010Y0182168D03*
X0166923Y0182168D03*
X0149410Y0179168D03*
X0142323Y0179168D03*
X0097210Y0203168D03*
X0090123Y0203168D03*
X0080410Y0176168D03*
X0073323Y0176168D03*
X0074523Y0095768D03*
X0081610Y0095768D03*
D20*
X0126067Y0175624D03*
X0126067Y0182711D03*
D21*
X0097569Y0221568D03*
X0091664Y0221568D03*
X0215667Y0023420D03*
X0221917Y0023420D03*
X0228167Y0023420D03*
X0234417Y0023420D03*
X0234417Y0017515D03*
X0228167Y0017515D03*
X0221917Y0017515D03*
X0215667Y0017515D03*
X0206367Y0016365D03*
X0206367Y0022270D03*
X0199117Y0022270D03*
X0199117Y0016365D03*
D22*
X0087980Y0196131D02*
X0087754Y0196131D01*
X0087980Y0196131D02*
X0087980Y0191805D01*
X0087754Y0191805D01*
X0087754Y0196131D01*
X0087754Y0193079D02*
X0087980Y0193079D01*
X0087980Y0194353D02*
X0087754Y0194353D01*
X0087754Y0195627D02*
X0087980Y0195627D01*
D23*
X0085867Y0193968D03*
X0083867Y0193968D03*
X0083867Y0185368D03*
X0085867Y0185368D03*
X0087867Y0185368D03*
D24*
X0091567Y0185668D03*
X0091567Y0187668D03*
X0091567Y0189668D03*
X0091567Y0191668D03*
X0091567Y0193668D03*
X0080167Y0193668D03*
X0080167Y0191668D03*
X0080167Y0189668D03*
X0080167Y0187668D03*
X0080167Y0185668D03*
D25*
X0086983Y0175568D03*
X0101550Y0175568D03*
X0103283Y0182918D03*
X0117850Y0182918D03*
X0130783Y0219968D03*
X0145350Y0219968D03*
D26*
X0171714Y0024973D02*
X0174820Y0024973D01*
X0174820Y0021867D01*
X0171714Y0021867D01*
X0171714Y0024973D01*
X0171714Y0023197D02*
X0174820Y0023197D01*
X0174820Y0024527D02*
X0171714Y0024527D01*
X0177764Y0024773D02*
X0180870Y0024773D01*
X0180870Y0021667D01*
X0177764Y0021667D01*
X0177764Y0024773D01*
X0177764Y0022997D02*
X0180870Y0022997D01*
X0180870Y0024327D02*
X0177764Y0024327D01*
X0184014Y0024773D02*
X0187120Y0024773D01*
X0187120Y0021667D01*
X0184014Y0021667D01*
X0184014Y0024773D01*
X0184014Y0022997D02*
X0187120Y0022997D01*
X0187120Y0024327D02*
X0184014Y0024327D01*
X0190264Y0024773D02*
X0193370Y0024773D01*
X0193370Y0021667D01*
X0190264Y0021667D01*
X0190264Y0024773D01*
X0190264Y0022997D02*
X0193370Y0022997D01*
X0193370Y0024327D02*
X0190264Y0024327D01*
X0190264Y0017868D02*
X0193370Y0017868D01*
X0193370Y0014762D01*
X0190264Y0014762D01*
X0190264Y0017868D01*
X0190264Y0016092D02*
X0193370Y0016092D01*
X0193370Y0017422D02*
X0190264Y0017422D01*
X0187120Y0017868D02*
X0184014Y0017868D01*
X0187120Y0017868D02*
X0187120Y0014762D01*
X0184014Y0014762D01*
X0184014Y0017868D01*
X0184014Y0016092D02*
X0187120Y0016092D01*
X0187120Y0017422D02*
X0184014Y0017422D01*
X0180870Y0017868D02*
X0177764Y0017868D01*
X0180870Y0017868D02*
X0180870Y0014762D01*
X0177764Y0014762D01*
X0177764Y0017868D01*
X0177764Y0016092D02*
X0180870Y0016092D01*
X0180870Y0017422D02*
X0177764Y0017422D01*
X0174820Y0018068D02*
X0171714Y0018068D01*
X0174820Y0018068D02*
X0174820Y0014962D01*
X0171714Y0014962D01*
X0171714Y0018068D01*
X0171714Y0016292D02*
X0174820Y0016292D01*
X0174820Y0017622D02*
X0171714Y0017622D01*
X0242164Y0015362D02*
X0245270Y0015362D01*
X0242164Y0015362D02*
X0242164Y0018468D01*
X0245270Y0018468D01*
X0245270Y0015362D01*
X0245270Y0016692D02*
X0242164Y0016692D01*
X0242164Y0018022D02*
X0245270Y0018022D01*
X0245270Y0022267D02*
X0242164Y0022267D01*
X0242164Y0025373D01*
X0245270Y0025373D01*
X0245270Y0022267D01*
X0245270Y0023597D02*
X0242164Y0023597D01*
X0242164Y0024927D02*
X0245270Y0024927D01*
D27*
X0246017Y0181568D03*
X0260517Y0181568D03*
D28*
X0151717Y0104068D03*
X0123817Y0104068D03*
D29*
X0131867Y0098168D03*
X0137767Y0098168D03*
X0143667Y0098168D03*
D30*
X0065891Y0059547D02*
X0060281Y0059547D01*
X0060281Y0049705D02*
X0065891Y0049705D01*
X0065891Y0041831D02*
X0060281Y0041831D01*
X0060281Y0031988D02*
X0065891Y0031988D01*
D31*
X0052417Y0019902D03*
X0052417Y0071634D03*
D32*
X0078467Y0124231D03*
X0078467Y0125806D03*
X0078467Y0127380D03*
X0078467Y0128955D03*
X0078467Y0130530D03*
X0078467Y0132105D03*
X0091066Y0132105D03*
X0091066Y0130530D03*
X0091066Y0128955D03*
X0091066Y0127380D03*
X0091066Y0125806D03*
X0091066Y0124231D03*
D33*
X0088704Y0121869D03*
X0087129Y0121869D03*
X0085554Y0121869D03*
X0083979Y0121869D03*
X0082404Y0121869D03*
X0080830Y0121869D03*
X0080830Y0134467D03*
X0082404Y0134467D03*
X0083979Y0134467D03*
X0085554Y0134467D03*
X0087129Y0134467D03*
X0088704Y0134467D03*
D34*
X0086723Y0126527D02*
X0082811Y0126527D01*
X0082811Y0129809D01*
X0086723Y0129809D01*
X0086723Y0126527D01*
X0086723Y0129807D02*
X0082811Y0129807D01*
D35*
X0056654Y0183670D02*
X0048780Y0183670D01*
X0040906Y0198631D02*
X0040906Y0206505D01*
X0064921Y0206505D02*
X0064921Y0198631D01*
D36*
X0124704Y0159879D03*
X0141633Y0159879D03*
D37*
X0112778Y0194802D03*
X0112778Y0211731D03*
D38*
X0261867Y0208068D03*
X0283867Y0208068D03*
D39*
X0211567Y0211568D03*
X0290767Y0102068D03*
D40*
X0300767Y0102068D03*
X0310767Y0102068D03*
X0310767Y0112068D03*
X0300767Y0112068D03*
X0290767Y0112068D03*
X0290767Y0122068D03*
X0300767Y0122068D03*
X0310767Y0122068D03*
X0310767Y0132068D03*
X0300767Y0132068D03*
X0290767Y0132068D03*
X0290767Y0142068D03*
X0300767Y0142068D03*
X0310767Y0142068D03*
X0310767Y0152068D03*
X0300767Y0152068D03*
X0290767Y0152068D03*
X0290767Y0162068D03*
X0300767Y0162068D03*
X0310767Y0162068D03*
X0310767Y0172068D03*
X0300767Y0172068D03*
X0290767Y0172068D03*
X0201567Y0211568D03*
X0191567Y0211568D03*
D41*
X0338267Y0132318D03*
X0354467Y0132318D03*
X0354917Y0109068D03*
X0338717Y0109068D03*
D42*
X0338717Y0103168D03*
X0354917Y0103168D03*
X0354467Y0126418D03*
X0338267Y0126418D03*
D43*
X0053218Y0123868D03*
X0053218Y0139468D03*
X0053818Y0155068D03*
X0053818Y0170668D03*
X0029015Y0170668D03*
X0029015Y0155068D03*
X0028415Y0139468D03*
X0028415Y0123868D03*
D44*
X0075467Y0106468D03*
D45*
X0106658Y0155068D03*
X0111776Y0155068D03*
X0111776Y0163268D03*
X0109217Y0163268D03*
X0106658Y0163268D03*
D46*
X0131617Y0187394D03*
X0136617Y0187394D03*
X0141617Y0187394D03*
X0146617Y0187394D03*
X0146617Y0209441D03*
X0141617Y0209441D03*
X0136617Y0209441D03*
X0131617Y0209441D03*
D47*
X0131017Y0215918D03*
X0144767Y0213418D03*
X0122892Y0202793D03*
X0099142Y0192793D03*
X0102267Y0187168D03*
X0104767Y0187168D03*
X0094767Y0187168D03*
X0088517Y0189668D03*
X0090392Y0195918D03*
X0087267Y0199043D03*
X0076017Y0192168D03*
X0074767Y0185293D03*
X0077267Y0179043D03*
X0074142Y0157168D03*
X0076017Y0145918D03*
X0076017Y0143418D03*
X0080392Y0137168D03*
X0056017Y0147793D03*
X0096017Y0118418D03*
X0099767Y0117168D03*
X0092892Y0114043D03*
X0105392Y0109043D03*
X0116642Y0117793D03*
X0121642Y0117168D03*
X0123517Y0119043D03*
X0130392Y0114043D03*
X0132892Y0111543D03*
X0134142Y0109043D03*
X0134767Y0105293D03*
X0141642Y0108418D03*
X0144142Y0110293D03*
X0142267Y0112168D03*
X0149767Y0114043D03*
X0161642Y0121543D03*
X0161642Y0127168D03*
X0166642Y0127168D03*
X0171017Y0129043D03*
X0157892Y0132168D03*
X0150392Y0129043D03*
X0152267Y0124668D03*
X0144142Y0127168D03*
X0141017Y0127168D03*
X0134767Y0124668D03*
X0132267Y0127168D03*
X0119767Y0129043D03*
X0114142Y0129043D03*
X0109142Y0132168D03*
X0115392Y0134043D03*
X0110392Y0122168D03*
X0128517Y0105293D03*
X0134767Y0100918D03*
X0146642Y0094043D03*
X0149767Y0093418D03*
X0149767Y0097793D03*
X0156017Y0098418D03*
X0161017Y0101543D03*
X0161017Y0093418D03*
X0156642Y0090918D03*
X0154767Y0087793D03*
X0157267Y0081543D03*
X0159767Y0081543D03*
X0166642Y0085918D03*
X0171642Y0081543D03*
X0179767Y0086543D03*
X0190392Y0081543D03*
X0196017Y0084668D03*
X0201642Y0086543D03*
X0196642Y0090918D03*
X0186017Y0099043D03*
X0184767Y0096543D03*
X0176017Y0099668D03*
X0174767Y0096543D03*
X0186017Y0104043D03*
X0192267Y0106543D03*
X0194767Y0101543D03*
X0181017Y0109668D03*
X0176642Y0111543D03*
X0176017Y0114668D03*
X0171642Y0115918D03*
X0166642Y0115918D03*
X0181642Y0117168D03*
X0186017Y0119043D03*
X0191017Y0124668D03*
X0190392Y0127168D03*
X0192267Y0131543D03*
X0188517Y0132793D03*
X0195392Y0135293D03*
X0197892Y0139043D03*
X0202892Y0139043D03*
X0211017Y0139043D03*
X0216017Y0139043D03*
X0212892Y0142168D03*
X0214142Y0149043D03*
X0211017Y0149043D03*
X0206017Y0149043D03*
X0202892Y0149668D03*
X0195392Y0151543D03*
X0190392Y0151543D03*
X0190392Y0159043D03*
X0188517Y0165918D03*
X0184142Y0171543D03*
X0182892Y0175293D03*
X0179142Y0175918D03*
X0176642Y0170918D03*
X0167892Y0174043D03*
X0170392Y0179668D03*
X0163517Y0181543D03*
X0161017Y0187168D03*
X0156017Y0179668D03*
X0139142Y0177793D03*
X0136017Y0177793D03*
X0131642Y0167168D03*
X0112892Y0159043D03*
X0134767Y0153418D03*
X0140392Y0146543D03*
X0137267Y0142793D03*
X0132267Y0137793D03*
X0151642Y0159043D03*
X0167892Y0159668D03*
X0176642Y0159668D03*
X0180392Y0151543D03*
X0172892Y0146543D03*
X0167892Y0139668D03*
X0182267Y0139043D03*
X0201017Y0128418D03*
X0206017Y0124668D03*
X0200392Y0120918D03*
X0206017Y0120293D03*
X0211017Y0119043D03*
X0214767Y0116543D03*
X0222267Y0116543D03*
X0225392Y0115918D03*
X0229767Y0111543D03*
X0231017Y0119668D03*
X0236017Y0119043D03*
X0225392Y0121543D03*
X0222267Y0121543D03*
X0220392Y0127168D03*
X0216017Y0126543D03*
X0212267Y0126543D03*
X0225392Y0133418D03*
X0230392Y0133418D03*
X0236017Y0129043D03*
X0235392Y0126543D03*
X0231642Y0125918D03*
X0227267Y0126543D03*
X0239767Y0126543D03*
X0246642Y0122168D03*
X0251642Y0122168D03*
X0257267Y0117168D03*
X0261017Y0114668D03*
X0251017Y0113418D03*
X0246642Y0105918D03*
X0231642Y0097168D03*
X0229767Y0091543D03*
X0220392Y0092168D03*
X0214767Y0081543D03*
X0214767Y0076543D03*
X0217267Y0076543D03*
X0209767Y0071543D03*
X0206017Y0068418D03*
X0210392Y0066543D03*
X0201017Y0069043D03*
X0206017Y0075293D03*
X0221017Y0064668D03*
X0221017Y0059043D03*
X0221017Y0053418D03*
X0226017Y0055293D03*
X0231017Y0055293D03*
X0236017Y0057168D03*
X0231017Y0059043D03*
X0241017Y0063418D03*
X0241642Y0071543D03*
X0245392Y0071543D03*
X0237267Y0071543D03*
X0226017Y0069668D03*
X0241017Y0079043D03*
X0239767Y0081543D03*
X0250392Y0081543D03*
X0254767Y0091543D03*
X0264767Y0094043D03*
X0264767Y0089043D03*
X0271017Y0093418D03*
X0271017Y0101543D03*
X0276642Y0103418D03*
X0279767Y0109043D03*
X0281642Y0114043D03*
X0279142Y0114668D03*
X0269767Y0114668D03*
X0264767Y0125293D03*
X0262267Y0124043D03*
X0272267Y0125918D03*
X0269767Y0130918D03*
X0263517Y0133418D03*
X0262267Y0137168D03*
X0259767Y0141543D03*
X0267267Y0141543D03*
X0273517Y0140293D03*
X0283517Y0145293D03*
X0279142Y0157793D03*
X0272892Y0161543D03*
X0278517Y0169043D03*
X0272892Y0170918D03*
X0259142Y0164043D03*
X0256017Y0153418D03*
X0253517Y0153418D03*
X0248517Y0155293D03*
X0244142Y0149668D03*
X0242892Y0145918D03*
X0229767Y0143418D03*
X0237267Y0135918D03*
X0241017Y0135918D03*
X0246642Y0135918D03*
X0250392Y0130918D03*
X0281642Y0124668D03*
X0316017Y0125293D03*
X0322267Y0134043D03*
X0327267Y0136543D03*
X0337267Y0140293D03*
X0332267Y0142168D03*
X0331642Y0151543D03*
X0331642Y0154043D03*
X0334142Y0156543D03*
X0332267Y0160293D03*
X0331642Y0162793D03*
X0322267Y0166543D03*
X0317892Y0162168D03*
X0342892Y0154668D03*
X0345392Y0154043D03*
X0348517Y0157168D03*
X0351017Y0162793D03*
X0350392Y0150293D03*
X0333517Y0117793D03*
X0342892Y0110918D03*
X0349142Y0103418D03*
X0339142Y0097793D03*
X0345392Y0094668D03*
X0344767Y0089668D03*
X0339142Y0087793D03*
X0334767Y0084043D03*
X0334142Y0077793D03*
X0344767Y0072793D03*
X0341017Y0069043D03*
X0348517Y0065918D03*
X0351017Y0072793D03*
X0351017Y0075293D03*
X0357892Y0080918D03*
X0348517Y0085293D03*
X0331017Y0095918D03*
X0329142Y0101543D03*
X0314142Y0099043D03*
X0306642Y0091543D03*
X0302892Y0094043D03*
X0296642Y0087168D03*
X0292892Y0080293D03*
X0286642Y0080918D03*
X0286642Y0078418D03*
X0283517Y0077168D03*
X0274767Y0077168D03*
X0274767Y0084668D03*
X0281017Y0097793D03*
X0317267Y0084043D03*
X0321017Y0090293D03*
X0325392Y0089668D03*
X0315392Y0073418D03*
X0319142Y0066543D03*
X0310392Y0060293D03*
X0314767Y0055918D03*
X0321017Y0056543D03*
X0332267Y0060918D03*
X0341642Y0054668D03*
X0344142Y0056543D03*
X0348517Y0057168D03*
X0351017Y0050293D03*
X0346017Y0048418D03*
X0356017Y0047793D03*
X0322267Y0046543D03*
X0316642Y0047793D03*
X0302892Y0045918D03*
X0297267Y0046543D03*
X0289767Y0038418D03*
X0297267Y0036543D03*
X0302892Y0033418D03*
X0299767Y0030293D03*
X0301017Y0025293D03*
X0297267Y0024043D03*
X0309142Y0018418D03*
X0281017Y0023418D03*
X0268517Y0034043D03*
X0266017Y0034043D03*
X0258517Y0028418D03*
X0248517Y0022793D03*
X0254142Y0016543D03*
X0239767Y0022793D03*
X0237892Y0019043D03*
X0234767Y0026543D03*
X0232892Y0030918D03*
X0236017Y0034668D03*
X0238517Y0031543D03*
X0240392Y0027168D03*
X0245392Y0031543D03*
X0246017Y0039043D03*
X0246017Y0044668D03*
X0244767Y0051543D03*
X0236017Y0049043D03*
X0235392Y0046543D03*
X0236017Y0044043D03*
X0231017Y0043418D03*
X0226642Y0047168D03*
X0221017Y0047793D03*
X0236017Y0039043D03*
X0222267Y0026543D03*
X0225392Y0020918D03*
X0215392Y0026543D03*
X0211017Y0022168D03*
X0209142Y0025918D03*
X0204142Y0025918D03*
X0202892Y0021543D03*
X0209767Y0017168D03*
X0202267Y0015293D03*
X0195392Y0017168D03*
X0188517Y0019043D03*
X0182267Y0019043D03*
X0182267Y0026543D03*
X0180392Y0028418D03*
X0177892Y0030918D03*
X0176017Y0026543D03*
X0185392Y0029668D03*
X0191017Y0029043D03*
X0196017Y0030918D03*
X0191017Y0034668D03*
X0201017Y0034043D03*
X0204767Y0041543D03*
X0211017Y0031543D03*
X0195392Y0025293D03*
X0169767Y0017793D03*
X0158517Y0026543D03*
X0153517Y0036543D03*
X0151017Y0035293D03*
X0148517Y0035918D03*
X0141642Y0032168D03*
X0120392Y0043418D03*
X0122892Y0046543D03*
X0125392Y0046543D03*
X0125392Y0054668D03*
X0140392Y0058418D03*
X0150392Y0056543D03*
X0161017Y0053418D03*
X0165392Y0052168D03*
X0169767Y0056543D03*
X0171642Y0052168D03*
X0174767Y0056543D03*
X0176017Y0060293D03*
X0174767Y0066543D03*
X0171642Y0066543D03*
X0164767Y0071543D03*
X0161642Y0071543D03*
X0161017Y0065293D03*
X0157267Y0076543D03*
X0140392Y0082793D03*
X0136642Y0076543D03*
X0121642Y0076543D03*
X0119142Y0078418D03*
X0112892Y0084043D03*
X0118517Y0091543D03*
X0121017Y0091543D03*
X0101017Y0082168D03*
X0098517Y0083418D03*
X0093517Y0078418D03*
X0093517Y0070293D03*
X0098517Y0065293D03*
X0111017Y0065293D03*
X0114767Y0070293D03*
X0124142Y0067168D03*
X0095392Y0095293D03*
X0086642Y0102168D03*
X0067892Y0094043D03*
X0052892Y0099668D03*
X0051017Y0104043D03*
X0041642Y0112168D03*
X0062267Y0082168D03*
X0071017Y0078418D03*
X0077892Y0078418D03*
X0061642Y0075918D03*
X0052892Y0080293D03*
X0061642Y0068418D03*
X0072267Y0062793D03*
X0049767Y0063418D03*
X0097267Y0034043D03*
X0175392Y0047168D03*
X0184767Y0051543D03*
X0189767Y0051543D03*
X0192267Y0051543D03*
X0191017Y0055293D03*
X0196017Y0053418D03*
X0201642Y0060918D03*
X0206017Y0060293D03*
X0186017Y0064668D03*
X0180392Y0066543D03*
X0181017Y0069043D03*
X0181017Y0075293D03*
X0181017Y0077793D03*
X0211017Y0103418D03*
X0219767Y0106543D03*
X0206017Y0113418D03*
X0199767Y0116543D03*
X0237267Y0154043D03*
X0235392Y0158418D03*
X0229767Y0158418D03*
X0227892Y0162168D03*
X0222267Y0157168D03*
X0218517Y0160918D03*
X0207892Y0162793D03*
X0210392Y0171543D03*
X0214142Y0170293D03*
X0218517Y0174668D03*
X0226017Y0172168D03*
X0233517Y0167168D03*
X0237267Y0173418D03*
X0241642Y0168418D03*
X0246017Y0169043D03*
X0224767Y0180918D03*
X0231642Y0186543D03*
X0233517Y0190293D03*
X0226642Y0191543D03*
X0224142Y0191543D03*
X0219142Y0192168D03*
X0219142Y0199043D03*
X0221642Y0199668D03*
X0216017Y0199668D03*
X0221642Y0205293D03*
X0223517Y0207793D03*
X0231642Y0210293D03*
X0236017Y0202793D03*
X0239767Y0195918D03*
X0247892Y0192168D03*
X0257267Y0190293D03*
X0259767Y0190293D03*
X0252892Y0184668D03*
X0246017Y0205293D03*
X0254142Y0214668D03*
X0254142Y0217168D03*
X0273517Y0208418D03*
X0325392Y0205293D03*
X0222267Y0222793D03*
X0217892Y0218418D03*
X0206642Y0195918D03*
X0196642Y0189668D03*
X0204142Y0184668D03*
X0209142Y0182793D03*
X0201017Y0180293D03*
X0190392Y0180293D03*
X0179767Y0185293D03*
X0187892Y0189668D03*
X0202892Y0170918D03*
X0152267Y0192168D03*
X0121642Y0185293D03*
X0113517Y0185293D03*
X0109142Y0218418D03*
X0094767Y0224043D03*
X0180392Y0217168D03*
X0303517Y0073418D03*
X0301017Y0070293D03*
X0303517Y0062793D03*
X0302892Y0058418D03*
X0286642Y0057793D03*
X0282267Y0055918D03*
X0281642Y0052793D03*
X0274767Y0053418D03*
X0272267Y0051543D03*
X0271017Y0049043D03*
X0269142Y0047168D03*
X0262892Y0055293D03*
X0274767Y0059668D03*
X0278517Y0061543D03*
X0280392Y0067793D03*
X0284767Y0069668D03*
X0256017Y0042793D03*
X0259767Y0040293D03*
X0278517Y0036543D03*
D48*
X0339767Y0037168D03*
X0339767Y0202168D03*
X0079767Y0214668D03*
X0079767Y0024668D03*
M02*
