G75*
%MOIN*%
%OFA0B0*%
%FSLAX25Y25*%
%IPPOS*%
%LPD*%
%AMOC8*
5,1,8,0,0,1.08239X$1,22.5*
%
%ADD10R,0.04724X0.02362*%
%ADD11R,0.10700X0.14500*%
%ADD12R,0.04724X0.07087*%
%ADD13R,0.02362X0.06102*%
%ADD14C,0.01200*%
%ADD15R,0.09450X0.06500*%
%ADD16R,0.02400X0.02000*%
%ADD17R,0.02000X0.02400*%
%ADD18R,0.11811X0.05512*%
%ADD19R,0.03150X0.04724*%
%ADD20R,0.04724X0.03150*%
%ADD21R,0.03150X0.03150*%
%ADD22C,0.00850*%
%ADD23R,0.01000X0.05100*%
%ADD24R,0.02800X0.01000*%
%ADD25R,0.04724X0.02756*%
%ADD26C,0.01181*%
%ADD27R,0.06000X0.08600*%
%ADD28R,0.05900X0.09100*%
%ADD29R,0.02800X0.15600*%
%ADD30C,0.05610*%
%ADD31C,0.13055*%
%ADD32R,0.02362X0.00787*%
%ADD33R,0.00787X0.02362*%
%ADD34C,0.03031*%
%ADD35C,0.07874*%
%ADD36R,0.09843X0.23622*%
%ADD37R,0.23622X0.09843*%
%ADD38R,0.10200X0.32300*%
%ADD39R,0.05906X0.05906*%
%ADD40C,0.05906*%
%ADD41R,0.04800X0.04800*%
%ADD42C,0.04800*%
%ADD43R,0.09055X0.06299*%
%ADD44C,0.05000*%
%ADD45R,0.01400X0.04600*%
%ADD46C,0.00500*%
%ADD47R,0.02362X0.04724*%
%ADD48C,0.01800*%
%ADD49C,0.16500*%
D10*
X0227843Y0204068D03*
X0227843Y0209068D03*
X0227843Y0214068D03*
X0227843Y0219068D03*
X0249890Y0219068D03*
X0249890Y0214068D03*
X0249890Y0209068D03*
X0249890Y0204068D03*
X0176440Y0206318D03*
X0176440Y0211318D03*
X0176440Y0216318D03*
X0176440Y0221318D03*
X0154393Y0221318D03*
X0154393Y0216318D03*
X0154393Y0211318D03*
X0154393Y0206318D03*
D11*
X0238867Y0211568D03*
D12*
X0223785Y0163878D03*
X0232164Y0149678D03*
X0223785Y0142778D03*
X0193864Y0142778D03*
X0186235Y0142828D03*
X0156314Y0142828D03*
X0146885Y0140778D03*
X0124964Y0140778D03*
X0160364Y0163378D03*
X0182285Y0163378D03*
X0193864Y0163878D03*
X0262085Y0149678D03*
X0224085Y0107128D03*
X0202164Y0107128D03*
X0115085Y0103828D03*
X0093164Y0103828D03*
X0290764Y0086828D03*
X0312685Y0086828D03*
X0332564Y0089428D03*
X0354485Y0089428D03*
X0355585Y0070328D03*
X0333664Y0070328D03*
X0309885Y0050228D03*
X0287964Y0050228D03*
X0288764Y0027828D03*
X0310685Y0027828D03*
D13*
X0305567Y0019068D03*
X0301630Y0019068D03*
X0297693Y0019068D03*
X0293756Y0019068D03*
X0292956Y0041468D03*
X0296893Y0041468D03*
X0300830Y0041468D03*
X0304767Y0041468D03*
X0338656Y0061568D03*
X0342593Y0061568D03*
X0346530Y0061568D03*
X0350467Y0061568D03*
X0349367Y0080668D03*
X0345430Y0080668D03*
X0341493Y0080668D03*
X0337556Y0080668D03*
X0307567Y0078068D03*
X0303630Y0078068D03*
X0299693Y0078068D03*
X0295756Y0078068D03*
X0218967Y0098368D03*
X0215030Y0098368D03*
X0211093Y0098368D03*
X0207156Y0098368D03*
X0206856Y0134018D03*
X0210793Y0134018D03*
X0214730Y0134018D03*
X0218667Y0134018D03*
X0202919Y0134018D03*
X0198982Y0134018D03*
X0181117Y0134068D03*
X0177180Y0134068D03*
X0173243Y0134068D03*
X0169306Y0134068D03*
X0165369Y0134068D03*
X0161432Y0134068D03*
X0141767Y0132018D03*
X0137830Y0132018D03*
X0133893Y0132018D03*
X0129956Y0132018D03*
X0165356Y0154618D03*
X0169293Y0154618D03*
X0173230Y0154618D03*
X0177167Y0154618D03*
X0198982Y0155118D03*
X0202919Y0155118D03*
X0206856Y0155118D03*
X0210793Y0155118D03*
X0214730Y0155118D03*
X0218667Y0155118D03*
X0237282Y0140918D03*
X0241219Y0140918D03*
X0245156Y0140918D03*
X0249093Y0140918D03*
X0253030Y0140918D03*
X0256967Y0140918D03*
X0109967Y0095068D03*
X0106030Y0095068D03*
X0102093Y0095068D03*
X0098156Y0095068D03*
D14*
X0097892Y0095293D01*
X0095392Y0095293D01*
X0081642Y0095293D01*
X0081610Y0095768D01*
X0081017Y0095918D01*
X0077267Y0099668D01*
X0076017Y0099668D01*
X0076017Y0105918D01*
X0075467Y0106468D01*
X0075392Y0106543D01*
X0072892Y0106543D01*
X0072892Y0114043D01*
X0072867Y0114368D01*
X0072267Y0114668D01*
X0072267Y0120968D01*
X0072267Y0121543D01*
X0065392Y0128418D01*
X0028517Y0128418D01*
X0028517Y0124043D01*
X0028415Y0123868D01*
X0028517Y0128418D02*
X0028517Y0139043D01*
X0028415Y0139468D01*
X0028517Y0139668D01*
X0028517Y0150293D01*
X0106642Y0150293D01*
X0111642Y0145293D01*
X0111817Y0145268D01*
X0112267Y0144668D01*
X0112267Y0139668D01*
X0116017Y0139668D01*
X0120704Y0134980D01*
X0120392Y0134668D01*
X0119767Y0134668D01*
X0115079Y0129980D01*
X0106017Y0139043D01*
X0095392Y0139043D01*
X0094767Y0138418D01*
X0091642Y0138418D01*
X0091642Y0132168D01*
X0091066Y0132105D01*
X0091017Y0132168D01*
X0088517Y0132168D01*
X0087579Y0131230D01*
X0084767Y0128418D01*
X0084767Y0128168D01*
X0091066Y0124231D02*
X0091642Y0124043D01*
X0094767Y0124043D01*
X0095704Y0124980D01*
X0096017Y0124668D01*
X0109767Y0124668D01*
X0109867Y0124768D01*
X0110392Y0125293D01*
X0116017Y0125293D01*
X0119767Y0129043D01*
X0115079Y0129980D02*
X0114142Y0129043D01*
X0110392Y0129043D01*
X0109867Y0129168D01*
X0109767Y0129043D01*
X0103517Y0129043D01*
X0102267Y0127793D01*
X0102267Y0127468D01*
X0100079Y0129355D02*
X0099767Y0129668D01*
X0099142Y0129668D01*
X0097267Y0131543D01*
X0096767Y0131968D01*
X0100079Y0129355D02*
X0095704Y0124980D01*
X0100079Y0129355D02*
X0102267Y0131543D01*
X0102267Y0131868D01*
X0105392Y0142793D02*
X0084767Y0142793D01*
X0084454Y0142480D01*
X0086017Y0140918D01*
X0086567Y0140668D01*
X0084454Y0142480D02*
X0084142Y0142793D01*
X0079767Y0142793D01*
X0077892Y0140918D01*
X0077567Y0140668D01*
X0077892Y0140293D01*
X0077892Y0132168D01*
X0078467Y0132105D01*
X0077892Y0132168D02*
X0072267Y0132168D01*
X0072267Y0125368D01*
X0072267Y0125293D01*
X0075392Y0122168D01*
X0077267Y0122168D01*
X0077267Y0115293D01*
X0077267Y0114368D01*
X0077267Y0109668D01*
X0077892Y0109668D01*
X0080392Y0107168D01*
X0080392Y0099668D01*
X0089767Y0099668D01*
X0090392Y0099043D01*
X0096017Y0099043D01*
X0096642Y0099668D01*
X0099767Y0099668D01*
X0101642Y0097793D01*
X0101642Y0095293D01*
X0102093Y0095068D01*
X0102267Y0094668D01*
X0102267Y0089043D01*
X0135392Y0089043D01*
X0135704Y0089355D01*
X0136017Y0089043D01*
X0153517Y0089043D01*
X0154767Y0087793D01*
X0154767Y0088418D01*
X0157267Y0088418D01*
X0157892Y0089043D01*
X0179767Y0089043D01*
X0184142Y0093418D01*
X0191017Y0093418D01*
X0196017Y0088418D01*
X0197267Y0088418D01*
X0197892Y0089043D01*
X0264767Y0089043D01*
X0259767Y0102168D02*
X0239142Y0102168D01*
X0238567Y0102318D01*
X0238517Y0102168D01*
X0238517Y0094668D01*
X0229767Y0094668D01*
X0229767Y0091543D01*
X0229767Y0094668D02*
X0228517Y0094668D01*
X0220392Y0102793D01*
X0211017Y0102793D01*
X0211017Y0103418D01*
X0210392Y0102793D01*
X0209142Y0102793D01*
X0207267Y0100918D01*
X0207267Y0098418D01*
X0207156Y0098368D01*
X0211017Y0097793D02*
X0211017Y0093418D01*
X0191017Y0093418D01*
X0211017Y0097793D02*
X0211093Y0098368D01*
X0176642Y0124668D02*
X0152267Y0124668D01*
X0134767Y0124668D01*
X0133517Y0127168D02*
X0132267Y0127168D01*
X0133517Y0127168D02*
X0133517Y0131543D01*
X0133893Y0132018D01*
X0129956Y0132018D02*
X0129142Y0131543D01*
X0124142Y0131543D01*
X0120704Y0134980D01*
X0129767Y0131543D02*
X0129956Y0132018D01*
X0129767Y0131543D02*
X0129767Y0125293D01*
X0130067Y0124768D01*
X0130392Y0114043D02*
X0129767Y0113418D01*
X0093517Y0113418D01*
X0092892Y0114043D01*
X0091017Y0114043D01*
X0090392Y0114668D01*
X0089867Y0114968D01*
X0087892Y0111543D02*
X0132892Y0111543D01*
X0134767Y0105293D02*
X0137267Y0105293D01*
X0137267Y0098418D01*
X0137767Y0098168D01*
X0134767Y0100918D02*
X0132267Y0098418D01*
X0131867Y0098168D01*
X0132267Y0097793D01*
X0132267Y0092793D01*
X0135704Y0089355D01*
X0164767Y0071543D02*
X0209767Y0071543D01*
X0256017Y0042793D02*
X0291642Y0042793D01*
X0292892Y0041543D01*
X0292956Y0041468D01*
X0296893Y0041468D02*
X0297267Y0040918D01*
X0297267Y0036543D01*
X0297267Y0024043D02*
X0297267Y0019668D01*
X0297693Y0019068D01*
X0294142Y0019043D02*
X0294142Y0017168D01*
X0293756Y0019068D01*
X0294142Y0019043D01*
X0294142Y0017168D02*
X0265567Y0017168D01*
X0254142Y0017168D01*
X0254142Y0016543D01*
X0254142Y0017168D02*
X0251642Y0017168D01*
X0251517Y0017068D01*
X0245392Y0031543D02*
X0238517Y0031543D01*
X0236017Y0034668D02*
X0236017Y0035293D01*
X0234142Y0037168D01*
X0154142Y0037168D01*
X0153517Y0036543D01*
X0151642Y0039043D02*
X0236017Y0039043D01*
X0237892Y0036543D02*
X0278517Y0036543D01*
X0294142Y0017168D02*
X0294142Y0016543D01*
X0296017Y0014668D01*
X0308517Y0014668D01*
X0310704Y0016855D01*
X0309142Y0018418D01*
X0310704Y0016855D02*
X0311642Y0017793D01*
X0312067Y0018018D01*
X0319517Y0052268D02*
X0319767Y0052793D01*
X0321954Y0054980D01*
X0321642Y0055293D01*
X0321017Y0055293D01*
X0320079Y0056230D01*
X0320392Y0056543D01*
X0321017Y0056543D01*
X0320079Y0056230D02*
X0317892Y0058418D01*
X0317617Y0059018D01*
X0321954Y0054980D02*
X0323517Y0056543D01*
X0323967Y0056618D01*
X0327067Y0062368D02*
X0326642Y0062793D01*
X0303517Y0062793D01*
X0301017Y0070293D02*
X0301642Y0070918D01*
X0304142Y0070918D01*
X0307267Y0074043D01*
X0307267Y0077793D01*
X0307567Y0078068D01*
X0303630Y0078068D02*
X0303517Y0077793D01*
X0303517Y0073418D01*
X0299693Y0078068D02*
X0299142Y0078418D01*
X0296017Y0078418D01*
X0295756Y0078068D01*
X0295392Y0078418D01*
X0293517Y0080293D01*
X0292892Y0080293D01*
X0284142Y0094043D02*
X0283717Y0093818D01*
X0284142Y0094043D02*
X0302892Y0094043D01*
X0317267Y0094043D01*
X0321017Y0090293D01*
X0326017Y0084043D02*
X0334767Y0084043D01*
X0336017Y0085293D01*
X0341017Y0085293D01*
X0341017Y0080918D01*
X0341493Y0080668D01*
X0337556Y0080668D02*
X0337267Y0080293D01*
X0334767Y0077793D01*
X0334142Y0077793D01*
X0326017Y0084043D02*
X0315392Y0073418D01*
X0327067Y0062368D02*
X0332267Y0057168D01*
X0340392Y0057168D01*
X0341954Y0058730D01*
X0344142Y0056543D01*
X0341954Y0058730D02*
X0342267Y0059043D01*
X0342267Y0061543D01*
X0342593Y0061568D01*
X0339142Y0062168D02*
X0339142Y0064043D01*
X0341017Y0065918D01*
X0348517Y0065918D01*
X0339142Y0062168D02*
X0338656Y0061568D01*
X0338517Y0061543D01*
X0337892Y0060918D01*
X0332267Y0060918D01*
X0311017Y0102168D02*
X0310767Y0102068D01*
X0311017Y0102168D02*
X0311017Y0111543D01*
X0310767Y0112068D01*
X0311017Y0112168D01*
X0323517Y0112168D01*
X0326917Y0115568D01*
X0331317Y0115568D02*
X0331642Y0115918D01*
X0333517Y0117793D01*
X0320392Y0132168D02*
X0311017Y0132168D01*
X0310767Y0132068D01*
X0311017Y0131543D01*
X0311017Y0122168D01*
X0310767Y0122068D01*
X0320392Y0132168D02*
X0322267Y0134043D01*
X0311017Y0142168D02*
X0310767Y0142068D01*
X0311017Y0142168D02*
X0311017Y0151543D01*
X0310767Y0152068D01*
X0311017Y0152168D01*
X0312892Y0154043D01*
X0331642Y0154043D01*
X0334767Y0154043D01*
X0335392Y0154668D01*
X0338517Y0154668D01*
X0341017Y0152168D01*
X0341367Y0151968D01*
X0341642Y0151543D01*
X0349142Y0151543D01*
X0350392Y0150293D01*
X0336642Y0158418D02*
X0336867Y0158918D01*
X0336642Y0158418D02*
X0336017Y0158418D01*
X0335079Y0157480D01*
X0332267Y0160293D01*
X0335079Y0157480D02*
X0334142Y0156543D01*
X0309142Y0156543D01*
X0308517Y0155918D01*
X0306642Y0155918D01*
X0306642Y0142168D01*
X0302267Y0137793D01*
X0269767Y0137793D01*
X0269767Y0137368D01*
X0269767Y0130918D01*
X0272267Y0117168D02*
X0257267Y0117168D01*
X0272267Y0117168D02*
X0272267Y0105293D01*
X0262892Y0105293D01*
X0259767Y0102168D01*
X0279767Y0106543D02*
X0280167Y0106318D01*
X0279767Y0106543D02*
X0279767Y0109043D01*
X0279142Y0114668D02*
X0277267Y0116543D01*
X0276767Y0116868D01*
X0276642Y0117168D01*
X0272267Y0117168D01*
X0237282Y0140918D02*
X0237267Y0140918D01*
X0234767Y0143418D01*
X0229767Y0143418D01*
X0229767Y0158418D02*
X0229767Y0160918D01*
X0230392Y0160918D01*
X0230817Y0161418D01*
X0231017Y0161543D01*
X0231017Y0169043D01*
X0231267Y0169568D01*
X0231642Y0169668D01*
X0234142Y0172168D01*
X0234767Y0172168D01*
X0234767Y0176068D01*
X0234767Y0176543D01*
X0241017Y0176543D01*
X0246017Y0181543D01*
X0246017Y0181568D01*
X0246017Y0182168D01*
X0250392Y0182168D01*
X0250704Y0182480D01*
X0257267Y0175918D01*
X0288517Y0175918D01*
X0289142Y0176543D01*
X0292267Y0176543D01*
X0295392Y0173418D01*
X0295392Y0157793D01*
X0279142Y0157793D01*
X0271642Y0157793D01*
X0270392Y0156543D01*
X0269817Y0156218D01*
X0295392Y0157793D02*
X0306642Y0157793D01*
X0310392Y0161543D01*
X0310767Y0162068D01*
X0311017Y0162168D01*
X0311017Y0171543D01*
X0310767Y0172068D01*
X0310392Y0172168D01*
X0309142Y0172168D01*
X0309142Y0190293D01*
X0309010Y0190568D01*
X0308517Y0190918D01*
X0305392Y0194043D01*
X0302267Y0194043D01*
X0302267Y0209668D01*
X0302018Y0209768D01*
X0252892Y0184668D02*
X0251954Y0183730D01*
X0239767Y0195918D01*
X0222367Y0189968D02*
X0222367Y0187968D01*
X0219867Y0187968D02*
X0219867Y0189968D01*
X0217267Y0189968D02*
X0217267Y0187968D01*
X0214767Y0187968D02*
X0214767Y0189968D01*
X0210392Y0189668D02*
X0216017Y0195293D01*
X0216123Y0195368D01*
X0216017Y0195918D01*
X0216017Y0199668D01*
X0223517Y0207793D02*
X0226017Y0207793D01*
X0227267Y0209043D01*
X0227843Y0209068D01*
X0210392Y0189668D02*
X0196642Y0189668D01*
X0182367Y0189368D02*
X0182267Y0189668D01*
X0175392Y0189668D01*
X0175017Y0189868D01*
X0174767Y0189668D01*
X0172267Y0187168D01*
X0165392Y0187168D01*
X0165392Y0189668D01*
X0164867Y0189968D01*
X0165392Y0187168D02*
X0165392Y0182168D01*
X0164142Y0182168D01*
X0163517Y0181543D01*
X0165392Y0182168D02*
X0166923Y0182168D01*
X0166642Y0182168D01*
X0170392Y0179668D02*
X0170704Y0179355D01*
X0173517Y0182168D01*
X0174010Y0182168D01*
X0170704Y0179355D02*
X0169767Y0178418D01*
X0162892Y0178418D01*
X0159142Y0182168D01*
X0158767Y0182718D01*
X0158517Y0182793D01*
X0154142Y0187168D01*
X0149142Y0187168D01*
X0149142Y0179668D01*
X0149410Y0179168D01*
X0149142Y0179043D01*
X0149142Y0175293D01*
X0126642Y0175293D01*
X0126067Y0175624D01*
X0126017Y0175293D01*
X0121642Y0175293D01*
X0117267Y0170918D01*
X0107267Y0170918D01*
X0107267Y0163418D01*
X0106658Y0163268D01*
X0107417Y0145268D02*
X0107267Y0144668D01*
X0105392Y0142793D01*
X0132267Y0137793D02*
X0135392Y0137793D01*
X0143517Y0145918D01*
X0146017Y0145918D01*
X0147892Y0147793D01*
X0168517Y0147793D01*
X0169767Y0149043D01*
X0199142Y0149043D01*
X0201329Y0151230D01*
X0202892Y0149668D01*
X0201329Y0151230D02*
X0202892Y0152793D01*
X0202892Y0154668D01*
X0202919Y0155118D01*
X0198982Y0155118D02*
X0198517Y0154668D01*
X0195392Y0151543D01*
X0202892Y0139043D02*
X0202892Y0134043D01*
X0202919Y0134018D01*
X0198982Y0134018D02*
X0198517Y0134043D01*
X0197267Y0135293D01*
X0195392Y0135293D01*
X0181017Y0135293D01*
X0181117Y0134068D01*
X0181017Y0134668D01*
X0181017Y0135293D01*
X0181017Y0136543D01*
X0179142Y0138418D01*
X0167892Y0138418D01*
X0167892Y0139668D01*
X0167892Y0138418D02*
X0165392Y0138418D01*
X0165392Y0134668D01*
X0165369Y0134068D01*
X0176642Y0134043D02*
X0177180Y0134068D01*
X0176642Y0134043D02*
X0176642Y0124668D01*
X0169767Y0149043D02*
X0169767Y0154043D01*
X0169293Y0154618D01*
X0169142Y0154668D01*
X0167892Y0154668D01*
X0167892Y0159668D01*
X0165356Y0154618D02*
X0164767Y0154668D01*
X0162892Y0156543D01*
X0151017Y0156543D01*
X0149142Y0158418D01*
X0149142Y0175293D01*
X0142323Y0179168D02*
X0141642Y0179668D01*
X0139767Y0177793D01*
X0139142Y0177793D01*
X0141642Y0179668D02*
X0142267Y0179668D01*
X0142323Y0179168D01*
X0141642Y0179668D02*
X0141642Y0187168D01*
X0141617Y0187394D01*
X0146617Y0187394D02*
X0146642Y0187168D01*
X0149142Y0187168D01*
X0164867Y0173168D02*
X0165392Y0173418D01*
X0167892Y0173418D01*
X0167892Y0174043D01*
X0167892Y0173418D02*
X0172267Y0173418D01*
X0172367Y0173668D01*
X0141633Y0159879D02*
X0141017Y0159668D01*
X0134767Y0153418D01*
X0080167Y0185668D02*
X0079767Y0185293D01*
X0073829Y0179355D01*
X0069767Y0183418D01*
X0052892Y0183418D01*
X0052717Y0183670D01*
X0052267Y0183418D01*
X0042892Y0183418D01*
X0029767Y0170293D01*
X0029015Y0170668D01*
X0029142Y0170293D01*
X0029142Y0155293D01*
X0029015Y0155068D01*
X0028517Y0154668D01*
X0028517Y0150293D01*
X0073323Y0176168D02*
X0073517Y0176543D01*
X0073517Y0179043D01*
X0073829Y0179355D01*
X0091017Y0194043D02*
X0091567Y0193668D01*
X0091642Y0194043D01*
X0096642Y0194043D01*
X0096667Y0193968D01*
X0096642Y0194668D01*
X0096642Y0202793D01*
X0097210Y0203168D01*
X0097267Y0203418D01*
X0099142Y0205293D01*
X0126017Y0205293D01*
X0130392Y0209668D01*
X0131017Y0209668D01*
X0131617Y0209441D01*
X0131642Y0209668D01*
X0136017Y0209668D01*
X0136617Y0209441D01*
X0136642Y0209668D01*
X0141017Y0209668D01*
X0141617Y0209441D01*
X0141642Y0209668D01*
X0146017Y0209668D01*
X0146617Y0209441D01*
X0146642Y0209668D01*
X0152892Y0209668D01*
X0154142Y0210918D01*
X0154393Y0211318D01*
X0154767Y0211543D01*
X0154767Y0215918D01*
X0154393Y0216318D01*
X0154767Y0216543D01*
X0154767Y0220918D01*
X0154393Y0221318D01*
X0154393Y0211318D02*
X0154767Y0210918D01*
X0154767Y0206543D01*
X0154393Y0206318D01*
X0131017Y0209668D02*
X0131017Y0215918D01*
X0131017Y0219668D01*
X0130783Y0219968D01*
X0091017Y0195918D02*
X0090392Y0195918D01*
X0091017Y0195918D02*
X0091017Y0194043D01*
X0087267Y0199043D02*
X0085392Y0200918D01*
X0085067Y0201368D01*
X0214767Y0178368D02*
X0214767Y0176368D01*
X0217267Y0176368D02*
X0217267Y0178368D01*
X0219867Y0178368D02*
X0219867Y0176368D01*
X0222367Y0176418D02*
X0222367Y0178318D01*
X0250704Y0182480D02*
X0251954Y0183730D01*
X0087892Y0111543D02*
X0082892Y0106543D01*
X0082767Y0106518D01*
X0086642Y0105918D02*
X0086642Y0102168D01*
X0086642Y0105918D02*
X0087167Y0106518D01*
X0081610Y0095768D02*
X0081017Y0095293D01*
X0081017Y0089668D01*
X0080867Y0089168D01*
X0061642Y0068418D02*
X0058517Y0071543D01*
X0052892Y0071543D01*
X0052417Y0071634D01*
X0097267Y0034043D02*
X0139767Y0034043D01*
X0141642Y0032168D01*
X0144142Y0029668D01*
X0158517Y0029668D01*
X0158867Y0029468D01*
X0151642Y0039043D02*
X0148517Y0035918D01*
X0196017Y0030918D02*
X0197892Y0029043D01*
X0198517Y0029043D01*
X0198517Y0028568D01*
X0198517Y0028418D01*
X0195392Y0025293D01*
X0208367Y0028618D02*
X0208517Y0029043D01*
X0211017Y0031543D01*
X0236017Y0034668D02*
X0237892Y0036543D01*
D15*
X0218567Y0183168D03*
D16*
X0230367Y0176068D03*
X0234767Y0176068D03*
X0235667Y0169568D03*
X0231267Y0169568D03*
X0221267Y0171368D03*
X0216867Y0171368D03*
X0230817Y0161418D03*
X0235217Y0161418D03*
X0242067Y0165968D03*
X0246467Y0165968D03*
X0251667Y0171068D03*
X0256067Y0171068D03*
X0261867Y0165368D03*
X0266267Y0165368D03*
X0264117Y0158418D03*
X0259717Y0158418D03*
X0276567Y0161868D03*
X0280967Y0161868D03*
X0281567Y0171568D03*
X0277167Y0171568D03*
X0277167Y0151568D03*
X0281567Y0151568D03*
X0280967Y0141868D03*
X0276567Y0141868D03*
X0276567Y0132168D03*
X0280967Y0132168D03*
X0281617Y0121868D03*
X0277217Y0121868D03*
X0276767Y0116868D03*
X0281167Y0116868D03*
X0281017Y0111468D03*
X0276617Y0111468D03*
X0275767Y0106318D03*
X0280167Y0106318D03*
X0279017Y0100018D03*
X0283417Y0100018D03*
X0283717Y0093818D03*
X0279317Y0093818D03*
X0238567Y0102318D03*
X0234167Y0102318D03*
X0313217Y0059018D03*
X0317617Y0059018D03*
X0323967Y0056618D03*
X0328367Y0056618D03*
X0316467Y0018018D03*
X0312067Y0018018D03*
X0208367Y0028618D03*
X0203967Y0028618D03*
X0198517Y0028568D03*
X0194117Y0028568D03*
X0080867Y0089168D03*
X0076467Y0089168D03*
X0082767Y0106518D03*
X0087167Y0106518D03*
X0085467Y0114968D03*
X0089867Y0114968D03*
X0077267Y0114368D03*
X0072867Y0114368D03*
X0077567Y0140668D03*
X0081967Y0140668D03*
X0086567Y0140668D03*
X0090967Y0140668D03*
X0107417Y0145268D03*
X0111817Y0145268D03*
X0160467Y0173168D03*
X0164867Y0173168D03*
X0172367Y0173668D03*
X0176767Y0173668D03*
X0175017Y0189868D03*
X0170617Y0189868D03*
X0164867Y0189968D03*
X0160467Y0189968D03*
X0204267Y0193568D03*
X0208667Y0193568D03*
X0231167Y0194668D03*
X0235567Y0194668D03*
X0336967Y0151968D03*
X0341367Y0151968D03*
X0331317Y0115568D03*
X0326917Y0115568D03*
X0085067Y0201368D03*
X0080667Y0201368D03*
D17*
X0096667Y0193968D03*
X0096667Y0189568D03*
X0158767Y0182718D03*
X0158767Y0178318D03*
X0182367Y0184968D03*
X0182367Y0189368D03*
X0206467Y0182568D03*
X0206467Y0178168D03*
X0228667Y0182968D03*
X0228667Y0187368D03*
X0253367Y0165418D03*
X0253367Y0161018D03*
X0269817Y0156218D03*
X0269817Y0151818D03*
X0269767Y0141768D03*
X0269767Y0137368D03*
X0336867Y0158918D03*
X0336867Y0163318D03*
X0327067Y0066768D03*
X0327067Y0062368D03*
X0319517Y0052268D03*
X0319517Y0047868D03*
X0265567Y0021568D03*
X0265567Y0017168D03*
X0251517Y0017068D03*
X0251517Y0021468D03*
X0165267Y0029168D03*
X0165267Y0033568D03*
X0158867Y0033868D03*
X0158867Y0029468D03*
X0130067Y0120368D03*
X0130067Y0124768D03*
X0109867Y0124768D03*
X0109867Y0129168D03*
X0102267Y0127468D03*
X0102267Y0131868D03*
X0096767Y0131968D03*
X0096767Y0136368D03*
X0072267Y0125368D03*
X0072267Y0120968D03*
D18*
X0302018Y0209768D03*
X0320915Y0209768D03*
D19*
X0309010Y0190568D03*
X0301923Y0190568D03*
X0223210Y0195368D03*
X0216123Y0195368D03*
X0174010Y0182168D03*
X0166923Y0182168D03*
X0149410Y0179168D03*
X0142323Y0179168D03*
X0097210Y0203168D03*
X0090123Y0203168D03*
X0080410Y0176168D03*
X0073323Y0176168D03*
X0074523Y0095768D03*
X0081610Y0095768D03*
D20*
X0126067Y0175624D03*
X0126067Y0182711D03*
D21*
X0097569Y0221568D03*
X0091664Y0221568D03*
X0215667Y0023420D03*
X0221917Y0023420D03*
X0228167Y0023420D03*
X0234417Y0023420D03*
X0234417Y0017515D03*
X0228167Y0017515D03*
X0221917Y0017515D03*
X0215667Y0017515D03*
X0206367Y0016365D03*
X0206367Y0022270D03*
X0199117Y0022270D03*
X0199117Y0016365D03*
D22*
X0087942Y0196093D02*
X0087792Y0196093D01*
X0087942Y0196093D02*
X0087942Y0191843D01*
X0087792Y0191843D01*
X0087792Y0196093D01*
X0087792Y0192692D02*
X0087942Y0192692D01*
X0087942Y0193541D02*
X0087792Y0193541D01*
X0087792Y0194390D02*
X0087942Y0194390D01*
X0087942Y0195239D02*
X0087792Y0195239D01*
X0087792Y0196088D02*
X0087942Y0196088D01*
D23*
X0085867Y0193968D03*
X0083867Y0193968D03*
X0083867Y0185368D03*
X0085867Y0185368D03*
X0087867Y0185368D03*
D24*
X0091567Y0185668D03*
X0091567Y0187668D03*
X0091567Y0189668D03*
X0091567Y0191668D03*
X0091567Y0193668D03*
X0080167Y0193668D03*
X0080167Y0191668D03*
X0080167Y0189668D03*
X0080167Y0187668D03*
X0080167Y0185668D03*
D25*
X0086983Y0175568D03*
X0101550Y0175568D03*
X0103283Y0182918D03*
X0117850Y0182918D03*
X0130783Y0219968D03*
X0145350Y0219968D03*
D26*
X0171889Y0024798D02*
X0174645Y0024798D01*
X0174645Y0022042D01*
X0171889Y0022042D01*
X0171889Y0024798D01*
X0171889Y0023222D02*
X0174645Y0023222D01*
X0174645Y0024402D02*
X0171889Y0024402D01*
X0177939Y0024598D02*
X0180695Y0024598D01*
X0180695Y0021842D01*
X0177939Y0021842D01*
X0177939Y0024598D01*
X0177939Y0023022D02*
X0180695Y0023022D01*
X0180695Y0024202D02*
X0177939Y0024202D01*
X0184189Y0024598D02*
X0186945Y0024598D01*
X0186945Y0021842D01*
X0184189Y0021842D01*
X0184189Y0024598D01*
X0184189Y0023022D02*
X0186945Y0023022D01*
X0186945Y0024202D02*
X0184189Y0024202D01*
X0190439Y0024598D02*
X0193195Y0024598D01*
X0193195Y0021842D01*
X0190439Y0021842D01*
X0190439Y0024598D01*
X0190439Y0023022D02*
X0193195Y0023022D01*
X0193195Y0024202D02*
X0190439Y0024202D01*
X0190439Y0017693D02*
X0193195Y0017693D01*
X0193195Y0014937D01*
X0190439Y0014937D01*
X0190439Y0017693D01*
X0190439Y0016117D02*
X0193195Y0016117D01*
X0193195Y0017297D02*
X0190439Y0017297D01*
X0186945Y0017693D02*
X0184189Y0017693D01*
X0186945Y0017693D02*
X0186945Y0014937D01*
X0184189Y0014937D01*
X0184189Y0017693D01*
X0184189Y0016117D02*
X0186945Y0016117D01*
X0186945Y0017297D02*
X0184189Y0017297D01*
X0180695Y0017693D02*
X0177939Y0017693D01*
X0180695Y0017693D02*
X0180695Y0014937D01*
X0177939Y0014937D01*
X0177939Y0017693D01*
X0177939Y0016117D02*
X0180695Y0016117D01*
X0180695Y0017297D02*
X0177939Y0017297D01*
X0174645Y0017893D02*
X0171889Y0017893D01*
X0174645Y0017893D02*
X0174645Y0015137D01*
X0171889Y0015137D01*
X0171889Y0017893D01*
X0171889Y0016317D02*
X0174645Y0016317D01*
X0174645Y0017497D02*
X0171889Y0017497D01*
X0242339Y0015537D02*
X0245095Y0015537D01*
X0242339Y0015537D02*
X0242339Y0018293D01*
X0245095Y0018293D01*
X0245095Y0015537D01*
X0245095Y0016717D02*
X0242339Y0016717D01*
X0242339Y0017897D02*
X0245095Y0017897D01*
X0245095Y0022442D02*
X0242339Y0022442D01*
X0242339Y0025198D01*
X0245095Y0025198D01*
X0245095Y0022442D01*
X0245095Y0023622D02*
X0242339Y0023622D01*
X0242339Y0024802D02*
X0245095Y0024802D01*
D27*
X0246017Y0181568D03*
X0260517Y0181568D03*
D28*
X0151717Y0104068D03*
X0123817Y0104068D03*
D29*
X0131867Y0098168D03*
X0137767Y0098168D03*
X0143667Y0098168D03*
D30*
X0065891Y0059547D02*
X0060281Y0059547D01*
X0060281Y0049705D02*
X0065891Y0049705D01*
X0065891Y0041831D02*
X0060281Y0041831D01*
X0060281Y0031988D02*
X0065891Y0031988D01*
D31*
X0052417Y0019902D03*
X0052417Y0071634D03*
D32*
X0078467Y0124231D03*
X0078467Y0125806D03*
X0078467Y0127380D03*
X0078467Y0128955D03*
X0078467Y0130530D03*
X0078467Y0132105D03*
X0091066Y0132105D03*
X0091066Y0130530D03*
X0091066Y0128955D03*
X0091066Y0127380D03*
X0091066Y0125806D03*
X0091066Y0124231D03*
D33*
X0088704Y0121869D03*
X0087129Y0121869D03*
X0085554Y0121869D03*
X0083979Y0121869D03*
X0082404Y0121869D03*
X0080830Y0121869D03*
X0080830Y0134467D03*
X0082404Y0134467D03*
X0083979Y0134467D03*
X0085554Y0134467D03*
X0087129Y0134467D03*
X0088704Y0134467D03*
D34*
X0086598Y0126652D02*
X0082936Y0126652D01*
X0082936Y0129684D01*
X0086598Y0129684D01*
X0086598Y0126652D01*
X0086598Y0129682D02*
X0082936Y0129682D01*
D35*
X0056654Y0183670D02*
X0048780Y0183670D01*
X0040906Y0198631D02*
X0040906Y0206505D01*
X0064921Y0206505D02*
X0064921Y0198631D01*
D36*
X0124704Y0159879D03*
X0141633Y0159879D03*
D37*
X0112778Y0194802D03*
X0112778Y0211731D03*
D38*
X0261867Y0208068D03*
X0283867Y0208068D03*
D39*
X0211567Y0211568D03*
X0290767Y0102068D03*
D40*
X0300767Y0102068D03*
X0310767Y0102068D03*
X0310767Y0112068D03*
X0300767Y0112068D03*
X0290767Y0112068D03*
X0290767Y0122068D03*
X0300767Y0122068D03*
X0310767Y0122068D03*
X0310767Y0132068D03*
X0300767Y0132068D03*
X0290767Y0132068D03*
X0290767Y0142068D03*
X0300767Y0142068D03*
X0310767Y0142068D03*
X0310767Y0152068D03*
X0300767Y0152068D03*
X0290767Y0152068D03*
X0290767Y0162068D03*
X0300767Y0162068D03*
X0310767Y0162068D03*
X0310767Y0172068D03*
X0300767Y0172068D03*
X0290767Y0172068D03*
X0201567Y0211568D03*
X0191567Y0211568D03*
D41*
X0338267Y0132318D03*
X0354467Y0132318D03*
X0354917Y0109068D03*
X0338717Y0109068D03*
D42*
X0338717Y0103168D03*
X0354917Y0103168D03*
X0354467Y0126418D03*
X0338267Y0126418D03*
D43*
X0053218Y0123868D03*
X0053218Y0139468D03*
X0053818Y0155068D03*
X0053818Y0170668D03*
X0029015Y0170668D03*
X0029015Y0155068D03*
X0028415Y0139468D03*
X0028415Y0123868D03*
D44*
X0075467Y0106468D03*
D45*
X0106658Y0155068D03*
X0111776Y0155068D03*
X0111776Y0163268D03*
X0109217Y0163268D03*
X0106658Y0163268D03*
D46*
X0047267Y0012168D02*
X0312267Y0012168D01*
X0316467Y0018018D02*
X0316017Y0018418D01*
X0314142Y0020293D01*
X0305392Y0020293D01*
X0305567Y0019068D01*
X0305392Y0019668D01*
X0305392Y0020293D01*
X0305392Y0027168D01*
X0298517Y0034043D01*
X0268517Y0034043D01*
X0267892Y0032168D02*
X0266017Y0034043D01*
X0267892Y0032168D02*
X0297892Y0032168D01*
X0299767Y0030293D01*
X0302892Y0033418D02*
X0314142Y0044668D01*
X0334142Y0044668D01*
X0336017Y0046543D01*
X0349767Y0046543D01*
X0352892Y0049668D01*
X0352892Y0065918D01*
X0351017Y0065918D01*
X0346017Y0070918D01*
X0344142Y0070918D01*
X0342892Y0072168D01*
X0342892Y0074668D01*
X0350392Y0074668D01*
X0351017Y0075293D01*
X0351017Y0072793D02*
X0344767Y0072793D01*
X0342267Y0075918D02*
X0345392Y0079043D01*
X0345392Y0080293D01*
X0345430Y0080668D01*
X0348517Y0080918D02*
X0349142Y0080918D01*
X0349367Y0080668D01*
X0348517Y0080918D02*
X0348517Y0085293D01*
X0345392Y0087793D02*
X0358517Y0100918D01*
X0358517Y0109043D01*
X0355392Y0109043D01*
X0354917Y0109068D01*
X0357267Y0112793D02*
X0359767Y0110293D01*
X0359767Y0080918D01*
X0359142Y0080918D01*
X0357892Y0080918D01*
X0359142Y0080918D02*
X0359142Y0066543D01*
X0358517Y0065918D01*
X0356017Y0065918D01*
X0356017Y0047793D01*
X0351017Y0050293D02*
X0317892Y0050293D01*
X0313517Y0054668D01*
X0283517Y0054668D01*
X0282267Y0055918D01*
X0284142Y0057793D02*
X0286017Y0055918D01*
X0314767Y0055918D01*
X0312892Y0058418D02*
X0313217Y0059018D01*
X0312892Y0058418D02*
X0302892Y0058418D01*
X0287267Y0058418D01*
X0286642Y0057793D01*
X0284142Y0057793D02*
X0274142Y0057793D01*
X0272892Y0059043D01*
X0231017Y0059043D01*
X0236017Y0057168D02*
X0190392Y0057168D01*
X0184767Y0051543D01*
X0184767Y0049043D02*
X0170392Y0049043D01*
X0167892Y0046543D01*
X0125392Y0046543D01*
X0124767Y0044668D02*
X0122892Y0046543D01*
X0124767Y0044668D02*
X0224142Y0044668D01*
X0226642Y0047168D01*
X0227267Y0049668D02*
X0236017Y0040918D01*
X0259142Y0040918D01*
X0259767Y0040293D01*
X0269142Y0047168D02*
X0236017Y0047168D01*
X0235392Y0046543D01*
X0235392Y0044668D02*
X0234767Y0044668D01*
X0233517Y0045918D01*
X0233517Y0053418D01*
X0274767Y0053418D01*
X0272267Y0051543D02*
X0244767Y0051543D01*
X0246017Y0044668D02*
X0273517Y0044668D01*
X0281642Y0052793D01*
X0284142Y0059668D02*
X0274767Y0059668D01*
X0278517Y0061543D02*
X0207267Y0061543D01*
X0206017Y0060293D01*
X0203517Y0062793D02*
X0201642Y0060918D01*
X0203517Y0062793D02*
X0229142Y0062793D01*
X0232267Y0065918D01*
X0283517Y0065918D01*
X0286017Y0068418D01*
X0324767Y0068418D01*
X0332267Y0075918D01*
X0342267Y0075918D01*
X0341017Y0069043D02*
X0337892Y0065918D01*
X0326017Y0065918D01*
X0324767Y0064668D01*
X0289142Y0064668D01*
X0284142Y0059668D01*
X0287267Y0064668D02*
X0289142Y0066543D01*
X0319142Y0066543D01*
X0326017Y0065918D02*
X0326642Y0066543D01*
X0327067Y0066768D01*
X0324142Y0060918D02*
X0311017Y0060918D01*
X0310392Y0060293D01*
X0312267Y0012168D02*
X0313475Y0012183D01*
X0314683Y0012226D01*
X0315889Y0012299D01*
X0317093Y0012401D01*
X0318294Y0012533D01*
X0319491Y0012693D01*
X0320685Y0012882D01*
X0321873Y0013099D01*
X0323056Y0013346D01*
X0324233Y0013621D01*
X0325402Y0013924D01*
X0326564Y0014256D01*
X0327718Y0014615D01*
X0328862Y0015002D01*
X0329997Y0015417D01*
X0331122Y0015859D01*
X0332235Y0016328D01*
X0333337Y0016824D01*
X0334427Y0017347D01*
X0335503Y0017895D01*
X0336566Y0018470D01*
X0337615Y0019070D01*
X0338649Y0019695D01*
X0339668Y0020344D01*
X0340670Y0021019D01*
X0341656Y0021717D01*
X0342625Y0022439D01*
X0343576Y0023184D01*
X0344509Y0023952D01*
X0345423Y0024742D01*
X0346318Y0025555D01*
X0347193Y0026388D01*
X0348047Y0027242D01*
X0348880Y0028117D01*
X0349693Y0029012D01*
X0350483Y0029926D01*
X0351251Y0030859D01*
X0351996Y0031810D01*
X0352718Y0032779D01*
X0353416Y0033765D01*
X0354091Y0034767D01*
X0354740Y0035786D01*
X0355365Y0036820D01*
X0355965Y0037869D01*
X0356540Y0038932D01*
X0357088Y0040008D01*
X0357611Y0041098D01*
X0358107Y0042200D01*
X0358576Y0043313D01*
X0359018Y0044438D01*
X0359433Y0045573D01*
X0359820Y0046717D01*
X0360179Y0047871D01*
X0360511Y0049033D01*
X0360814Y0050202D01*
X0361089Y0051379D01*
X0361336Y0052562D01*
X0361553Y0053750D01*
X0361742Y0054944D01*
X0361902Y0056141D01*
X0362034Y0057342D01*
X0362136Y0058546D01*
X0362209Y0059752D01*
X0362252Y0060960D01*
X0362267Y0062168D01*
X0362267Y0177168D01*
X0349767Y0167168D02*
X0352892Y0164043D01*
X0352892Y0142168D01*
X0337892Y0142168D01*
X0351017Y0129043D01*
X0351017Y0112793D01*
X0357267Y0112793D01*
X0354917Y0103168D02*
X0354767Y0102793D01*
X0351017Y0102793D01*
X0342267Y0094043D01*
X0327267Y0094043D01*
X0317267Y0084043D01*
X0317892Y0082168D02*
X0325392Y0089668D01*
X0331017Y0095918D02*
X0281642Y0095918D01*
X0281642Y0092793D01*
X0280392Y0091543D01*
X0254767Y0091543D01*
X0264767Y0094043D02*
X0267267Y0094043D01*
X0276642Y0103418D01*
X0275392Y0105918D02*
X0275767Y0106318D01*
X0276017Y0106543D01*
X0276017Y0110918D01*
X0276617Y0111468D01*
X0281017Y0111543D02*
X0281017Y0111468D01*
X0281017Y0111543D02*
X0290392Y0111543D01*
X0290767Y0112068D01*
X0289767Y0117793D02*
X0318517Y0117793D01*
X0327267Y0126543D01*
X0342892Y0110918D01*
X0338717Y0109068D02*
X0338517Y0109043D01*
X0336642Y0109043D01*
X0329142Y0101543D01*
X0330392Y0097793D02*
X0339142Y0097793D01*
X0344767Y0094668D02*
X0345392Y0094668D01*
X0344767Y0094668D02*
X0344767Y0089668D01*
X0345392Y0087793D02*
X0339142Y0087793D01*
X0329767Y0097168D02*
X0330392Y0097793D01*
X0329767Y0097168D02*
X0281642Y0097168D01*
X0281017Y0097793D01*
X0279142Y0099668D02*
X0279017Y0100018D01*
X0279142Y0099668D02*
X0279142Y0094043D01*
X0279317Y0093818D01*
X0279142Y0093418D01*
X0271017Y0093418D01*
X0271017Y0101543D02*
X0275392Y0105918D01*
X0283517Y0100293D02*
X0283417Y0100018D01*
X0283517Y0100293D02*
X0284767Y0101543D01*
X0290392Y0101543D01*
X0290767Y0102068D01*
X0300767Y0102068D02*
X0301017Y0102168D01*
X0301017Y0111543D01*
X0300767Y0112068D01*
X0289767Y0117793D02*
X0288517Y0119043D01*
X0256642Y0119043D01*
X0254767Y0117168D01*
X0235392Y0117168D01*
X0234767Y0117793D01*
X0223517Y0117793D01*
X0222267Y0116543D01*
X0224142Y0114668D02*
X0207267Y0114668D01*
X0206642Y0115293D01*
X0201017Y0115293D01*
X0200392Y0114668D01*
X0176017Y0114668D01*
X0174142Y0114043D02*
X0176642Y0111543D01*
X0174142Y0114043D02*
X0149767Y0114043D01*
X0146017Y0109668D02*
X0144767Y0108418D01*
X0141642Y0108418D01*
X0139142Y0107168D02*
X0143517Y0102793D01*
X0143517Y0098418D01*
X0143667Y0098168D01*
X0146642Y0094043D02*
X0147892Y0095293D01*
X0173517Y0095293D01*
X0174767Y0096543D01*
X0176642Y0099043D02*
X0186017Y0099043D01*
X0184767Y0096543D02*
X0179142Y0090918D01*
X0156642Y0090918D01*
X0161017Y0093418D02*
X0149767Y0093418D01*
X0149767Y0097793D02*
X0155392Y0097793D01*
X0156017Y0098418D01*
X0161017Y0101543D02*
X0194767Y0101543D01*
X0196017Y0102793D02*
X0205392Y0102793D01*
X0205392Y0106543D01*
X0219767Y0106543D01*
X0218967Y0098368D02*
X0219142Y0097793D01*
X0220392Y0097793D01*
X0220392Y0092168D01*
X0214767Y0094668D02*
X0214767Y0097793D01*
X0215030Y0098368D01*
X0214767Y0094668D02*
X0211642Y0091543D01*
X0197267Y0091543D01*
X0196642Y0090918D01*
X0201642Y0086543D02*
X0282892Y0086543D01*
X0287892Y0091543D01*
X0306642Y0091543D01*
X0314142Y0099043D02*
X0314767Y0099668D01*
X0345392Y0099668D01*
X0349142Y0103418D01*
X0317892Y0082168D02*
X0296642Y0082168D01*
X0296642Y0087168D01*
X0296642Y0082168D02*
X0291017Y0082168D01*
X0291017Y0079668D01*
X0283517Y0072168D01*
X0246017Y0072168D01*
X0245392Y0071543D01*
X0243517Y0069668D02*
X0284767Y0069668D01*
X0282267Y0073418D02*
X0239142Y0073418D01*
X0237267Y0071543D01*
X0241642Y0071543D02*
X0243517Y0069668D01*
X0242267Y0064668D02*
X0287267Y0064668D01*
X0280392Y0067793D02*
X0211642Y0067793D01*
X0210392Y0066543D01*
X0209767Y0064668D02*
X0206017Y0068418D01*
X0201017Y0069043D02*
X0198517Y0066543D01*
X0180392Y0066543D01*
X0181017Y0069043D02*
X0116017Y0069043D01*
X0114767Y0070293D01*
X0111017Y0065293D02*
X0161017Y0065293D01*
X0166642Y0062793D02*
X0086642Y0062793D01*
X0071017Y0078418D01*
X0068517Y0081543D02*
X0049142Y0100918D01*
X0049142Y0123418D01*
X0052892Y0123418D01*
X0053218Y0123868D01*
X0041642Y0112168D02*
X0041642Y0035918D01*
X0146017Y0035918D01*
X0150392Y0031543D01*
X0167267Y0031543D01*
X0168517Y0032793D01*
X0199767Y0032793D01*
X0203517Y0029043D01*
X0203967Y0028618D01*
X0204142Y0025918D02*
X0201017Y0022793D01*
X0199142Y0022793D01*
X0199117Y0022270D01*
X0202892Y0021543D02*
X0202892Y0019043D01*
X0210392Y0019043D01*
X0211642Y0017793D01*
X0211642Y0014668D01*
X0231642Y0014668D01*
X0234142Y0017168D01*
X0234417Y0017515D01*
X0237892Y0019043D02*
X0239767Y0017168D01*
X0243517Y0017168D01*
X0243717Y0016915D01*
X0239767Y0022793D02*
X0240392Y0023418D01*
X0243517Y0023418D01*
X0243717Y0023820D01*
X0241017Y0026543D02*
X0261017Y0026543D01*
X0265392Y0022168D01*
X0265567Y0021568D01*
X0258517Y0028418D02*
X0257892Y0029043D01*
X0233517Y0029043D01*
X0228517Y0024043D01*
X0228167Y0023420D01*
X0225392Y0020918D02*
X0222267Y0017793D01*
X0221917Y0017515D01*
X0228167Y0017515D02*
X0228517Y0017793D01*
X0231642Y0020918D01*
X0251017Y0020918D01*
X0251517Y0021468D01*
X0251017Y0021543D01*
X0249767Y0021543D01*
X0248517Y0022793D01*
X0241017Y0026543D02*
X0240392Y0027168D01*
X0234767Y0026543D02*
X0234767Y0024043D01*
X0234417Y0023420D01*
X0232892Y0030918D02*
X0230392Y0033418D01*
X0201642Y0033418D01*
X0201017Y0034043D01*
X0194117Y0028568D02*
X0193517Y0029043D01*
X0191017Y0029043D01*
X0190392Y0034043D02*
X0165392Y0034043D01*
X0165267Y0033568D01*
X0167267Y0031543D02*
X0165392Y0029668D01*
X0165267Y0029168D01*
X0158517Y0026543D02*
X0173517Y0026543D01*
X0177892Y0030918D01*
X0180392Y0028418D02*
X0180392Y0023418D01*
X0179767Y0023418D01*
X0179317Y0023220D01*
X0182267Y0026543D02*
X0185392Y0023418D01*
X0185567Y0023220D01*
X0191642Y0023418D02*
X0191817Y0023220D01*
X0191642Y0023418D02*
X0185392Y0029668D01*
X0190392Y0034043D02*
X0191017Y0034668D01*
X0204767Y0041543D02*
X0151642Y0041543D01*
X0147892Y0037793D01*
X0044767Y0037793D01*
X0044767Y0074668D01*
X0052267Y0082168D01*
X0062267Y0082168D01*
X0068517Y0081543D02*
X0100392Y0081543D01*
X0101017Y0082168D01*
X0098517Y0083418D02*
X0096017Y0085918D01*
X0066642Y0085918D01*
X0052892Y0099668D01*
X0051017Y0104043D02*
X0059142Y0095918D01*
X0074142Y0095918D01*
X0074523Y0095768D01*
X0074767Y0095293D01*
X0076017Y0095293D01*
X0076017Y0089668D01*
X0076467Y0089168D01*
X0074767Y0087168D02*
X0067892Y0094043D01*
X0074767Y0087168D02*
X0096642Y0087168D01*
X0097892Y0085918D01*
X0166642Y0085918D01*
X0169142Y0084043D02*
X0159142Y0084043D01*
X0158517Y0084668D01*
X0113517Y0084668D01*
X0112892Y0084043D01*
X0119142Y0078418D02*
X0156017Y0078418D01*
X0157267Y0079668D01*
X0188517Y0079668D01*
X0190392Y0081543D01*
X0194767Y0083418D02*
X0198517Y0079668D01*
X0232267Y0079668D01*
X0233517Y0080918D01*
X0239142Y0080918D01*
X0239767Y0081543D01*
X0239142Y0083418D02*
X0246017Y0083418D01*
X0249767Y0079668D01*
X0285392Y0079668D01*
X0286642Y0078418D01*
X0286642Y0080918D02*
X0251017Y0080918D01*
X0250392Y0081543D01*
X0241017Y0079043D02*
X0240392Y0078418D01*
X0216642Y0078418D01*
X0214767Y0076543D01*
X0217267Y0076543D02*
X0214142Y0073418D01*
X0098517Y0073418D01*
X0093517Y0078418D01*
X0084142Y0072168D02*
X0077892Y0078418D01*
X0084142Y0072168D02*
X0161017Y0072168D01*
X0161642Y0071543D01*
X0157267Y0076543D02*
X0136642Y0076543D01*
X0140392Y0082793D02*
X0141017Y0083418D01*
X0157892Y0083418D01*
X0159767Y0081543D01*
X0157267Y0081543D02*
X0156017Y0080293D01*
X0052892Y0080293D01*
X0061642Y0075918D02*
X0076017Y0061543D01*
X0167267Y0061543D01*
X0167892Y0062168D01*
X0183517Y0062168D01*
X0186017Y0064668D01*
X0176017Y0060293D02*
X0074767Y0060293D01*
X0072267Y0062793D01*
X0067267Y0063418D02*
X0049767Y0063418D01*
X0067267Y0063418D02*
X0077892Y0052793D01*
X0160392Y0052793D01*
X0161017Y0053418D01*
X0162267Y0054668D02*
X0161642Y0055293D01*
X0151642Y0055293D01*
X0151017Y0054668D01*
X0125392Y0054668D01*
X0140392Y0058418D02*
X0220392Y0058418D01*
X0221017Y0059043D01*
X0221017Y0064668D02*
X0209767Y0064668D01*
X0197892Y0055293D02*
X0196017Y0053418D01*
X0197892Y0055293D02*
X0226017Y0055293D01*
X0229142Y0053418D02*
X0231017Y0055293D01*
X0233517Y0055293D02*
X0229767Y0051543D01*
X0192267Y0051543D01*
X0191642Y0049668D02*
X0189767Y0051543D01*
X0191642Y0049668D02*
X0227267Y0049668D01*
X0229142Y0053418D02*
X0221017Y0053418D01*
X0221017Y0047793D02*
X0176017Y0047793D01*
X0175392Y0047168D01*
X0171642Y0052168D02*
X0167892Y0048418D01*
X0069767Y0048418D01*
X0063517Y0042168D01*
X0063086Y0041831D01*
X0063086Y0049705D02*
X0063517Y0050293D01*
X0163517Y0050293D01*
X0165392Y0052168D01*
X0162267Y0054668D02*
X0172892Y0054668D01*
X0174767Y0056543D01*
X0169767Y0056543D02*
X0150392Y0056543D01*
X0166642Y0062793D02*
X0167267Y0063418D01*
X0171642Y0063418D01*
X0174767Y0066543D01*
X0171642Y0066543D02*
X0171017Y0067168D01*
X0124142Y0067168D01*
X0123517Y0074668D02*
X0121642Y0076543D01*
X0123517Y0074668D02*
X0177892Y0074668D01*
X0181017Y0077793D01*
X0181017Y0075293D02*
X0206017Y0075293D01*
X0214767Y0081543D02*
X0215392Y0082168D01*
X0237892Y0082168D01*
X0239142Y0083418D01*
X0233517Y0077168D02*
X0274767Y0077168D01*
X0282267Y0073418D02*
X0282892Y0074043D01*
X0283517Y0074043D01*
X0283517Y0077168D01*
X0274767Y0084668D02*
X0196017Y0084668D01*
X0194767Y0083418D02*
X0182892Y0083418D01*
X0179767Y0086543D01*
X0171642Y0081543D02*
X0169142Y0084043D01*
X0176642Y0099043D02*
X0176017Y0099668D01*
X0185392Y0104668D02*
X0159767Y0104668D01*
X0154767Y0109668D01*
X0146017Y0109668D01*
X0144767Y0110918D02*
X0162267Y0110918D01*
X0165392Y0107793D01*
X0191017Y0107793D01*
X0194767Y0111543D01*
X0229767Y0111543D01*
X0225392Y0115918D02*
X0224142Y0114668D01*
X0231017Y0119668D02*
X0211642Y0119668D01*
X0211017Y0119043D01*
X0209142Y0118418D02*
X0211017Y0116543D01*
X0214767Y0116543D01*
X0209142Y0118418D02*
X0186642Y0118418D01*
X0186017Y0119043D01*
X0184142Y0118418D02*
X0185392Y0117168D01*
X0199142Y0117168D01*
X0199767Y0116543D01*
X0200392Y0120918D02*
X0184142Y0120918D01*
X0184142Y0118418D01*
X0181642Y0117168D02*
X0181642Y0122168D01*
X0199142Y0122168D01*
X0199767Y0122793D01*
X0203517Y0122793D01*
X0206017Y0120293D01*
X0206017Y0124668D02*
X0205392Y0125293D01*
X0198517Y0125293D01*
X0192267Y0131543D01*
X0193517Y0133418D02*
X0190392Y0133418D01*
X0190392Y0127168D01*
X0190392Y0125293D02*
X0189767Y0125293D01*
X0188517Y0126543D01*
X0188517Y0132793D01*
X0193517Y0133418D02*
X0200392Y0126543D01*
X0204767Y0126543D01*
X0210392Y0132168D01*
X0210392Y0133418D01*
X0210793Y0134018D01*
X0211017Y0134043D01*
X0211017Y0139043D01*
X0211642Y0140918D02*
X0214142Y0138418D01*
X0214142Y0134043D01*
X0214730Y0134018D01*
X0218517Y0134043D02*
X0218517Y0136543D01*
X0216017Y0139043D01*
X0212892Y0142168D02*
X0211642Y0140918D01*
X0199767Y0140918D01*
X0197892Y0139043D01*
X0206856Y0134018D02*
X0206642Y0133418D01*
X0206642Y0132168D01*
X0204142Y0129668D01*
X0202267Y0129668D01*
X0201017Y0128418D01*
X0191017Y0124668D02*
X0190392Y0125293D01*
X0172892Y0128418D02*
X0171642Y0127168D01*
X0166642Y0127168D01*
X0161642Y0127168D02*
X0144142Y0127168D01*
X0141017Y0127168D02*
X0137892Y0130293D01*
X0137892Y0131543D01*
X0137830Y0132018D01*
X0141767Y0132018D02*
X0142267Y0131543D01*
X0147892Y0131543D01*
X0150392Y0129043D01*
X0156017Y0134043D02*
X0163517Y0141543D01*
X0179767Y0141543D01*
X0182267Y0139043D01*
X0173243Y0134068D02*
X0172892Y0134043D01*
X0172892Y0128418D01*
X0171017Y0129043D02*
X0171017Y0134043D01*
X0169767Y0134043D01*
X0169306Y0134068D01*
X0157892Y0132168D02*
X0156017Y0134043D01*
X0154142Y0135918D01*
X0122267Y0135918D01*
X0114142Y0144043D01*
X0114142Y0148418D01*
X0109767Y0152793D01*
X0109767Y0162793D01*
X0109217Y0163268D01*
X0112892Y0159043D02*
X0113517Y0159043D01*
X0113517Y0152793D01*
X0119142Y0147168D01*
X0139767Y0147168D01*
X0140392Y0146543D01*
X0137267Y0142793D02*
X0134142Y0145918D01*
X0118517Y0145918D01*
X0112267Y0152168D01*
X0112267Y0154668D01*
X0111776Y0155068D01*
X0106658Y0155068D02*
X0106642Y0155293D01*
X0104767Y0155293D01*
X0054142Y0155293D01*
X0053818Y0155068D01*
X0056017Y0147793D02*
X0074142Y0147793D01*
X0076017Y0145918D01*
X0076017Y0143418D02*
X0072267Y0139668D01*
X0053517Y0139668D01*
X0053218Y0139468D01*
X0078467Y0132105D02*
X0078517Y0132168D01*
X0082892Y0132168D01*
X0084142Y0133418D01*
X0084142Y0134043D01*
X0083979Y0134467D01*
X0082404Y0134467D02*
X0082267Y0134668D01*
X0082267Y0138418D01*
X0088517Y0138418D01*
X0090392Y0140293D01*
X0090967Y0140668D01*
X0091017Y0140918D01*
X0108517Y0140918D01*
X0115392Y0134043D01*
X0109142Y0132168D02*
X0107267Y0134043D01*
X0099142Y0134043D01*
X0097267Y0135918D01*
X0096767Y0136368D01*
X0087267Y0134043D02*
X0087267Y0131543D01*
X0087579Y0131230D01*
X0087267Y0134043D02*
X0087129Y0134467D01*
X0081017Y0134668D02*
X0080830Y0134467D01*
X0081017Y0134668D02*
X0081017Y0137168D01*
X0080392Y0137168D01*
X0081017Y0137168D02*
X0081017Y0140293D01*
X0081642Y0140293D01*
X0081967Y0140668D01*
X0084767Y0128168D02*
X0084767Y0127793D01*
X0084142Y0127168D01*
X0084142Y0122168D01*
X0083979Y0121869D01*
X0085392Y0121543D02*
X0085554Y0121869D01*
X0085392Y0121543D02*
X0085392Y0115293D01*
X0085467Y0114968D01*
X0082267Y0120293D02*
X0077267Y0115293D01*
X0082267Y0120293D02*
X0082267Y0121543D01*
X0082404Y0121869D01*
X0088517Y0121543D02*
X0088704Y0121869D01*
X0088517Y0121543D02*
X0095392Y0121543D01*
X0099767Y0117168D01*
X0099142Y0115293D02*
X0096017Y0118418D01*
X0099142Y0115293D02*
X0119142Y0115293D01*
X0116642Y0117793D01*
X0119142Y0115293D02*
X0122267Y0115293D01*
X0122892Y0115918D01*
X0166642Y0115918D01*
X0169767Y0117793D02*
X0124767Y0117793D01*
X0124142Y0117168D01*
X0121642Y0117168D01*
X0123517Y0119043D02*
X0124767Y0120293D01*
X0129767Y0120293D01*
X0130067Y0120368D01*
X0133517Y0109668D02*
X0106017Y0109668D01*
X0105392Y0109043D01*
X0108517Y0099043D02*
X0106642Y0097168D01*
X0106642Y0095293D01*
X0106030Y0095068D01*
X0109967Y0095068D02*
X0110392Y0094668D01*
X0115392Y0094668D01*
X0118517Y0091543D01*
X0121017Y0091543D02*
X0113517Y0099043D01*
X0108517Y0099043D01*
X0128517Y0105293D02*
X0130392Y0107168D01*
X0139142Y0107168D01*
X0144142Y0110293D02*
X0144767Y0110918D01*
X0142267Y0112168D02*
X0162892Y0112168D01*
X0165392Y0109668D01*
X0181017Y0109668D01*
X0185392Y0104668D02*
X0186017Y0104043D01*
X0192267Y0106543D02*
X0196017Y0102793D01*
X0206017Y0113418D02*
X0251017Y0113418D01*
X0255392Y0114668D02*
X0261017Y0114668D01*
X0255392Y0114668D02*
X0246642Y0105918D01*
X0240392Y0104043D02*
X0239767Y0104668D01*
X0236642Y0104668D01*
X0234767Y0102793D01*
X0234167Y0102318D01*
X0234142Y0102168D01*
X0231642Y0102168D01*
X0231642Y0097168D01*
X0240392Y0104043D02*
X0259142Y0104043D01*
X0269767Y0114668D01*
X0275392Y0120293D02*
X0276642Y0121543D01*
X0277217Y0121868D01*
X0277267Y0122168D01*
X0279142Y0124043D01*
X0281017Y0124043D01*
X0281642Y0124668D01*
X0281642Y0122168D02*
X0281617Y0121868D01*
X0281642Y0122168D02*
X0290392Y0122168D01*
X0290767Y0122068D01*
X0281642Y0116543D02*
X0281167Y0116868D01*
X0281642Y0116543D02*
X0281642Y0114043D01*
X0275392Y0120293D02*
X0237267Y0120293D01*
X0236017Y0119043D01*
X0232892Y0124668D02*
X0231642Y0125918D01*
X0232892Y0124668D02*
X0240392Y0124668D01*
X0241642Y0125918D01*
X0264142Y0125918D01*
X0264767Y0125293D01*
X0262267Y0124043D02*
X0246017Y0124043D01*
X0245392Y0123418D01*
X0224142Y0123418D01*
X0222267Y0121543D01*
X0225392Y0121543D02*
X0226017Y0122168D01*
X0246642Y0122168D01*
X0251642Y0122168D02*
X0264142Y0122168D01*
X0274142Y0132168D01*
X0274142Y0135918D01*
X0321017Y0135918D01*
X0334142Y0149043D01*
X0331642Y0151543D01*
X0334142Y0149043D02*
X0336642Y0151543D01*
X0336967Y0151968D01*
X0342892Y0154668D02*
X0351017Y0162793D01*
X0349767Y0167168D02*
X0325392Y0167168D01*
X0325392Y0205293D01*
X0321017Y0209668D01*
X0320915Y0209768D01*
X0312267Y0227168D02*
X0047267Y0227168D01*
X0046663Y0227161D01*
X0046059Y0227139D01*
X0045456Y0227102D01*
X0044854Y0227051D01*
X0044254Y0226986D01*
X0043655Y0226906D01*
X0043058Y0226811D01*
X0042464Y0226702D01*
X0041872Y0226579D01*
X0041284Y0226442D01*
X0040699Y0226290D01*
X0040118Y0226124D01*
X0039542Y0225944D01*
X0038969Y0225751D01*
X0038402Y0225543D01*
X0037840Y0225322D01*
X0037283Y0225088D01*
X0036732Y0224840D01*
X0036187Y0224579D01*
X0035649Y0224304D01*
X0035117Y0224017D01*
X0034593Y0223717D01*
X0034076Y0223405D01*
X0033567Y0223080D01*
X0033065Y0222743D01*
X0032572Y0222393D01*
X0032088Y0222032D01*
X0031612Y0221660D01*
X0031146Y0221276D01*
X0030689Y0220881D01*
X0030242Y0220475D01*
X0029804Y0220058D01*
X0029377Y0219631D01*
X0028960Y0219193D01*
X0028554Y0218746D01*
X0028159Y0218289D01*
X0027775Y0217823D01*
X0027403Y0217347D01*
X0027042Y0216863D01*
X0026692Y0216370D01*
X0026355Y0215868D01*
X0026030Y0215359D01*
X0025718Y0214842D01*
X0025418Y0214318D01*
X0025131Y0213786D01*
X0024856Y0213248D01*
X0024595Y0212703D01*
X0024347Y0212152D01*
X0024113Y0211595D01*
X0023892Y0211033D01*
X0023684Y0210466D01*
X0023491Y0209893D01*
X0023311Y0209317D01*
X0023145Y0208736D01*
X0022993Y0208151D01*
X0022856Y0207563D01*
X0022733Y0206971D01*
X0022624Y0206377D01*
X0022529Y0205780D01*
X0022449Y0205181D01*
X0022384Y0204581D01*
X0022333Y0203979D01*
X0022296Y0203376D01*
X0022274Y0202772D01*
X0022267Y0202168D01*
X0022267Y0037168D01*
X0022274Y0036564D01*
X0022296Y0035960D01*
X0022333Y0035357D01*
X0022384Y0034755D01*
X0022449Y0034155D01*
X0022529Y0033556D01*
X0022624Y0032959D01*
X0022733Y0032365D01*
X0022856Y0031773D01*
X0022993Y0031185D01*
X0023145Y0030600D01*
X0023311Y0030019D01*
X0023491Y0029443D01*
X0023684Y0028870D01*
X0023892Y0028303D01*
X0024113Y0027741D01*
X0024347Y0027184D01*
X0024595Y0026633D01*
X0024856Y0026088D01*
X0025131Y0025550D01*
X0025418Y0025018D01*
X0025718Y0024494D01*
X0026030Y0023977D01*
X0026355Y0023468D01*
X0026692Y0022966D01*
X0027042Y0022473D01*
X0027403Y0021989D01*
X0027775Y0021513D01*
X0028159Y0021047D01*
X0028554Y0020590D01*
X0028960Y0020143D01*
X0029377Y0019705D01*
X0029804Y0019278D01*
X0030242Y0018861D01*
X0030689Y0018455D01*
X0031146Y0018060D01*
X0031612Y0017676D01*
X0032088Y0017304D01*
X0032572Y0016943D01*
X0033065Y0016593D01*
X0033567Y0016256D01*
X0034076Y0015931D01*
X0034593Y0015619D01*
X0035117Y0015319D01*
X0035649Y0015032D01*
X0036187Y0014757D01*
X0036732Y0014496D01*
X0037283Y0014248D01*
X0037840Y0014014D01*
X0038402Y0013793D01*
X0038969Y0013585D01*
X0039542Y0013392D01*
X0040118Y0013212D01*
X0040699Y0013046D01*
X0041284Y0012894D01*
X0041872Y0012757D01*
X0042464Y0012634D01*
X0043058Y0012525D01*
X0043655Y0012430D01*
X0044254Y0012350D01*
X0044854Y0012285D01*
X0045456Y0012234D01*
X0046059Y0012197D01*
X0046663Y0012175D01*
X0047267Y0012168D01*
X0120392Y0043418D02*
X0231017Y0043418D01*
X0235392Y0044668D02*
X0236017Y0044043D01*
X0236017Y0049043D02*
X0271017Y0049043D01*
X0262892Y0055293D02*
X0233517Y0055293D01*
X0241017Y0063418D02*
X0242267Y0064668D01*
X0233517Y0077168D02*
X0226017Y0069668D01*
X0191017Y0055293D02*
X0184767Y0049043D01*
X0158867Y0033868D02*
X0158517Y0034043D01*
X0152267Y0034043D01*
X0151017Y0035293D01*
X0173517Y0024043D02*
X0173267Y0023420D01*
X0173517Y0024043D02*
X0176017Y0026543D01*
X0182267Y0019043D02*
X0179767Y0016543D01*
X0179317Y0016315D01*
X0173267Y0016515D02*
X0172892Y0016543D01*
X0171017Y0016543D01*
X0169767Y0017793D01*
X0185567Y0016315D02*
X0186017Y0016543D01*
X0188517Y0019043D01*
X0191817Y0016315D02*
X0192267Y0016543D01*
X0194767Y0016543D01*
X0195392Y0017168D01*
X0199117Y0016365D02*
X0199142Y0015918D01*
X0201642Y0015918D01*
X0202267Y0015293D01*
X0206367Y0016365D02*
X0206642Y0016543D01*
X0209142Y0016543D01*
X0209767Y0017168D01*
X0212892Y0017793D02*
X0215392Y0017793D01*
X0215667Y0017515D01*
X0212892Y0017793D02*
X0212892Y0022793D01*
X0210392Y0025293D01*
X0209767Y0025293D01*
X0209142Y0025918D01*
X0211017Y0022168D02*
X0206642Y0022168D01*
X0206367Y0022270D01*
X0215392Y0024043D02*
X0215667Y0023420D01*
X0215392Y0024043D02*
X0215392Y0026543D01*
X0222267Y0026543D02*
X0222267Y0024043D01*
X0221917Y0023420D01*
X0246017Y0039043D02*
X0246642Y0038418D01*
X0289767Y0038418D01*
X0297267Y0046543D02*
X0300392Y0043418D01*
X0300392Y0041543D01*
X0300830Y0041468D01*
X0304767Y0041468D02*
X0304767Y0045918D01*
X0302892Y0045918D01*
X0316642Y0047793D02*
X0319142Y0047793D01*
X0319517Y0047868D01*
X0322267Y0046543D02*
X0324142Y0048418D01*
X0346017Y0048418D01*
X0344767Y0054668D02*
X0341642Y0054668D01*
X0344767Y0054668D02*
X0346017Y0055918D01*
X0346017Y0061543D01*
X0346530Y0061568D01*
X0348517Y0061543D02*
X0350392Y0061543D01*
X0350467Y0061568D01*
X0348517Y0061543D02*
X0348517Y0057168D01*
X0328367Y0056618D02*
X0327892Y0057168D01*
X0324142Y0060918D01*
X0297892Y0025918D02*
X0299767Y0024043D01*
X0301017Y0025293D01*
X0299767Y0024043D02*
X0301017Y0022793D01*
X0301017Y0019668D01*
X0301630Y0019068D01*
X0296642Y0025918D02*
X0294142Y0023418D01*
X0281017Y0023418D01*
X0296642Y0025918D02*
X0297892Y0025918D01*
X0171642Y0115918D02*
X0169767Y0117793D01*
X0161642Y0121543D02*
X0160392Y0122793D01*
X0111017Y0122793D01*
X0110392Y0122168D01*
X0133517Y0109668D02*
X0134142Y0109043D01*
X0093517Y0070293D02*
X0098517Y0065293D01*
X0212267Y0126543D02*
X0215392Y0129668D01*
X0221017Y0129668D01*
X0222892Y0131543D01*
X0248517Y0131543D01*
X0252267Y0135293D01*
X0264142Y0135293D01*
X0268517Y0139668D01*
X0271017Y0139668D01*
X0271642Y0140293D01*
X0271642Y0149668D01*
X0268517Y0149668D01*
X0266642Y0151543D01*
X0266642Y0162168D01*
X0256017Y0162168D01*
X0254142Y0160293D01*
X0253367Y0161018D01*
X0253517Y0160918D01*
X0254142Y0160293D01*
X0256017Y0158418D01*
X0259717Y0158418D01*
X0263517Y0158418D02*
X0264117Y0158418D01*
X0263517Y0158418D02*
X0263517Y0154043D01*
X0259142Y0154043D01*
X0257892Y0155293D01*
X0248517Y0155293D01*
X0247892Y0153418D02*
X0253517Y0153418D01*
X0256017Y0153418D02*
X0250392Y0147793D01*
X0242267Y0147793D01*
X0241017Y0146543D01*
X0241017Y0140918D01*
X0241219Y0140918D01*
X0241017Y0140918D02*
X0241017Y0135918D01*
X0241642Y0134043D02*
X0244767Y0137168D01*
X0244767Y0140918D01*
X0245156Y0140918D01*
X0248517Y0140918D02*
X0248517Y0137793D01*
X0246642Y0135918D01*
X0241642Y0134043D02*
X0231017Y0134043D01*
X0230392Y0133418D01*
X0227892Y0135918D02*
X0237267Y0135918D01*
X0239767Y0130293D02*
X0236017Y0126543D01*
X0235392Y0126543D01*
X0236017Y0129043D02*
X0222267Y0129043D01*
X0220392Y0127168D01*
X0217267Y0125293D02*
X0226017Y0125293D01*
X0227267Y0126543D01*
X0225392Y0133418D02*
X0227892Y0135918D01*
X0218667Y0134018D02*
X0218517Y0134043D01*
X0216017Y0126543D02*
X0217267Y0125293D01*
X0239767Y0126543D02*
X0242267Y0129043D01*
X0259142Y0129043D01*
X0263517Y0133418D01*
X0262267Y0137168D02*
X0259767Y0139668D01*
X0258517Y0139668D01*
X0257267Y0140918D01*
X0256967Y0140918D01*
X0259767Y0141543D02*
X0267267Y0141543D01*
X0269767Y0141543D01*
X0269767Y0141768D01*
X0273517Y0140293D02*
X0274767Y0140293D01*
X0276017Y0141543D01*
X0276567Y0141868D01*
X0280967Y0141868D02*
X0281017Y0142168D01*
X0290392Y0142168D01*
X0290767Y0142068D01*
X0283517Y0145293D02*
X0277267Y0151543D01*
X0277167Y0151568D01*
X0276642Y0152168D01*
X0270392Y0152168D01*
X0269817Y0151818D01*
X0281567Y0151568D02*
X0281642Y0151543D01*
X0290392Y0151543D01*
X0290767Y0152068D01*
X0300767Y0152068D02*
X0301017Y0151543D01*
X0301017Y0142168D01*
X0300767Y0142068D01*
X0300767Y0132068D02*
X0301017Y0131543D01*
X0301017Y0122168D01*
X0300767Y0122068D01*
X0290767Y0132068D02*
X0290392Y0132168D01*
X0280967Y0132168D01*
X0276567Y0132168D02*
X0276017Y0132168D01*
X0276017Y0125918D01*
X0272267Y0125918D01*
X0250392Y0130918D02*
X0249767Y0130293D01*
X0239767Y0130293D01*
X0248517Y0140918D02*
X0249093Y0140918D01*
X0252892Y0140918D02*
X0252892Y0142793D01*
X0250392Y0145293D01*
X0243517Y0145293D01*
X0242892Y0145918D01*
X0242267Y0149668D02*
X0237892Y0145293D01*
X0229142Y0145293D01*
X0227267Y0147168D01*
X0173517Y0147168D01*
X0172892Y0146543D01*
X0177892Y0154043D02*
X0180392Y0151543D01*
X0177892Y0154043D02*
X0177267Y0154043D01*
X0177167Y0154618D01*
X0173517Y0154668D02*
X0173230Y0154618D01*
X0173517Y0154668D02*
X0173517Y0159668D01*
X0176642Y0159668D01*
X0178517Y0159668D02*
X0178517Y0161543D01*
X0166017Y0161543D01*
X0163517Y0159043D01*
X0151642Y0159043D01*
X0161017Y0169043D02*
X0158517Y0171543D01*
X0158517Y0177793D01*
X0158767Y0178318D01*
X0158517Y0178418D01*
X0157267Y0179668D01*
X0156017Y0179668D01*
X0161017Y0173418D02*
X0163517Y0175918D01*
X0179142Y0175918D01*
X0176767Y0173668D02*
X0176642Y0173418D01*
X0176642Y0170918D01*
X0177892Y0169668D02*
X0177267Y0169043D01*
X0161017Y0169043D01*
X0160467Y0173168D02*
X0161017Y0173418D01*
X0177892Y0169668D02*
X0201017Y0169668D01*
X0207892Y0162793D01*
X0207267Y0160918D02*
X0218517Y0160918D01*
X0222267Y0157168D02*
X0222892Y0156543D01*
X0244767Y0156543D01*
X0247892Y0153418D01*
X0244142Y0149668D02*
X0242267Y0149668D01*
X0237267Y0154043D02*
X0236642Y0154668D01*
X0219142Y0154668D01*
X0218667Y0155118D01*
X0214730Y0155118D02*
X0214142Y0154668D01*
X0214142Y0149043D01*
X0211017Y0149043D02*
X0211017Y0154668D01*
X0210793Y0155118D01*
X0206856Y0155118D02*
X0206642Y0154668D01*
X0206642Y0149043D01*
X0206017Y0149043D01*
X0190392Y0151543D02*
X0182892Y0159043D01*
X0179142Y0159043D01*
X0178517Y0159668D01*
X0188517Y0165918D02*
X0191017Y0168418D01*
X0199767Y0168418D01*
X0207267Y0160918D01*
X0214142Y0167793D02*
X0220392Y0167793D01*
X0221642Y0169043D01*
X0222267Y0169043D01*
X0223517Y0170293D01*
X0223517Y0177168D01*
X0222892Y0177168D01*
X0222367Y0177368D01*
X0221017Y0177168D02*
X0220392Y0177168D01*
X0219867Y0177368D01*
X0221017Y0177168D02*
X0221017Y0171543D01*
X0221267Y0171368D01*
X0221017Y0170918D01*
X0219142Y0169043D01*
X0215392Y0169043D01*
X0214142Y0170293D01*
X0214142Y0167793D02*
X0210392Y0171543D01*
X0216867Y0171368D02*
X0217267Y0171543D01*
X0217267Y0174668D01*
X0218517Y0174668D01*
X0217267Y0174668D02*
X0217267Y0177368D01*
X0217267Y0177793D01*
X0214767Y0177793D01*
X0214767Y0177368D01*
X0214767Y0177793D02*
X0206642Y0177793D01*
X0206467Y0178168D01*
X0206017Y0178418D01*
X0198517Y0185918D01*
X0191642Y0185918D01*
X0187892Y0189668D01*
X0194767Y0189043D02*
X0196017Y0187793D01*
X0201017Y0187793D01*
X0204142Y0184668D01*
X0206017Y0182793D01*
X0206467Y0182568D01*
X0209142Y0182793D02*
X0214767Y0188418D01*
X0214767Y0188968D01*
X0217267Y0188968D02*
X0217267Y0190293D01*
X0219142Y0192168D01*
X0220392Y0190918D02*
X0221017Y0190918D01*
X0221642Y0191543D01*
X0224142Y0191543D01*
X0224767Y0189668D02*
X0226642Y0191543D01*
X0229142Y0191543D02*
X0231642Y0191543D01*
X0233517Y0193418D01*
X0233517Y0202793D01*
X0236017Y0202793D01*
X0230392Y0201543D02*
X0238517Y0209668D01*
X0238517Y0211543D01*
X0238867Y0211568D01*
X0238517Y0212168D01*
X0234142Y0216543D01*
X0186017Y0216543D01*
X0179142Y0223418D01*
X0104142Y0223418D01*
X0099767Y0219043D01*
X0091642Y0219043D01*
X0091642Y0221543D01*
X0091664Y0221568D01*
X0091642Y0219043D02*
X0091642Y0203418D01*
X0090392Y0203418D01*
X0090123Y0203168D01*
X0089767Y0203418D01*
X0082892Y0203418D01*
X0066017Y0203418D01*
X0065392Y0202793D01*
X0064921Y0202568D01*
X0077892Y0195293D02*
X0081017Y0195293D01*
X0082267Y0195293D01*
X0083517Y0194043D01*
X0083867Y0193968D01*
X0085392Y0194043D02*
X0085867Y0193968D01*
X0085392Y0194043D02*
X0085392Y0198418D01*
X0084142Y0198418D01*
X0082892Y0199668D01*
X0082892Y0203418D01*
X0080667Y0201368D02*
X0081017Y0200918D01*
X0081017Y0195293D01*
X0077892Y0195293D02*
X0077892Y0191543D01*
X0076642Y0191543D01*
X0076017Y0192168D01*
X0077892Y0191543D02*
X0079767Y0191543D01*
X0080167Y0191668D01*
X0080167Y0189668D02*
X0079767Y0189668D01*
X0079142Y0189043D01*
X0078517Y0189043D01*
X0074767Y0185293D01*
X0077267Y0179043D02*
X0077892Y0179043D01*
X0080392Y0176543D01*
X0080410Y0176168D01*
X0081017Y0175918D01*
X0086642Y0175918D01*
X0086983Y0175568D01*
X0084142Y0180293D02*
X0108517Y0180293D01*
X0113517Y0185293D01*
X0115392Y0183418D01*
X0117267Y0183418D01*
X0117850Y0182918D01*
X0117892Y0183418D01*
X0119767Y0183418D01*
X0121642Y0185293D01*
X0126017Y0187168D02*
X0126017Y0182793D01*
X0126067Y0182711D01*
X0126017Y0182168D01*
X0124142Y0180293D01*
X0112267Y0180293D01*
X0109767Y0177793D01*
X0103517Y0177793D01*
X0101642Y0175918D01*
X0101550Y0175568D01*
X0104767Y0170918D02*
X0104767Y0155293D01*
X0124704Y0159879D02*
X0124767Y0160293D01*
X0131642Y0167168D01*
X0136017Y0177793D02*
X0136017Y0187168D01*
X0136617Y0187394D01*
X0134142Y0189668D02*
X0134142Y0178418D01*
X0112267Y0178418D01*
X0104767Y0170918D01*
X0103283Y0182918D02*
X0103517Y0183418D01*
X0107267Y0187168D01*
X0126017Y0187168D01*
X0131017Y0187168D01*
X0131617Y0187394D01*
X0134142Y0189668D02*
X0136642Y0192168D01*
X0152267Y0192168D01*
X0168517Y0192168D01*
X0170392Y0190293D01*
X0170617Y0189868D01*
X0161017Y0189668D02*
X0161017Y0187168D01*
X0161017Y0189668D02*
X0160467Y0189968D01*
X0179767Y0185293D02*
X0182267Y0185293D01*
X0182367Y0184968D01*
X0182892Y0184668D01*
X0182892Y0175293D01*
X0184142Y0171543D02*
X0184767Y0170918D01*
X0202892Y0170918D01*
X0201017Y0180293D02*
X0194767Y0180293D01*
X0181017Y0194043D01*
X0133517Y0194043D01*
X0128517Y0189043D01*
X0106642Y0189043D01*
X0104767Y0187168D01*
X0102267Y0187168D02*
X0096642Y0181543D01*
X0086017Y0181543D01*
X0086017Y0185293D01*
X0085867Y0185368D01*
X0084142Y0185293D02*
X0083867Y0185368D01*
X0084142Y0185293D02*
X0084142Y0180293D01*
X0087867Y0185368D02*
X0087892Y0185918D01*
X0088517Y0185918D01*
X0088517Y0189668D01*
X0091567Y0189668D02*
X0096642Y0189668D01*
X0096667Y0189568D01*
X0097892Y0191543D02*
X0091642Y0191543D01*
X0091567Y0191668D01*
X0087867Y0193968D02*
X0087892Y0194043D01*
X0087892Y0197168D01*
X0089142Y0197168D01*
X0094767Y0202793D01*
X0094767Y0212168D01*
X0109142Y0212168D01*
X0112778Y0211731D01*
X0112267Y0212168D01*
X0109142Y0212168D01*
X0109142Y0218418D01*
X0097569Y0221568D02*
X0097267Y0222168D01*
X0096642Y0222168D01*
X0094767Y0224043D01*
X0122892Y0202793D02*
X0123517Y0203418D01*
X0202892Y0203418D01*
X0211017Y0211543D01*
X0211567Y0211568D01*
X0217892Y0218418D02*
X0222267Y0222793D01*
X0227892Y0219668D02*
X0227843Y0219068D01*
X0227892Y0219668D02*
X0229767Y0221543D01*
X0252267Y0221543D01*
X0261642Y0212168D01*
X0261642Y0208418D01*
X0261867Y0208068D01*
X0261642Y0207793D01*
X0261642Y0189668D01*
X0261017Y0189043D01*
X0261017Y0182168D01*
X0260517Y0181568D01*
X0260392Y0182168D01*
X0257892Y0182168D01*
X0247892Y0192168D01*
X0250392Y0197168D02*
X0250392Y0204043D01*
X0249890Y0204068D01*
X0246017Y0205293D02*
X0246017Y0199043D01*
X0256642Y0188418D01*
X0257892Y0188418D01*
X0259767Y0190293D01*
X0257267Y0190293D02*
X0250392Y0197168D01*
X0246017Y0205293D02*
X0249767Y0209043D01*
X0249890Y0209068D01*
X0249890Y0214068D02*
X0250392Y0214668D01*
X0254142Y0214668D01*
X0254142Y0217168D02*
X0252267Y0217168D01*
X0250392Y0219043D01*
X0249890Y0219068D01*
X0231642Y0210293D02*
X0227892Y0214043D01*
X0227843Y0214068D01*
X0221642Y0205293D02*
X0222892Y0204043D01*
X0227267Y0204043D01*
X0227843Y0204068D01*
X0230392Y0201543D02*
X0230392Y0195293D01*
X0231167Y0194668D01*
X0231017Y0194668D01*
X0230392Y0195293D01*
X0223517Y0195293D01*
X0223210Y0195368D01*
X0219142Y0199043D02*
X0216642Y0201543D01*
X0215392Y0201543D01*
X0209142Y0195293D01*
X0209142Y0194043D01*
X0208667Y0193568D01*
X0206642Y0191543D01*
X0194767Y0191543D01*
X0194767Y0189043D01*
X0204267Y0193568D02*
X0204767Y0194043D01*
X0206642Y0195918D01*
X0213517Y0202793D01*
X0218517Y0202793D01*
X0221642Y0199668D01*
X0220392Y0190918D02*
X0220392Y0189043D01*
X0219867Y0188968D01*
X0222367Y0188968D02*
X0222892Y0189043D01*
X0223517Y0189668D01*
X0224767Y0189668D01*
X0228667Y0187368D02*
X0229142Y0187793D01*
X0229142Y0191543D01*
X0231642Y0190293D02*
X0233517Y0190293D01*
X0231642Y0190293D02*
X0231642Y0186543D01*
X0228667Y0182968D02*
X0228517Y0182793D01*
X0226642Y0180918D01*
X0224767Y0180918D01*
X0229767Y0175918D02*
X0230367Y0176068D01*
X0230392Y0176543D01*
X0232267Y0178418D01*
X0235392Y0178418D01*
X0235392Y0194668D01*
X0235567Y0194668D01*
X0229767Y0175918D02*
X0226017Y0172168D01*
X0233517Y0167168D02*
X0235392Y0169043D01*
X0235667Y0169568D01*
X0236017Y0169043D01*
X0238517Y0166543D01*
X0241642Y0166543D01*
X0242067Y0165968D01*
X0241642Y0168418D02*
X0244142Y0170918D01*
X0251642Y0170918D01*
X0251667Y0171068D01*
X0252267Y0170918D01*
X0252892Y0170918D01*
X0252892Y0165918D01*
X0253367Y0165418D01*
X0259142Y0164043D02*
X0260392Y0164043D01*
X0261642Y0165293D01*
X0261867Y0165368D01*
X0261642Y0165918D01*
X0256642Y0170918D01*
X0256067Y0171068D01*
X0257267Y0173418D02*
X0237267Y0173418D01*
X0246017Y0169043D02*
X0246017Y0166543D01*
X0246467Y0165968D01*
X0235217Y0161418D02*
X0235392Y0160918D01*
X0235392Y0158418D01*
X0227892Y0159043D02*
X0190392Y0159043D01*
X0190392Y0180293D02*
X0194767Y0180293D01*
X0227892Y0162168D02*
X0227892Y0159043D01*
X0252892Y0140918D02*
X0253030Y0140918D01*
X0266642Y0162168D02*
X0266642Y0165293D01*
X0266267Y0165368D01*
X0261642Y0169043D02*
X0257267Y0173418D01*
X0261642Y0169043D02*
X0278517Y0169043D01*
X0277167Y0171568D02*
X0276642Y0171543D01*
X0273517Y0171543D01*
X0272892Y0170918D01*
X0281567Y0171568D02*
X0281642Y0171543D01*
X0290392Y0171543D01*
X0290767Y0172068D01*
X0300767Y0172068D02*
X0301017Y0172168D01*
X0301642Y0172168D01*
X0301642Y0190293D01*
X0301923Y0190568D01*
X0301642Y0190918D01*
X0301017Y0190918D01*
X0283867Y0208068D01*
X0283517Y0208418D01*
X0273517Y0208418D01*
X0312267Y0227168D02*
X0313475Y0227153D01*
X0314683Y0227110D01*
X0315889Y0227037D01*
X0317093Y0226935D01*
X0318294Y0226803D01*
X0319491Y0226643D01*
X0320685Y0226454D01*
X0321873Y0226237D01*
X0323056Y0225990D01*
X0324233Y0225715D01*
X0325402Y0225412D01*
X0326564Y0225080D01*
X0327718Y0224721D01*
X0328862Y0224334D01*
X0329997Y0223919D01*
X0331122Y0223477D01*
X0332235Y0223008D01*
X0333337Y0222512D01*
X0334427Y0221989D01*
X0335503Y0221441D01*
X0336566Y0220866D01*
X0337615Y0220266D01*
X0338649Y0219641D01*
X0339668Y0218992D01*
X0340670Y0218317D01*
X0341656Y0217619D01*
X0342625Y0216897D01*
X0343576Y0216152D01*
X0344509Y0215384D01*
X0345423Y0214594D01*
X0346318Y0213781D01*
X0347193Y0212948D01*
X0348047Y0212094D01*
X0348880Y0211219D01*
X0349693Y0210324D01*
X0350483Y0209410D01*
X0351251Y0208477D01*
X0351996Y0207526D01*
X0352718Y0206557D01*
X0353416Y0205571D01*
X0354091Y0204569D01*
X0354740Y0203550D01*
X0355365Y0202516D01*
X0355965Y0201467D01*
X0356540Y0200404D01*
X0357088Y0199328D01*
X0357611Y0198238D01*
X0358107Y0197136D01*
X0358576Y0196023D01*
X0359018Y0194898D01*
X0359433Y0193763D01*
X0359820Y0192619D01*
X0360179Y0191465D01*
X0360511Y0190303D01*
X0360814Y0189134D01*
X0361089Y0187957D01*
X0361336Y0186774D01*
X0361553Y0185586D01*
X0361742Y0184392D01*
X0361902Y0183195D01*
X0362034Y0181994D01*
X0362136Y0180790D01*
X0362209Y0179584D01*
X0362252Y0178376D01*
X0362267Y0177168D01*
X0336867Y0163318D02*
X0336642Y0162793D01*
X0331642Y0162793D01*
X0322267Y0166543D02*
X0317892Y0162168D01*
X0332267Y0142168D02*
X0337892Y0142168D01*
X0337267Y0140293D02*
X0334767Y0140293D01*
X0334767Y0134043D01*
X0327267Y0126543D01*
X0327267Y0136543D02*
X0316017Y0125293D01*
X0345392Y0154043D02*
X0348517Y0157168D01*
X0290767Y0162068D02*
X0290392Y0162168D01*
X0281017Y0162168D01*
X0280967Y0161868D01*
X0276567Y0161868D02*
X0276017Y0161543D01*
X0272892Y0161543D01*
X0191567Y0211568D02*
X0191017Y0211543D01*
X0176642Y0211543D01*
X0176440Y0211318D01*
X0176642Y0210918D01*
X0176642Y0206543D01*
X0176440Y0206318D01*
X0176642Y0211543D02*
X0176642Y0215918D01*
X0176440Y0216318D01*
X0180392Y0217168D02*
X0176642Y0220918D01*
X0176440Y0221318D01*
X0145350Y0219968D02*
X0144767Y0219668D01*
X0144767Y0213418D01*
X0112778Y0194802D02*
X0112267Y0194668D01*
X0109767Y0194668D01*
X0102267Y0187168D01*
X0097892Y0191543D02*
X0099142Y0192793D01*
X0094767Y0187168D02*
X0092267Y0187168D01*
X0091642Y0187793D01*
X0091567Y0187668D01*
X0074142Y0157168D02*
X0061017Y0170293D01*
X0054142Y0170293D01*
X0053818Y0170668D01*
D47*
X0131617Y0187394D03*
X0136617Y0187394D03*
X0141617Y0187394D03*
X0146617Y0187394D03*
X0146617Y0209441D03*
X0141617Y0209441D03*
X0136617Y0209441D03*
X0131617Y0209441D03*
D48*
X0131017Y0215918D03*
X0144767Y0213418D03*
X0122892Y0202793D03*
X0099142Y0192793D03*
X0102267Y0187168D03*
X0104767Y0187168D03*
X0094767Y0187168D03*
X0088517Y0189668D03*
X0090392Y0195918D03*
X0087267Y0199043D03*
X0076017Y0192168D03*
X0074767Y0185293D03*
X0077267Y0179043D03*
X0074142Y0157168D03*
X0076017Y0145918D03*
X0076017Y0143418D03*
X0080392Y0137168D03*
X0056017Y0147793D03*
X0096017Y0118418D03*
X0099767Y0117168D03*
X0092892Y0114043D03*
X0105392Y0109043D03*
X0116642Y0117793D03*
X0121642Y0117168D03*
X0123517Y0119043D03*
X0130392Y0114043D03*
X0132892Y0111543D03*
X0134142Y0109043D03*
X0134767Y0105293D03*
X0141642Y0108418D03*
X0144142Y0110293D03*
X0142267Y0112168D03*
X0149767Y0114043D03*
X0161642Y0121543D03*
X0161642Y0127168D03*
X0166642Y0127168D03*
X0171017Y0129043D03*
X0157892Y0132168D03*
X0150392Y0129043D03*
X0152267Y0124668D03*
X0144142Y0127168D03*
X0141017Y0127168D03*
X0134767Y0124668D03*
X0132267Y0127168D03*
X0119767Y0129043D03*
X0114142Y0129043D03*
X0109142Y0132168D03*
X0115392Y0134043D03*
X0110392Y0122168D03*
X0128517Y0105293D03*
X0134767Y0100918D03*
X0146642Y0094043D03*
X0149767Y0093418D03*
X0149767Y0097793D03*
X0156017Y0098418D03*
X0161017Y0101543D03*
X0161017Y0093418D03*
X0156642Y0090918D03*
X0154767Y0087793D03*
X0157267Y0081543D03*
X0159767Y0081543D03*
X0166642Y0085918D03*
X0171642Y0081543D03*
X0179767Y0086543D03*
X0190392Y0081543D03*
X0196017Y0084668D03*
X0201642Y0086543D03*
X0196642Y0090918D03*
X0186017Y0099043D03*
X0184767Y0096543D03*
X0176017Y0099668D03*
X0174767Y0096543D03*
X0186017Y0104043D03*
X0192267Y0106543D03*
X0194767Y0101543D03*
X0181017Y0109668D03*
X0176642Y0111543D03*
X0176017Y0114668D03*
X0171642Y0115918D03*
X0166642Y0115918D03*
X0181642Y0117168D03*
X0186017Y0119043D03*
X0191017Y0124668D03*
X0190392Y0127168D03*
X0192267Y0131543D03*
X0188517Y0132793D03*
X0195392Y0135293D03*
X0197892Y0139043D03*
X0202892Y0139043D03*
X0211017Y0139043D03*
X0216017Y0139043D03*
X0212892Y0142168D03*
X0214142Y0149043D03*
X0211017Y0149043D03*
X0206017Y0149043D03*
X0202892Y0149668D03*
X0195392Y0151543D03*
X0190392Y0151543D03*
X0190392Y0159043D03*
X0188517Y0165918D03*
X0184142Y0171543D03*
X0182892Y0175293D03*
X0179142Y0175918D03*
X0176642Y0170918D03*
X0167892Y0174043D03*
X0170392Y0179668D03*
X0163517Y0181543D03*
X0161017Y0187168D03*
X0156017Y0179668D03*
X0139142Y0177793D03*
X0136017Y0177793D03*
X0131642Y0167168D03*
X0112892Y0159043D03*
X0134767Y0153418D03*
X0140392Y0146543D03*
X0137267Y0142793D03*
X0132267Y0137793D03*
X0151642Y0159043D03*
X0167892Y0159668D03*
X0176642Y0159668D03*
X0180392Y0151543D03*
X0172892Y0146543D03*
X0167892Y0139668D03*
X0182267Y0139043D03*
X0201017Y0128418D03*
X0206017Y0124668D03*
X0200392Y0120918D03*
X0206017Y0120293D03*
X0211017Y0119043D03*
X0214767Y0116543D03*
X0222267Y0116543D03*
X0225392Y0115918D03*
X0229767Y0111543D03*
X0231017Y0119668D03*
X0236017Y0119043D03*
X0225392Y0121543D03*
X0222267Y0121543D03*
X0220392Y0127168D03*
X0216017Y0126543D03*
X0212267Y0126543D03*
X0225392Y0133418D03*
X0230392Y0133418D03*
X0236017Y0129043D03*
X0235392Y0126543D03*
X0231642Y0125918D03*
X0227267Y0126543D03*
X0239767Y0126543D03*
X0246642Y0122168D03*
X0251642Y0122168D03*
X0257267Y0117168D03*
X0261017Y0114668D03*
X0251017Y0113418D03*
X0246642Y0105918D03*
X0231642Y0097168D03*
X0229767Y0091543D03*
X0220392Y0092168D03*
X0214767Y0081543D03*
X0214767Y0076543D03*
X0217267Y0076543D03*
X0209767Y0071543D03*
X0206017Y0068418D03*
X0210392Y0066543D03*
X0201017Y0069043D03*
X0206017Y0075293D03*
X0221017Y0064668D03*
X0221017Y0059043D03*
X0221017Y0053418D03*
X0226017Y0055293D03*
X0231017Y0055293D03*
X0236017Y0057168D03*
X0231017Y0059043D03*
X0241017Y0063418D03*
X0241642Y0071543D03*
X0245392Y0071543D03*
X0237267Y0071543D03*
X0226017Y0069668D03*
X0241017Y0079043D03*
X0239767Y0081543D03*
X0250392Y0081543D03*
X0254767Y0091543D03*
X0264767Y0094043D03*
X0264767Y0089043D03*
X0271017Y0093418D03*
X0271017Y0101543D03*
X0276642Y0103418D03*
X0279767Y0109043D03*
X0281642Y0114043D03*
X0279142Y0114668D03*
X0269767Y0114668D03*
X0264767Y0125293D03*
X0262267Y0124043D03*
X0272267Y0125918D03*
X0269767Y0130918D03*
X0263517Y0133418D03*
X0262267Y0137168D03*
X0259767Y0141543D03*
X0267267Y0141543D03*
X0273517Y0140293D03*
X0283517Y0145293D03*
X0279142Y0157793D03*
X0272892Y0161543D03*
X0278517Y0169043D03*
X0272892Y0170918D03*
X0259142Y0164043D03*
X0256017Y0153418D03*
X0253517Y0153418D03*
X0248517Y0155293D03*
X0244142Y0149668D03*
X0242892Y0145918D03*
X0229767Y0143418D03*
X0237267Y0135918D03*
X0241017Y0135918D03*
X0246642Y0135918D03*
X0250392Y0130918D03*
X0281642Y0124668D03*
X0316017Y0125293D03*
X0322267Y0134043D03*
X0327267Y0136543D03*
X0337267Y0140293D03*
X0332267Y0142168D03*
X0331642Y0151543D03*
X0331642Y0154043D03*
X0334142Y0156543D03*
X0332267Y0160293D03*
X0331642Y0162793D03*
X0322267Y0166543D03*
X0317892Y0162168D03*
X0342892Y0154668D03*
X0345392Y0154043D03*
X0348517Y0157168D03*
X0351017Y0162793D03*
X0350392Y0150293D03*
X0333517Y0117793D03*
X0342892Y0110918D03*
X0349142Y0103418D03*
X0339142Y0097793D03*
X0345392Y0094668D03*
X0344767Y0089668D03*
X0339142Y0087793D03*
X0334767Y0084043D03*
X0334142Y0077793D03*
X0344767Y0072793D03*
X0341017Y0069043D03*
X0348517Y0065918D03*
X0351017Y0072793D03*
X0351017Y0075293D03*
X0357892Y0080918D03*
X0348517Y0085293D03*
X0331017Y0095918D03*
X0329142Y0101543D03*
X0314142Y0099043D03*
X0306642Y0091543D03*
X0302892Y0094043D03*
X0296642Y0087168D03*
X0292892Y0080293D03*
X0286642Y0080918D03*
X0286642Y0078418D03*
X0283517Y0077168D03*
X0274767Y0077168D03*
X0274767Y0084668D03*
X0281017Y0097793D03*
X0317267Y0084043D03*
X0321017Y0090293D03*
X0325392Y0089668D03*
X0315392Y0073418D03*
X0319142Y0066543D03*
X0310392Y0060293D03*
X0314767Y0055918D03*
X0321017Y0056543D03*
X0332267Y0060918D03*
X0341642Y0054668D03*
X0344142Y0056543D03*
X0348517Y0057168D03*
X0351017Y0050293D03*
X0346017Y0048418D03*
X0356017Y0047793D03*
X0322267Y0046543D03*
X0316642Y0047793D03*
X0302892Y0045918D03*
X0297267Y0046543D03*
X0289767Y0038418D03*
X0297267Y0036543D03*
X0302892Y0033418D03*
X0299767Y0030293D03*
X0301017Y0025293D03*
X0297267Y0024043D03*
X0309142Y0018418D03*
X0281017Y0023418D03*
X0268517Y0034043D03*
X0266017Y0034043D03*
X0258517Y0028418D03*
X0248517Y0022793D03*
X0254142Y0016543D03*
X0239767Y0022793D03*
X0237892Y0019043D03*
X0234767Y0026543D03*
X0232892Y0030918D03*
X0236017Y0034668D03*
X0238517Y0031543D03*
X0240392Y0027168D03*
X0245392Y0031543D03*
X0246017Y0039043D03*
X0246017Y0044668D03*
X0244767Y0051543D03*
X0236017Y0049043D03*
X0235392Y0046543D03*
X0236017Y0044043D03*
X0231017Y0043418D03*
X0226642Y0047168D03*
X0221017Y0047793D03*
X0236017Y0039043D03*
X0222267Y0026543D03*
X0225392Y0020918D03*
X0215392Y0026543D03*
X0211017Y0022168D03*
X0209142Y0025918D03*
X0204142Y0025918D03*
X0202892Y0021543D03*
X0209767Y0017168D03*
X0202267Y0015293D03*
X0195392Y0017168D03*
X0188517Y0019043D03*
X0182267Y0019043D03*
X0182267Y0026543D03*
X0180392Y0028418D03*
X0177892Y0030918D03*
X0176017Y0026543D03*
X0185392Y0029668D03*
X0191017Y0029043D03*
X0196017Y0030918D03*
X0191017Y0034668D03*
X0201017Y0034043D03*
X0204767Y0041543D03*
X0211017Y0031543D03*
X0195392Y0025293D03*
X0169767Y0017793D03*
X0158517Y0026543D03*
X0153517Y0036543D03*
X0151017Y0035293D03*
X0148517Y0035918D03*
X0141642Y0032168D03*
X0120392Y0043418D03*
X0122892Y0046543D03*
X0125392Y0046543D03*
X0125392Y0054668D03*
X0140392Y0058418D03*
X0150392Y0056543D03*
X0161017Y0053418D03*
X0165392Y0052168D03*
X0169767Y0056543D03*
X0171642Y0052168D03*
X0174767Y0056543D03*
X0176017Y0060293D03*
X0174767Y0066543D03*
X0171642Y0066543D03*
X0164767Y0071543D03*
X0161642Y0071543D03*
X0161017Y0065293D03*
X0157267Y0076543D03*
X0140392Y0082793D03*
X0136642Y0076543D03*
X0121642Y0076543D03*
X0119142Y0078418D03*
X0112892Y0084043D03*
X0118517Y0091543D03*
X0121017Y0091543D03*
X0101017Y0082168D03*
X0098517Y0083418D03*
X0093517Y0078418D03*
X0093517Y0070293D03*
X0098517Y0065293D03*
X0111017Y0065293D03*
X0114767Y0070293D03*
X0124142Y0067168D03*
X0095392Y0095293D03*
X0086642Y0102168D03*
X0067892Y0094043D03*
X0052892Y0099668D03*
X0051017Y0104043D03*
X0041642Y0112168D03*
X0062267Y0082168D03*
X0071017Y0078418D03*
X0077892Y0078418D03*
X0061642Y0075918D03*
X0052892Y0080293D03*
X0061642Y0068418D03*
X0072267Y0062793D03*
X0049767Y0063418D03*
X0097267Y0034043D03*
X0175392Y0047168D03*
X0184767Y0051543D03*
X0189767Y0051543D03*
X0192267Y0051543D03*
X0191017Y0055293D03*
X0196017Y0053418D03*
X0201642Y0060918D03*
X0206017Y0060293D03*
X0186017Y0064668D03*
X0180392Y0066543D03*
X0181017Y0069043D03*
X0181017Y0075293D03*
X0181017Y0077793D03*
X0211017Y0103418D03*
X0219767Y0106543D03*
X0206017Y0113418D03*
X0199767Y0116543D03*
X0237267Y0154043D03*
X0235392Y0158418D03*
X0229767Y0158418D03*
X0227892Y0162168D03*
X0222267Y0157168D03*
X0218517Y0160918D03*
X0207892Y0162793D03*
X0210392Y0171543D03*
X0214142Y0170293D03*
X0218517Y0174668D03*
X0226017Y0172168D03*
X0233517Y0167168D03*
X0237267Y0173418D03*
X0241642Y0168418D03*
X0246017Y0169043D03*
X0224767Y0180918D03*
X0231642Y0186543D03*
X0233517Y0190293D03*
X0226642Y0191543D03*
X0224142Y0191543D03*
X0219142Y0192168D03*
X0219142Y0199043D03*
X0221642Y0199668D03*
X0216017Y0199668D03*
X0221642Y0205293D03*
X0223517Y0207793D03*
X0231642Y0210293D03*
X0236017Y0202793D03*
X0239767Y0195918D03*
X0247892Y0192168D03*
X0257267Y0190293D03*
X0259767Y0190293D03*
X0252892Y0184668D03*
X0246017Y0205293D03*
X0254142Y0214668D03*
X0254142Y0217168D03*
X0273517Y0208418D03*
X0325392Y0205293D03*
X0222267Y0222793D03*
X0217892Y0218418D03*
X0206642Y0195918D03*
X0196642Y0189668D03*
X0204142Y0184668D03*
X0209142Y0182793D03*
X0201017Y0180293D03*
X0190392Y0180293D03*
X0179767Y0185293D03*
X0187892Y0189668D03*
X0202892Y0170918D03*
X0152267Y0192168D03*
X0121642Y0185293D03*
X0113517Y0185293D03*
X0109142Y0218418D03*
X0094767Y0224043D03*
X0180392Y0217168D03*
X0303517Y0073418D03*
X0301017Y0070293D03*
X0303517Y0062793D03*
X0302892Y0058418D03*
X0286642Y0057793D03*
X0282267Y0055918D03*
X0281642Y0052793D03*
X0274767Y0053418D03*
X0272267Y0051543D03*
X0271017Y0049043D03*
X0269142Y0047168D03*
X0262892Y0055293D03*
X0274767Y0059668D03*
X0278517Y0061543D03*
X0280392Y0067793D03*
X0284767Y0069668D03*
X0256017Y0042793D03*
X0259767Y0040293D03*
X0278517Y0036543D03*
D49*
X0339767Y0037168D03*
X0339767Y0202168D03*
X0079767Y0214668D03*
X0079767Y0024668D03*
M02*
