G75*
%MOIN*%
%OFA0B0*%
%FSLAX25Y25*%
%IPPOS*%
%LPD*%
%AMOC8*
5,1,8,0,0,1.08239X$1,22.5*
%
%ADD10R,0.02862X0.02469*%
%ADD11R,0.02469X0.02862*%
%ADD12R,0.02900X0.02500*%
%ADD13R,0.03650X0.05224*%
%ADD14R,0.02500X0.02900*%
%ADD15R,0.05224X0.03650*%
%ADD16R,0.06000X0.01870*%
%ADD17C,0.06110*%
%ADD18C,0.13555*%
%ADD19C,0.08374*%
%ADD20C,0.01000*%
%ADD21R,0.06406X0.06406*%
%ADD22C,0.06406*%
%ADD23R,0.05300X0.05300*%
%ADD24C,0.05300*%
%ADD25R,0.03300X0.04400*%
%ADD26R,0.04831X0.04437*%
%ADD27C,0.02469*%
%ADD28C,0.05500*%
%ADD29R,0.05500X0.02700*%
%ADD30R,0.07980X0.05618*%
%ADD31R,0.09949X0.07587*%
%ADD32R,0.06012X0.02075*%
%ADD33R,0.07980X0.08374*%
%ADD34R,0.07980X0.09161*%
%ADD35R,0.06012X0.07587*%
%ADD36R,0.07980X0.06012*%
%ADD37R,0.06406X0.03650*%
%ADD38C,0.02300*%
%ADD39C,0.17000*%
D10*
X0114361Y0120159D03*
X0120267Y0120159D03*
X0126172Y0120159D03*
X0126172Y0131576D03*
X0120267Y0131576D03*
X0114361Y0131576D03*
D11*
X0114361Y0125868D03*
D12*
X0143067Y0129668D03*
X0147467Y0129668D03*
X0147467Y0159668D03*
X0143067Y0159668D03*
X0182667Y0180368D03*
X0187067Y0180368D03*
X0192267Y0185168D03*
X0196667Y0185168D03*
X0203667Y0180368D03*
X0208067Y0180368D03*
X0237867Y0192368D03*
X0242267Y0192368D03*
X0242267Y0198368D03*
X0237867Y0198368D03*
X0221267Y0202568D03*
X0216867Y0202568D03*
X0196067Y0221168D03*
X0191667Y0221168D03*
X0257667Y0219968D03*
X0262067Y0219968D03*
X0262067Y0214568D03*
X0257667Y0214568D03*
X0257667Y0208568D03*
X0262067Y0208568D03*
X0262067Y0202568D03*
X0257667Y0202568D03*
X0257667Y0195968D03*
X0262067Y0195968D03*
X0264867Y0175818D03*
X0269267Y0175818D03*
X0275617Y0161418D03*
X0280017Y0161418D03*
X0269317Y0128218D03*
X0264917Y0128218D03*
X0274417Y0123818D03*
X0278817Y0123818D03*
X0278817Y0117368D03*
X0274417Y0117368D03*
X0266967Y0091518D03*
X0262567Y0091518D03*
X0147117Y0091368D03*
X0142717Y0091368D03*
X0135217Y0091668D03*
X0130817Y0091668D03*
X0141567Y0029468D03*
X0145967Y0029468D03*
X0109067Y0204368D03*
X0104667Y0204368D03*
X0097067Y0221168D03*
X0092667Y0221168D03*
D13*
X0118923Y0219968D03*
X0126010Y0219968D03*
X0124810Y0189968D03*
X0117723Y0189968D03*
D14*
X0078067Y0194368D03*
X0078067Y0198768D03*
X0077467Y0189168D03*
X0077467Y0184768D03*
X0199767Y0198568D03*
X0199767Y0202968D03*
X0205267Y0202968D03*
X0205267Y0198568D03*
X0211267Y0198568D03*
X0211267Y0202968D03*
X0208867Y0192168D03*
X0208867Y0187768D03*
X0202867Y0187768D03*
X0202867Y0192168D03*
X0275317Y0175318D03*
X0275317Y0170918D03*
X0325867Y0133368D03*
X0325867Y0128968D03*
X0331267Y0128968D03*
X0331267Y0133368D03*
X0256367Y0023418D03*
X0256367Y0019018D03*
X0243467Y0018268D03*
X0243467Y0022668D03*
X0234667Y0023718D03*
X0234667Y0019318D03*
X0222117Y0018718D03*
X0222117Y0023118D03*
X0215517Y0023118D03*
X0215517Y0018718D03*
X0206067Y0017368D03*
X0206067Y0021768D03*
X0192067Y0021768D03*
X0185967Y0022368D03*
X0185967Y0017968D03*
X0192067Y0017368D03*
X0179367Y0017968D03*
X0179367Y0022368D03*
X0173667Y0022368D03*
X0173667Y0017968D03*
X0095917Y0060018D03*
X0095917Y0064418D03*
X0067667Y0067868D03*
X0067667Y0072268D03*
D15*
X0089317Y0066211D03*
X0089317Y0059124D03*
D16*
X0326973Y0058170D03*
X0326973Y0060729D03*
X0326973Y0063288D03*
X0326973Y0065847D03*
X0326973Y0068406D03*
X0326973Y0070965D03*
X0326973Y0073524D03*
X0326973Y0076083D03*
X0326973Y0078643D03*
X0355760Y0078643D03*
X0355760Y0076083D03*
X0355760Y0073524D03*
X0355760Y0070965D03*
X0355760Y0068406D03*
X0355760Y0065847D03*
X0355760Y0063288D03*
X0355760Y0060729D03*
X0355760Y0058170D03*
X0355760Y0055611D03*
X0355760Y0053052D03*
X0355760Y0050493D03*
X0326973Y0050493D03*
X0326973Y0053052D03*
X0326973Y0055611D03*
X0326923Y0142093D03*
X0326923Y0144652D03*
X0326923Y0147211D03*
X0326923Y0149770D03*
X0326923Y0152329D03*
X0326923Y0154888D03*
X0326923Y0157447D03*
X0326923Y0160006D03*
X0326923Y0162565D03*
X0326923Y0165124D03*
X0326923Y0167683D03*
X0326923Y0170243D03*
X0355710Y0170243D03*
X0355710Y0167683D03*
X0355710Y0165124D03*
X0355710Y0162565D03*
X0355710Y0160006D03*
X0355710Y0157447D03*
X0355710Y0154888D03*
X0355710Y0152329D03*
X0355710Y0149770D03*
X0355710Y0147211D03*
X0355710Y0144652D03*
X0355710Y0142093D03*
D17*
X0065891Y0059547D02*
X0060281Y0059547D01*
X0060281Y0049705D02*
X0065891Y0049705D01*
X0065891Y0041831D02*
X0060281Y0041831D01*
X0060281Y0031988D02*
X0065891Y0031988D01*
D18*
X0052417Y0019902D03*
X0052417Y0071634D03*
D19*
X0048780Y0183670D02*
X0056654Y0183670D01*
X0064921Y0198631D02*
X0064921Y0206505D01*
X0040906Y0206505D02*
X0040906Y0198631D01*
D20*
X0072517Y0060968D02*
X0075517Y0060968D01*
X0075517Y0057968D01*
X0072517Y0057968D01*
X0072517Y0060968D01*
X0072517Y0058967D02*
X0075517Y0058967D01*
X0075517Y0059966D02*
X0072517Y0059966D01*
X0072517Y0060965D02*
X0075517Y0060965D01*
X0078517Y0060968D02*
X0081517Y0060968D01*
X0081517Y0057968D01*
X0078517Y0057968D01*
X0078517Y0060968D01*
X0078517Y0058967D02*
X0081517Y0058967D01*
X0081517Y0059966D02*
X0078517Y0059966D01*
X0078517Y0060965D02*
X0081517Y0060965D01*
X0080917Y0039468D02*
X0083917Y0039468D01*
X0083917Y0036468D01*
X0080917Y0036468D01*
X0080917Y0039468D01*
X0080917Y0037467D02*
X0083917Y0037467D01*
X0083917Y0038466D02*
X0080917Y0038466D01*
X0080917Y0039465D02*
X0083917Y0039465D01*
X0077917Y0039468D02*
X0074917Y0039468D01*
X0077917Y0039468D02*
X0077917Y0036468D01*
X0074917Y0036468D01*
X0074917Y0039468D01*
X0074917Y0037467D02*
X0077917Y0037467D01*
X0077917Y0038466D02*
X0074917Y0038466D01*
X0074917Y0039465D02*
X0077917Y0039465D01*
D21*
X0290767Y0102068D03*
X0211567Y0211568D03*
D22*
X0201567Y0211568D03*
X0191567Y0211568D03*
X0290767Y0172068D03*
X0300767Y0172068D03*
X0310767Y0172068D03*
X0310767Y0162068D03*
X0300767Y0162068D03*
X0290767Y0162068D03*
X0290767Y0152068D03*
X0300767Y0152068D03*
X0310767Y0152068D03*
X0310767Y0142068D03*
X0300767Y0142068D03*
X0290767Y0142068D03*
X0290767Y0132068D03*
X0300767Y0132068D03*
X0310767Y0132068D03*
X0310767Y0122068D03*
X0300767Y0122068D03*
X0290767Y0122068D03*
X0290767Y0112068D03*
X0300767Y0112068D03*
X0310767Y0112068D03*
X0310767Y0102068D03*
X0300767Y0102068D03*
D23*
X0338717Y0109068D03*
X0354917Y0109068D03*
X0354467Y0132318D03*
X0338267Y0132318D03*
D24*
X0338267Y0126418D03*
X0354467Y0126418D03*
X0354917Y0103168D03*
X0338717Y0103168D03*
D25*
X0193417Y0193518D03*
X0189717Y0193518D03*
X0186017Y0193518D03*
X0186017Y0202918D03*
X0189717Y0202918D03*
X0193417Y0202918D03*
D26*
X0110813Y0190568D03*
X0104120Y0190568D03*
D27*
X0158517Y0129268D03*
X0163517Y0129268D03*
X0168517Y0129268D03*
X0173517Y0129268D03*
X0178517Y0129268D03*
X0183517Y0129268D03*
X0188517Y0129268D03*
X0193517Y0129268D03*
X0198517Y0129268D03*
X0203517Y0129268D03*
X0208517Y0129268D03*
X0213517Y0129268D03*
X0218517Y0129268D03*
X0223517Y0129268D03*
X0228517Y0129268D03*
X0233517Y0129268D03*
X0238517Y0129268D03*
X0243517Y0129268D03*
X0248517Y0129268D03*
X0253517Y0129268D03*
X0253517Y0124268D03*
X0248517Y0124268D03*
X0248517Y0119268D03*
X0253517Y0119268D03*
X0253517Y0114268D03*
X0248517Y0114268D03*
X0248517Y0109268D03*
X0253517Y0109268D03*
X0253517Y0104268D03*
X0248517Y0104268D03*
X0248517Y0099268D03*
X0253517Y0099268D03*
X0253517Y0094268D03*
X0248517Y0094268D03*
X0248517Y0089268D03*
X0253517Y0089268D03*
X0253517Y0084268D03*
X0248517Y0084268D03*
X0248517Y0079268D03*
X0253517Y0079268D03*
X0253517Y0074268D03*
X0248517Y0074268D03*
X0248517Y0069268D03*
X0253517Y0069268D03*
X0253517Y0064268D03*
X0248517Y0064268D03*
X0248517Y0059268D03*
X0253517Y0059268D03*
X0253517Y0054268D03*
X0248517Y0054268D03*
X0248517Y0049268D03*
X0253517Y0049268D03*
X0253517Y0044268D03*
X0248517Y0044268D03*
X0243517Y0044268D03*
X0238517Y0044268D03*
X0233517Y0044268D03*
X0233517Y0049268D03*
X0238517Y0049268D03*
X0243517Y0049268D03*
X0243517Y0054268D03*
X0238517Y0054268D03*
X0233517Y0054268D03*
X0233517Y0059268D03*
X0238517Y0059268D03*
X0243517Y0059268D03*
X0243517Y0064268D03*
X0238517Y0064268D03*
X0233517Y0064268D03*
X0233517Y0069268D03*
X0238517Y0069268D03*
X0243517Y0069268D03*
X0243517Y0074268D03*
X0238517Y0074268D03*
X0233517Y0074268D03*
X0228517Y0074268D03*
X0223517Y0074268D03*
X0218517Y0074268D03*
X0218517Y0069268D03*
X0223517Y0069268D03*
X0228517Y0069268D03*
X0228517Y0064268D03*
X0223517Y0064268D03*
X0218517Y0064268D03*
X0218517Y0059268D03*
X0223517Y0059268D03*
X0228517Y0059268D03*
X0228517Y0054268D03*
X0223517Y0054268D03*
X0218517Y0054268D03*
X0218517Y0049268D03*
X0223517Y0049268D03*
X0228517Y0049268D03*
X0228517Y0044268D03*
X0223517Y0044268D03*
X0218517Y0044268D03*
X0213517Y0044268D03*
X0208517Y0044268D03*
X0208517Y0049268D03*
X0213517Y0049268D03*
X0213517Y0054268D03*
X0208517Y0054268D03*
X0208517Y0059268D03*
X0213517Y0059268D03*
X0213517Y0064268D03*
X0208517Y0064268D03*
X0208517Y0069268D03*
X0213517Y0069268D03*
X0213517Y0074268D03*
X0208517Y0074268D03*
X0203517Y0074268D03*
X0198517Y0074268D03*
X0193517Y0074268D03*
X0193517Y0069268D03*
X0198517Y0069268D03*
X0203517Y0069268D03*
X0203517Y0064268D03*
X0198517Y0064268D03*
X0193517Y0064268D03*
X0193517Y0059268D03*
X0198517Y0059268D03*
X0203517Y0059268D03*
X0203517Y0054268D03*
X0198517Y0054268D03*
X0193517Y0054268D03*
X0193517Y0049268D03*
X0198517Y0049268D03*
X0203517Y0049268D03*
X0203517Y0044268D03*
X0198517Y0044268D03*
X0193517Y0044268D03*
X0188517Y0044268D03*
X0183517Y0044268D03*
X0178517Y0044268D03*
X0178517Y0049268D03*
X0183517Y0049268D03*
X0188517Y0049268D03*
X0188517Y0054268D03*
X0183517Y0054268D03*
X0178517Y0054268D03*
X0178517Y0059268D03*
X0183517Y0059268D03*
X0188517Y0059268D03*
X0188517Y0064268D03*
X0183517Y0064268D03*
X0178517Y0064268D03*
X0178517Y0069268D03*
X0183517Y0069268D03*
X0188517Y0069268D03*
X0188517Y0074268D03*
X0183517Y0074268D03*
X0178517Y0074268D03*
X0173517Y0074268D03*
X0168517Y0074268D03*
X0168517Y0069268D03*
X0173517Y0069268D03*
X0173517Y0064268D03*
X0168517Y0064268D03*
X0168517Y0059268D03*
X0173517Y0059268D03*
X0173517Y0054268D03*
X0168517Y0054268D03*
X0168517Y0049268D03*
X0173517Y0049268D03*
X0173517Y0044268D03*
X0168517Y0044268D03*
X0163517Y0044268D03*
X0158517Y0044268D03*
X0158517Y0049268D03*
X0163517Y0049268D03*
X0163517Y0054268D03*
X0158517Y0054268D03*
X0158517Y0059268D03*
X0163517Y0059268D03*
X0163517Y0064268D03*
X0158517Y0064268D03*
X0158517Y0069268D03*
X0163517Y0069268D03*
X0163517Y0074268D03*
X0158517Y0074268D03*
X0158517Y0079268D03*
X0163517Y0079268D03*
X0168517Y0079268D03*
X0173517Y0079268D03*
X0178517Y0079268D03*
X0183517Y0079268D03*
X0188517Y0079268D03*
X0193517Y0079268D03*
X0198517Y0079268D03*
X0203517Y0079268D03*
X0208517Y0079268D03*
X0213517Y0079268D03*
X0218517Y0079268D03*
X0223517Y0079268D03*
X0228517Y0079268D03*
X0233517Y0079268D03*
X0238517Y0079268D03*
X0243517Y0079268D03*
X0243517Y0084268D03*
X0238517Y0084268D03*
X0233517Y0084268D03*
X0233517Y0089268D03*
X0238517Y0089268D03*
X0243517Y0089268D03*
X0243517Y0094268D03*
X0238517Y0094268D03*
X0233517Y0094268D03*
X0233517Y0099268D03*
X0238517Y0099268D03*
X0243517Y0099268D03*
X0243517Y0104268D03*
X0238517Y0104268D03*
X0233517Y0104268D03*
X0228517Y0104268D03*
X0223517Y0104268D03*
X0218517Y0104268D03*
X0218517Y0099268D03*
X0223517Y0099268D03*
X0228517Y0099268D03*
X0228517Y0094268D03*
X0223517Y0094268D03*
X0218517Y0094268D03*
X0218517Y0089268D03*
X0223517Y0089268D03*
X0228517Y0089268D03*
X0228517Y0084268D03*
X0223517Y0084268D03*
X0218517Y0084268D03*
X0213517Y0084268D03*
X0208517Y0084268D03*
X0208517Y0089268D03*
X0213517Y0089268D03*
X0213517Y0094268D03*
X0208517Y0094268D03*
X0208517Y0099268D03*
X0213517Y0099268D03*
X0213517Y0104268D03*
X0208517Y0104268D03*
X0203517Y0104268D03*
X0198517Y0104268D03*
X0193517Y0104268D03*
X0193517Y0099268D03*
X0198517Y0099268D03*
X0203517Y0099268D03*
X0203517Y0094268D03*
X0198517Y0094268D03*
X0193517Y0094268D03*
X0193517Y0089268D03*
X0198517Y0089268D03*
X0203517Y0089268D03*
X0203517Y0084268D03*
X0198517Y0084268D03*
X0193517Y0084268D03*
X0188517Y0084268D03*
X0183517Y0084268D03*
X0178517Y0084268D03*
X0178517Y0089268D03*
X0183517Y0089268D03*
X0188517Y0089268D03*
X0188517Y0094268D03*
X0183517Y0094268D03*
X0178517Y0094268D03*
X0178517Y0099268D03*
X0183517Y0099268D03*
X0188517Y0099268D03*
X0188517Y0104268D03*
X0183517Y0104268D03*
X0178517Y0104268D03*
X0173517Y0104268D03*
X0168517Y0104268D03*
X0168517Y0099268D03*
X0173517Y0099268D03*
X0173517Y0094268D03*
X0168517Y0094268D03*
X0168517Y0089268D03*
X0173517Y0089268D03*
X0173517Y0084268D03*
X0168517Y0084268D03*
X0163517Y0084268D03*
X0158517Y0084268D03*
X0158517Y0089268D03*
X0163517Y0089268D03*
X0163517Y0094268D03*
X0158517Y0094268D03*
X0158517Y0099268D03*
X0163517Y0099268D03*
X0163517Y0104268D03*
X0158517Y0104268D03*
X0158517Y0109268D03*
X0163517Y0109268D03*
X0168517Y0109268D03*
X0173517Y0109268D03*
X0178517Y0109268D03*
X0183517Y0109268D03*
X0188517Y0109268D03*
X0193517Y0109268D03*
X0198517Y0109268D03*
X0203517Y0109268D03*
X0208517Y0109268D03*
X0213517Y0109268D03*
X0218517Y0109268D03*
X0223517Y0109268D03*
X0228517Y0109268D03*
X0233517Y0109268D03*
X0238517Y0109268D03*
X0243517Y0109268D03*
X0243517Y0114268D03*
X0238517Y0114268D03*
X0233517Y0114268D03*
X0233517Y0119268D03*
X0238517Y0119268D03*
X0243517Y0119268D03*
X0243517Y0124268D03*
X0238517Y0124268D03*
X0233517Y0124268D03*
X0228517Y0124268D03*
X0223517Y0124268D03*
X0218517Y0124268D03*
X0218517Y0119268D03*
X0223517Y0119268D03*
X0228517Y0119268D03*
X0228517Y0114268D03*
X0223517Y0114268D03*
X0218517Y0114268D03*
X0213517Y0114268D03*
X0208517Y0114268D03*
X0208517Y0119268D03*
X0213517Y0119268D03*
X0213517Y0124268D03*
X0208517Y0124268D03*
X0203517Y0124268D03*
X0198517Y0124268D03*
X0193517Y0124268D03*
X0193517Y0119268D03*
X0198517Y0119268D03*
X0203517Y0119268D03*
X0203517Y0114268D03*
X0198517Y0114268D03*
X0193517Y0114268D03*
X0188517Y0114268D03*
X0183517Y0114268D03*
X0178517Y0114268D03*
X0178517Y0119268D03*
X0183517Y0119268D03*
X0188517Y0119268D03*
X0188517Y0124268D03*
X0183517Y0124268D03*
X0178517Y0124268D03*
X0173517Y0124268D03*
X0168517Y0124268D03*
X0168517Y0119268D03*
X0173517Y0119268D03*
X0173517Y0114268D03*
X0168517Y0114268D03*
X0163517Y0114268D03*
X0158517Y0114268D03*
X0158517Y0119268D03*
X0163517Y0119268D03*
X0163517Y0124268D03*
X0158517Y0124268D03*
X0158517Y0039268D03*
X0163517Y0039268D03*
X0168517Y0039268D03*
X0173517Y0039268D03*
X0178517Y0039268D03*
X0183517Y0039268D03*
X0188517Y0039268D03*
X0193517Y0039268D03*
X0198517Y0039268D03*
X0203517Y0039268D03*
X0208517Y0039268D03*
X0213517Y0039268D03*
X0218517Y0039268D03*
X0223517Y0039268D03*
X0228517Y0039268D03*
X0233517Y0039268D03*
X0238517Y0039268D03*
X0243517Y0039268D03*
X0248517Y0039268D03*
X0253517Y0039268D03*
X0253517Y0034268D03*
X0248517Y0034268D03*
X0243517Y0034268D03*
X0238517Y0034268D03*
X0233517Y0034268D03*
X0228517Y0034268D03*
X0223517Y0034268D03*
X0218517Y0034268D03*
X0213517Y0034268D03*
X0208517Y0034268D03*
X0203517Y0034268D03*
X0198517Y0034268D03*
X0193517Y0034268D03*
X0188517Y0034268D03*
X0183517Y0034268D03*
X0178517Y0034268D03*
X0173517Y0034268D03*
X0168517Y0034268D03*
X0163517Y0034268D03*
X0158517Y0034268D03*
D28*
X0151167Y0022168D03*
X0140967Y0022368D03*
X0199767Y0026368D03*
X0249967Y0026568D03*
X0147667Y0168368D03*
X0156067Y0185768D03*
X0195517Y0178568D03*
X0242167Y0178918D03*
X0267667Y0189118D03*
X0275467Y0187918D03*
X0271567Y0181918D03*
X0280117Y0180968D03*
X0286867Y0186718D03*
D29*
X0175317Y0185968D03*
X0175317Y0182268D03*
X0175317Y0178568D03*
X0165117Y0178568D03*
X0165117Y0185968D03*
D30*
X0145967Y0084468D03*
X0133368Y0084468D03*
X0133368Y0062814D03*
X0145967Y0062814D03*
D31*
X0145267Y0137207D03*
X0145267Y0152168D03*
D32*
X0041537Y0154850D03*
X0041537Y0157409D03*
X0041537Y0159968D03*
X0041537Y0162527D03*
X0041537Y0165086D03*
D33*
X0030317Y0164889D03*
X0030317Y0155046D03*
D34*
X0030317Y0144220D03*
X0030317Y0175716D03*
D35*
X0086092Y0113080D03*
X0086092Y0090639D03*
D36*
X0034320Y0084339D03*
X0030383Y0136111D03*
D37*
X0045541Y0117765D03*
X0047115Y0113434D03*
X0045541Y0109103D03*
X0044753Y0104772D03*
X0045541Y0100442D03*
X0044753Y0096111D03*
X0045541Y0091780D03*
X0045541Y0087450D03*
D38*
X0052892Y0080293D03*
X0061642Y0075918D03*
X0062267Y0082168D03*
X0071017Y0078418D03*
X0077892Y0078418D03*
X0093517Y0078418D03*
X0098517Y0083418D03*
X0101017Y0082168D03*
X0112892Y0084043D03*
X0119142Y0078418D03*
X0121642Y0076543D03*
X0114767Y0070293D03*
X0111017Y0065293D03*
X0098517Y0065293D03*
X0093517Y0070293D03*
X0072267Y0062793D03*
X0061642Y0068418D03*
X0049767Y0063418D03*
X0067892Y0094043D03*
X0052892Y0099668D03*
X0051017Y0104043D03*
X0041642Y0112168D03*
X0080392Y0137168D03*
X0076017Y0143418D03*
X0076017Y0145918D03*
X0074142Y0157168D03*
X0056017Y0147793D03*
X0096017Y0118418D03*
X0099767Y0117168D03*
X0092892Y0114043D03*
X0105392Y0109043D03*
X0116642Y0117793D03*
X0121642Y0117168D03*
X0123517Y0119043D03*
X0130392Y0114043D03*
X0132892Y0111543D03*
X0134142Y0109043D03*
X0134767Y0105293D03*
X0141642Y0108418D03*
X0144142Y0110293D03*
X0142267Y0112168D03*
X0149767Y0114043D03*
X0161642Y0121543D03*
X0161642Y0127168D03*
X0166642Y0127168D03*
X0171017Y0129043D03*
X0157892Y0132168D03*
X0150392Y0129043D03*
X0152267Y0124668D03*
X0144142Y0127168D03*
X0141017Y0127168D03*
X0134767Y0124668D03*
X0132267Y0127168D03*
X0119767Y0129043D03*
X0114142Y0129043D03*
X0109142Y0132168D03*
X0115392Y0134043D03*
X0110392Y0122168D03*
X0128517Y0105293D03*
X0134767Y0100918D03*
X0146642Y0094043D03*
X0149767Y0093418D03*
X0149767Y0097793D03*
X0156017Y0098418D03*
X0161017Y0101543D03*
X0161017Y0093418D03*
X0156642Y0090918D03*
X0154767Y0087793D03*
X0157267Y0081543D03*
X0159767Y0081543D03*
X0166642Y0085918D03*
X0171642Y0081543D03*
X0179767Y0086543D03*
X0190392Y0081543D03*
X0196017Y0084668D03*
X0201642Y0086543D03*
X0196642Y0090918D03*
X0186017Y0099043D03*
X0184767Y0096543D03*
X0176017Y0099668D03*
X0174767Y0096543D03*
X0186017Y0104043D03*
X0192267Y0106543D03*
X0194767Y0101543D03*
X0181017Y0109668D03*
X0176642Y0111543D03*
X0176017Y0114668D03*
X0171642Y0115918D03*
X0166642Y0115918D03*
X0181642Y0117168D03*
X0186017Y0119043D03*
X0191017Y0124668D03*
X0190392Y0127168D03*
X0192267Y0131543D03*
X0188517Y0132793D03*
X0195392Y0135293D03*
X0197892Y0139043D03*
X0202892Y0139043D03*
X0211017Y0139043D03*
X0216017Y0139043D03*
X0212892Y0142168D03*
X0214142Y0149043D03*
X0211017Y0149043D03*
X0206017Y0149043D03*
X0202892Y0149668D03*
X0195392Y0151543D03*
X0190392Y0151543D03*
X0190392Y0159043D03*
X0188517Y0165918D03*
X0184142Y0171543D03*
X0182892Y0175293D03*
X0179142Y0175918D03*
X0176642Y0170918D03*
X0167892Y0174043D03*
X0170392Y0179668D03*
X0163517Y0181543D03*
X0161017Y0187168D03*
X0156017Y0179668D03*
X0139142Y0177793D03*
X0136017Y0177793D03*
X0131642Y0167168D03*
X0112892Y0159043D03*
X0134767Y0153418D03*
X0140392Y0146543D03*
X0137267Y0142793D03*
X0132267Y0137793D03*
X0151642Y0159043D03*
X0167892Y0159668D03*
X0176642Y0159668D03*
X0180392Y0151543D03*
X0172892Y0146543D03*
X0167892Y0139668D03*
X0182267Y0139043D03*
X0201017Y0128418D03*
X0206017Y0124668D03*
X0200392Y0120918D03*
X0206017Y0120293D03*
X0211017Y0119043D03*
X0214767Y0116543D03*
X0222267Y0116543D03*
X0225392Y0115918D03*
X0229767Y0111543D03*
X0231017Y0119668D03*
X0236017Y0119043D03*
X0225392Y0121543D03*
X0222267Y0121543D03*
X0220392Y0127168D03*
X0216017Y0126543D03*
X0212267Y0126543D03*
X0225392Y0133418D03*
X0230392Y0133418D03*
X0236017Y0129043D03*
X0235392Y0126543D03*
X0231642Y0125918D03*
X0227267Y0126543D03*
X0239767Y0126543D03*
X0246642Y0122168D03*
X0251642Y0122168D03*
X0257267Y0117168D03*
X0261017Y0114668D03*
X0251017Y0113418D03*
X0246642Y0105918D03*
X0231642Y0097168D03*
X0229767Y0091543D03*
X0220392Y0092168D03*
X0214767Y0081543D03*
X0214767Y0076543D03*
X0217267Y0076543D03*
X0209767Y0071543D03*
X0206017Y0068418D03*
X0210392Y0066543D03*
X0201017Y0069043D03*
X0206017Y0075293D03*
X0221017Y0064668D03*
X0221017Y0059043D03*
X0221017Y0053418D03*
X0226017Y0055293D03*
X0231017Y0055293D03*
X0236017Y0057168D03*
X0231017Y0059043D03*
X0241017Y0063418D03*
X0241642Y0071543D03*
X0245392Y0071543D03*
X0237267Y0071543D03*
X0226017Y0069668D03*
X0241017Y0079043D03*
X0239767Y0081543D03*
X0250392Y0081543D03*
X0254767Y0091543D03*
X0264767Y0094043D03*
X0264767Y0089043D03*
X0271017Y0093418D03*
X0271017Y0101543D03*
X0276642Y0103418D03*
X0279767Y0109043D03*
X0281642Y0114043D03*
X0279142Y0114668D03*
X0269767Y0114668D03*
X0264767Y0125293D03*
X0262267Y0124043D03*
X0272267Y0125918D03*
X0269767Y0130918D03*
X0263517Y0133418D03*
X0262267Y0137168D03*
X0259767Y0141543D03*
X0267267Y0141543D03*
X0273517Y0140293D03*
X0283517Y0145293D03*
X0279142Y0157793D03*
X0272892Y0161543D03*
X0278517Y0169043D03*
X0272892Y0170918D03*
X0259142Y0164043D03*
X0256017Y0153418D03*
X0253517Y0153418D03*
X0248517Y0155293D03*
X0244142Y0149668D03*
X0242892Y0145918D03*
X0229767Y0143418D03*
X0237267Y0135918D03*
X0241017Y0135918D03*
X0246642Y0135918D03*
X0250392Y0130918D03*
X0281642Y0124668D03*
X0316017Y0125293D03*
X0322267Y0134043D03*
X0327267Y0136543D03*
X0337267Y0140293D03*
X0332267Y0142168D03*
X0331642Y0151543D03*
X0331642Y0154043D03*
X0334142Y0156543D03*
X0332267Y0160293D03*
X0331642Y0162793D03*
X0322267Y0166543D03*
X0317892Y0162168D03*
X0342892Y0154668D03*
X0345392Y0154043D03*
X0348517Y0157168D03*
X0351017Y0162793D03*
X0350392Y0150293D03*
X0333517Y0117793D03*
X0342892Y0110918D03*
X0349142Y0103418D03*
X0339142Y0097793D03*
X0345392Y0094668D03*
X0344767Y0089668D03*
X0339142Y0087793D03*
X0334767Y0084043D03*
X0334142Y0077793D03*
X0344767Y0072793D03*
X0341017Y0069043D03*
X0348517Y0065918D03*
X0351017Y0072793D03*
X0351017Y0075293D03*
X0357892Y0080918D03*
X0348517Y0085293D03*
X0331017Y0095918D03*
X0329142Y0101543D03*
X0314142Y0099043D03*
X0306642Y0091543D03*
X0302892Y0094043D03*
X0296642Y0087168D03*
X0292892Y0080293D03*
X0286642Y0080918D03*
X0286642Y0078418D03*
X0283517Y0077168D03*
X0274767Y0077168D03*
X0274767Y0084668D03*
X0281017Y0097793D03*
X0317267Y0084043D03*
X0321017Y0090293D03*
X0325392Y0089668D03*
X0315392Y0073418D03*
X0319142Y0066543D03*
X0310392Y0060293D03*
X0314767Y0055918D03*
X0321017Y0056543D03*
X0332267Y0060918D03*
X0341642Y0054668D03*
X0344142Y0056543D03*
X0348517Y0057168D03*
X0351017Y0050293D03*
X0346017Y0048418D03*
X0356017Y0047793D03*
X0322267Y0046543D03*
X0316642Y0047793D03*
X0302892Y0045918D03*
X0297267Y0046543D03*
X0289767Y0038418D03*
X0297267Y0036543D03*
X0302892Y0033418D03*
X0299767Y0030293D03*
X0301017Y0025293D03*
X0297267Y0024043D03*
X0309142Y0018418D03*
X0281017Y0023418D03*
X0268517Y0034043D03*
X0266017Y0034043D03*
X0258517Y0028418D03*
X0248517Y0022793D03*
X0254142Y0016543D03*
X0239767Y0022793D03*
X0237892Y0019043D03*
X0234767Y0026543D03*
X0232892Y0030918D03*
X0236017Y0034668D03*
X0238517Y0031543D03*
X0240392Y0027168D03*
X0245392Y0031543D03*
X0246017Y0039043D03*
X0246017Y0044668D03*
X0244767Y0051543D03*
X0236017Y0049043D03*
X0235392Y0046543D03*
X0236017Y0044043D03*
X0231017Y0043418D03*
X0226642Y0047168D03*
X0221017Y0047793D03*
X0236017Y0039043D03*
X0222267Y0026543D03*
X0225392Y0020918D03*
X0215392Y0026543D03*
X0211017Y0022168D03*
X0209142Y0025918D03*
X0204142Y0025918D03*
X0202892Y0021543D03*
X0209767Y0017168D03*
X0202267Y0015293D03*
X0195392Y0017168D03*
X0188517Y0019043D03*
X0182267Y0019043D03*
X0182267Y0026543D03*
X0180392Y0028418D03*
X0177892Y0030918D03*
X0176017Y0026543D03*
X0185392Y0029668D03*
X0191017Y0029043D03*
X0196017Y0030918D03*
X0191017Y0034668D03*
X0201017Y0034043D03*
X0204767Y0041543D03*
X0211017Y0031543D03*
X0195392Y0025293D03*
X0169767Y0017793D03*
X0158517Y0026543D03*
X0153517Y0036543D03*
X0151017Y0035293D03*
X0148517Y0035918D03*
X0141642Y0032168D03*
X0120392Y0043418D03*
X0122892Y0046543D03*
X0125392Y0046543D03*
X0125392Y0054668D03*
X0140392Y0058418D03*
X0150392Y0056543D03*
X0161017Y0053418D03*
X0165392Y0052168D03*
X0169767Y0056543D03*
X0171642Y0052168D03*
X0174767Y0056543D03*
X0176017Y0060293D03*
X0174767Y0066543D03*
X0171642Y0066543D03*
X0164767Y0071543D03*
X0161642Y0071543D03*
X0161017Y0065293D03*
X0157267Y0076543D03*
X0140392Y0082793D03*
X0136642Y0076543D03*
X0124142Y0067168D03*
X0121017Y0091543D03*
X0118517Y0091543D03*
X0095392Y0095293D03*
X0086642Y0102168D03*
X0175392Y0047168D03*
X0184767Y0051543D03*
X0189767Y0051543D03*
X0192267Y0051543D03*
X0191017Y0055293D03*
X0196017Y0053418D03*
X0201642Y0060918D03*
X0206017Y0060293D03*
X0186017Y0064668D03*
X0180392Y0066543D03*
X0181017Y0069043D03*
X0181017Y0075293D03*
X0181017Y0077793D03*
X0211017Y0103418D03*
X0219767Y0106543D03*
X0206017Y0113418D03*
X0199767Y0116543D03*
X0237267Y0154043D03*
X0235392Y0158418D03*
X0229767Y0158418D03*
X0227892Y0162168D03*
X0222267Y0157168D03*
X0218517Y0160918D03*
X0207892Y0162793D03*
X0210392Y0171543D03*
X0214142Y0170293D03*
X0218517Y0174668D03*
X0226017Y0172168D03*
X0233517Y0167168D03*
X0237267Y0173418D03*
X0241642Y0168418D03*
X0246017Y0169043D03*
X0224767Y0180918D03*
X0231642Y0186543D03*
X0233517Y0190293D03*
X0226642Y0191543D03*
X0224142Y0191543D03*
X0219142Y0192168D03*
X0219142Y0199043D03*
X0221642Y0199668D03*
X0216017Y0199668D03*
X0221642Y0205293D03*
X0223517Y0207793D03*
X0231642Y0210293D03*
X0236017Y0202793D03*
X0239767Y0195918D03*
X0247892Y0192168D03*
X0257267Y0190293D03*
X0259767Y0190293D03*
X0252892Y0184668D03*
X0246017Y0205293D03*
X0254142Y0214668D03*
X0254142Y0217168D03*
X0273517Y0208418D03*
X0325392Y0205293D03*
X0222267Y0222793D03*
X0217892Y0218418D03*
X0206642Y0195918D03*
X0196642Y0189668D03*
X0204142Y0184668D03*
X0209142Y0182793D03*
X0201017Y0180293D03*
X0190392Y0180293D03*
X0179767Y0185293D03*
X0187892Y0189668D03*
X0202892Y0170918D03*
X0152267Y0192168D03*
X0122892Y0202793D03*
X0131017Y0215918D03*
X0144767Y0213418D03*
X0109142Y0218418D03*
X0094767Y0224043D03*
X0087267Y0199043D03*
X0090392Y0195918D03*
X0088517Y0189668D03*
X0094767Y0187168D03*
X0102267Y0187168D03*
X0104767Y0187168D03*
X0099142Y0192793D03*
X0113517Y0185293D03*
X0121642Y0185293D03*
X0077267Y0179043D03*
X0074767Y0185293D03*
X0076017Y0192168D03*
X0180392Y0217168D03*
X0303517Y0073418D03*
X0301017Y0070293D03*
X0303517Y0062793D03*
X0302892Y0058418D03*
X0286642Y0057793D03*
X0282267Y0055918D03*
X0281642Y0052793D03*
X0274767Y0053418D03*
X0272267Y0051543D03*
X0271017Y0049043D03*
X0269142Y0047168D03*
X0262892Y0055293D03*
X0274767Y0059668D03*
X0278517Y0061543D03*
X0280392Y0067793D03*
X0284767Y0069668D03*
X0256017Y0042793D03*
X0259767Y0040293D03*
X0278517Y0036543D03*
X0097267Y0034043D03*
D39*
X0079767Y0024668D03*
X0339767Y0037168D03*
X0339767Y0202168D03*
X0079767Y0214668D03*
M02*
