G75*
%MOIN*%
%OFA0B0*%
%FSLAX25Y25*%
%IPPOS*%
%LPD*%
%AMOC8*
5,1,8,0,0,1.08239X$1,22.5*
%
%ADD10R,0.02362X0.01969*%
%ADD11R,0.01969X0.02362*%
%ADD12R,0.02400X0.02000*%
%ADD13R,0.03150X0.04724*%
%ADD14R,0.02000X0.02400*%
%ADD15R,0.04724X0.03150*%
%ADD16R,0.05500X0.01370*%
%ADD17C,0.05610*%
%ADD18C,0.13055*%
%ADD19C,0.07874*%
%ADD20C,0.00875*%
%ADD21R,0.05906X0.05906*%
%ADD22C,0.05906*%
%ADD23R,0.04800X0.04800*%
%ADD24C,0.04800*%
%ADD25R,0.02800X0.03900*%
%ADD26R,0.04331X0.03937*%
%ADD27C,0.01969*%
%ADD28C,0.05000*%
%ADD29R,0.05000X0.02200*%
%ADD30R,0.07480X0.05118*%
%ADD31R,0.09449X0.07087*%
%ADD32R,0.05512X0.01575*%
%ADD33R,0.07480X0.07874*%
%ADD34R,0.07480X0.08661*%
%ADD35R,0.05512X0.07087*%
%ADD36R,0.07480X0.05512*%
%ADD37R,0.05906X0.03150*%
%ADD38C,0.01200*%
%ADD39C,0.01800*%
%ADD40C,0.00500*%
%ADD41C,0.16500*%
D10*
X0114361Y0120159D03*
X0120267Y0120159D03*
X0126172Y0120159D03*
X0126172Y0131576D03*
X0120267Y0131576D03*
X0114361Y0131576D03*
D11*
X0114361Y0125868D03*
D12*
X0143067Y0129668D03*
X0147467Y0129668D03*
X0147467Y0159668D03*
X0143067Y0159668D03*
X0182667Y0180368D03*
X0187067Y0180368D03*
X0192267Y0185168D03*
X0196667Y0185168D03*
X0203667Y0180368D03*
X0208067Y0180368D03*
X0237867Y0192368D03*
X0242267Y0192368D03*
X0242267Y0198368D03*
X0237867Y0198368D03*
X0221267Y0202568D03*
X0216867Y0202568D03*
X0196067Y0221168D03*
X0191667Y0221168D03*
X0257667Y0219968D03*
X0262067Y0219968D03*
X0262067Y0214568D03*
X0257667Y0214568D03*
X0257667Y0208568D03*
X0262067Y0208568D03*
X0262067Y0202568D03*
X0257667Y0202568D03*
X0257667Y0195968D03*
X0262067Y0195968D03*
X0264867Y0175818D03*
X0269267Y0175818D03*
X0275617Y0161418D03*
X0280017Y0161418D03*
X0269317Y0128218D03*
X0264917Y0128218D03*
X0274417Y0123818D03*
X0278817Y0123818D03*
X0278817Y0117368D03*
X0274417Y0117368D03*
X0266967Y0091518D03*
X0262567Y0091518D03*
X0147117Y0091368D03*
X0142717Y0091368D03*
X0135217Y0091668D03*
X0130817Y0091668D03*
X0141567Y0029468D03*
X0145967Y0029468D03*
X0109067Y0204368D03*
X0104667Y0204368D03*
X0097067Y0221168D03*
X0092667Y0221168D03*
D13*
X0118923Y0219968D03*
X0126010Y0219968D03*
X0124810Y0189968D03*
X0117723Y0189968D03*
D14*
X0078067Y0194368D03*
X0078067Y0198768D03*
X0077467Y0189168D03*
X0077467Y0184768D03*
X0199767Y0198568D03*
X0199767Y0202968D03*
X0205267Y0202968D03*
X0205267Y0198568D03*
X0211267Y0198568D03*
X0211267Y0202968D03*
X0208867Y0192168D03*
X0208867Y0187768D03*
X0202867Y0187768D03*
X0202867Y0192168D03*
X0275317Y0175318D03*
X0275317Y0170918D03*
X0325867Y0133368D03*
X0325867Y0128968D03*
X0331267Y0128968D03*
X0331267Y0133368D03*
X0256367Y0023418D03*
X0256367Y0019018D03*
X0243467Y0018268D03*
X0243467Y0022668D03*
X0234667Y0023718D03*
X0234667Y0019318D03*
X0222117Y0018718D03*
X0222117Y0023118D03*
X0215517Y0023118D03*
X0215517Y0018718D03*
X0206067Y0017368D03*
X0206067Y0021768D03*
X0192067Y0021768D03*
X0185967Y0022368D03*
X0185967Y0017968D03*
X0192067Y0017368D03*
X0179367Y0017968D03*
X0179367Y0022368D03*
X0173667Y0022368D03*
X0173667Y0017968D03*
X0095917Y0060018D03*
X0095917Y0064418D03*
X0067667Y0067868D03*
X0067667Y0072268D03*
D15*
X0089317Y0066211D03*
X0089317Y0059124D03*
D16*
X0326973Y0058170D03*
X0326973Y0060729D03*
X0326973Y0063288D03*
X0326973Y0065847D03*
X0326973Y0068406D03*
X0326973Y0070965D03*
X0326973Y0073524D03*
X0326973Y0076083D03*
X0326973Y0078643D03*
X0355760Y0078643D03*
X0355760Y0076083D03*
X0355760Y0073524D03*
X0355760Y0070965D03*
X0355760Y0068406D03*
X0355760Y0065847D03*
X0355760Y0063288D03*
X0355760Y0060729D03*
X0355760Y0058170D03*
X0355760Y0055611D03*
X0355760Y0053052D03*
X0355760Y0050493D03*
X0326973Y0050493D03*
X0326973Y0053052D03*
X0326973Y0055611D03*
X0326923Y0142093D03*
X0326923Y0144652D03*
X0326923Y0147211D03*
X0326923Y0149770D03*
X0326923Y0152329D03*
X0326923Y0154888D03*
X0326923Y0157447D03*
X0326923Y0160006D03*
X0326923Y0162565D03*
X0326923Y0165124D03*
X0326923Y0167683D03*
X0326923Y0170243D03*
X0355710Y0170243D03*
X0355710Y0167683D03*
X0355710Y0165124D03*
X0355710Y0162565D03*
X0355710Y0160006D03*
X0355710Y0157447D03*
X0355710Y0154888D03*
X0355710Y0152329D03*
X0355710Y0149770D03*
X0355710Y0147211D03*
X0355710Y0144652D03*
X0355710Y0142093D03*
D17*
X0065891Y0059547D02*
X0060281Y0059547D01*
X0060281Y0049705D02*
X0065891Y0049705D01*
X0065891Y0041831D02*
X0060281Y0041831D01*
X0060281Y0031988D02*
X0065891Y0031988D01*
D18*
X0052417Y0019902D03*
X0052417Y0071634D03*
D19*
X0048780Y0183670D02*
X0056654Y0183670D01*
X0064921Y0198631D02*
X0064921Y0206505D01*
X0040906Y0206505D02*
X0040906Y0198631D01*
D20*
X0072704Y0060781D02*
X0075330Y0060781D01*
X0075330Y0058155D01*
X0072704Y0058155D01*
X0072704Y0060781D01*
X0072704Y0059029D02*
X0075330Y0059029D01*
X0075330Y0059903D02*
X0072704Y0059903D01*
X0072704Y0060777D02*
X0075330Y0060777D01*
X0078704Y0060781D02*
X0081330Y0060781D01*
X0081330Y0058155D01*
X0078704Y0058155D01*
X0078704Y0060781D01*
X0078704Y0059029D02*
X0081330Y0059029D01*
X0081330Y0059903D02*
X0078704Y0059903D01*
X0078704Y0060777D02*
X0081330Y0060777D01*
X0081104Y0039281D02*
X0083730Y0039281D01*
X0083730Y0036655D01*
X0081104Y0036655D01*
X0081104Y0039281D01*
X0081104Y0037529D02*
X0083730Y0037529D01*
X0083730Y0038403D02*
X0081104Y0038403D01*
X0081104Y0039277D02*
X0083730Y0039277D01*
X0077730Y0039281D02*
X0075104Y0039281D01*
X0077730Y0039281D02*
X0077730Y0036655D01*
X0075104Y0036655D01*
X0075104Y0039281D01*
X0075104Y0037529D02*
X0077730Y0037529D01*
X0077730Y0038403D02*
X0075104Y0038403D01*
X0075104Y0039277D02*
X0077730Y0039277D01*
D21*
X0290767Y0102068D03*
X0211567Y0211568D03*
D22*
X0201567Y0211568D03*
X0191567Y0211568D03*
X0290767Y0172068D03*
X0300767Y0172068D03*
X0310767Y0172068D03*
X0310767Y0162068D03*
X0300767Y0162068D03*
X0290767Y0162068D03*
X0290767Y0152068D03*
X0300767Y0152068D03*
X0310767Y0152068D03*
X0310767Y0142068D03*
X0300767Y0142068D03*
X0290767Y0142068D03*
X0290767Y0132068D03*
X0300767Y0132068D03*
X0310767Y0132068D03*
X0310767Y0122068D03*
X0300767Y0122068D03*
X0290767Y0122068D03*
X0290767Y0112068D03*
X0300767Y0112068D03*
X0310767Y0112068D03*
X0310767Y0102068D03*
X0300767Y0102068D03*
D23*
X0338717Y0109068D03*
X0354917Y0109068D03*
X0354467Y0132318D03*
X0338267Y0132318D03*
D24*
X0338267Y0126418D03*
X0354467Y0126418D03*
X0354917Y0103168D03*
X0338717Y0103168D03*
D25*
X0193417Y0193518D03*
X0189717Y0193518D03*
X0186017Y0193518D03*
X0186017Y0202918D03*
X0189717Y0202918D03*
X0193417Y0202918D03*
D26*
X0110813Y0190568D03*
X0104120Y0190568D03*
D27*
X0158517Y0129268D03*
X0163517Y0129268D03*
X0168517Y0129268D03*
X0173517Y0129268D03*
X0178517Y0129268D03*
X0183517Y0129268D03*
X0188517Y0129268D03*
X0193517Y0129268D03*
X0198517Y0129268D03*
X0203517Y0129268D03*
X0208517Y0129268D03*
X0213517Y0129268D03*
X0218517Y0129268D03*
X0223517Y0129268D03*
X0228517Y0129268D03*
X0233517Y0129268D03*
X0238517Y0129268D03*
X0243517Y0129268D03*
X0248517Y0129268D03*
X0253517Y0129268D03*
X0253517Y0124268D03*
X0248517Y0124268D03*
X0248517Y0119268D03*
X0253517Y0119268D03*
X0253517Y0114268D03*
X0248517Y0114268D03*
X0248517Y0109268D03*
X0253517Y0109268D03*
X0253517Y0104268D03*
X0248517Y0104268D03*
X0248517Y0099268D03*
X0253517Y0099268D03*
X0253517Y0094268D03*
X0248517Y0094268D03*
X0248517Y0089268D03*
X0253517Y0089268D03*
X0253517Y0084268D03*
X0248517Y0084268D03*
X0248517Y0079268D03*
X0253517Y0079268D03*
X0253517Y0074268D03*
X0248517Y0074268D03*
X0248517Y0069268D03*
X0253517Y0069268D03*
X0253517Y0064268D03*
X0248517Y0064268D03*
X0248517Y0059268D03*
X0253517Y0059268D03*
X0253517Y0054268D03*
X0248517Y0054268D03*
X0248517Y0049268D03*
X0253517Y0049268D03*
X0253517Y0044268D03*
X0248517Y0044268D03*
X0243517Y0044268D03*
X0238517Y0044268D03*
X0233517Y0044268D03*
X0233517Y0049268D03*
X0238517Y0049268D03*
X0243517Y0049268D03*
X0243517Y0054268D03*
X0238517Y0054268D03*
X0233517Y0054268D03*
X0233517Y0059268D03*
X0238517Y0059268D03*
X0243517Y0059268D03*
X0243517Y0064268D03*
X0238517Y0064268D03*
X0233517Y0064268D03*
X0233517Y0069268D03*
X0238517Y0069268D03*
X0243517Y0069268D03*
X0243517Y0074268D03*
X0238517Y0074268D03*
X0233517Y0074268D03*
X0228517Y0074268D03*
X0223517Y0074268D03*
X0218517Y0074268D03*
X0218517Y0069268D03*
X0223517Y0069268D03*
X0228517Y0069268D03*
X0228517Y0064268D03*
X0223517Y0064268D03*
X0218517Y0064268D03*
X0218517Y0059268D03*
X0223517Y0059268D03*
X0228517Y0059268D03*
X0228517Y0054268D03*
X0223517Y0054268D03*
X0218517Y0054268D03*
X0218517Y0049268D03*
X0223517Y0049268D03*
X0228517Y0049268D03*
X0228517Y0044268D03*
X0223517Y0044268D03*
X0218517Y0044268D03*
X0213517Y0044268D03*
X0208517Y0044268D03*
X0208517Y0049268D03*
X0213517Y0049268D03*
X0213517Y0054268D03*
X0208517Y0054268D03*
X0208517Y0059268D03*
X0213517Y0059268D03*
X0213517Y0064268D03*
X0208517Y0064268D03*
X0208517Y0069268D03*
X0213517Y0069268D03*
X0213517Y0074268D03*
X0208517Y0074268D03*
X0203517Y0074268D03*
X0198517Y0074268D03*
X0193517Y0074268D03*
X0193517Y0069268D03*
X0198517Y0069268D03*
X0203517Y0069268D03*
X0203517Y0064268D03*
X0198517Y0064268D03*
X0193517Y0064268D03*
X0193517Y0059268D03*
X0198517Y0059268D03*
X0203517Y0059268D03*
X0203517Y0054268D03*
X0198517Y0054268D03*
X0193517Y0054268D03*
X0193517Y0049268D03*
X0198517Y0049268D03*
X0203517Y0049268D03*
X0203517Y0044268D03*
X0198517Y0044268D03*
X0193517Y0044268D03*
X0188517Y0044268D03*
X0183517Y0044268D03*
X0178517Y0044268D03*
X0178517Y0049268D03*
X0183517Y0049268D03*
X0188517Y0049268D03*
X0188517Y0054268D03*
X0183517Y0054268D03*
X0178517Y0054268D03*
X0178517Y0059268D03*
X0183517Y0059268D03*
X0188517Y0059268D03*
X0188517Y0064268D03*
X0183517Y0064268D03*
X0178517Y0064268D03*
X0178517Y0069268D03*
X0183517Y0069268D03*
X0188517Y0069268D03*
X0188517Y0074268D03*
X0183517Y0074268D03*
X0178517Y0074268D03*
X0173517Y0074268D03*
X0168517Y0074268D03*
X0168517Y0069268D03*
X0173517Y0069268D03*
X0173517Y0064268D03*
X0168517Y0064268D03*
X0168517Y0059268D03*
X0173517Y0059268D03*
X0173517Y0054268D03*
X0168517Y0054268D03*
X0168517Y0049268D03*
X0173517Y0049268D03*
X0173517Y0044268D03*
X0168517Y0044268D03*
X0163517Y0044268D03*
X0158517Y0044268D03*
X0158517Y0049268D03*
X0163517Y0049268D03*
X0163517Y0054268D03*
X0158517Y0054268D03*
X0158517Y0059268D03*
X0163517Y0059268D03*
X0163517Y0064268D03*
X0158517Y0064268D03*
X0158517Y0069268D03*
X0163517Y0069268D03*
X0163517Y0074268D03*
X0158517Y0074268D03*
X0158517Y0079268D03*
X0163517Y0079268D03*
X0168517Y0079268D03*
X0173517Y0079268D03*
X0178517Y0079268D03*
X0183517Y0079268D03*
X0188517Y0079268D03*
X0193517Y0079268D03*
X0198517Y0079268D03*
X0203517Y0079268D03*
X0208517Y0079268D03*
X0213517Y0079268D03*
X0218517Y0079268D03*
X0223517Y0079268D03*
X0228517Y0079268D03*
X0233517Y0079268D03*
X0238517Y0079268D03*
X0243517Y0079268D03*
X0243517Y0084268D03*
X0238517Y0084268D03*
X0233517Y0084268D03*
X0233517Y0089268D03*
X0238517Y0089268D03*
X0243517Y0089268D03*
X0243517Y0094268D03*
X0238517Y0094268D03*
X0233517Y0094268D03*
X0233517Y0099268D03*
X0238517Y0099268D03*
X0243517Y0099268D03*
X0243517Y0104268D03*
X0238517Y0104268D03*
X0233517Y0104268D03*
X0228517Y0104268D03*
X0223517Y0104268D03*
X0218517Y0104268D03*
X0218517Y0099268D03*
X0223517Y0099268D03*
X0228517Y0099268D03*
X0228517Y0094268D03*
X0223517Y0094268D03*
X0218517Y0094268D03*
X0218517Y0089268D03*
X0223517Y0089268D03*
X0228517Y0089268D03*
X0228517Y0084268D03*
X0223517Y0084268D03*
X0218517Y0084268D03*
X0213517Y0084268D03*
X0208517Y0084268D03*
X0208517Y0089268D03*
X0213517Y0089268D03*
X0213517Y0094268D03*
X0208517Y0094268D03*
X0208517Y0099268D03*
X0213517Y0099268D03*
X0213517Y0104268D03*
X0208517Y0104268D03*
X0203517Y0104268D03*
X0198517Y0104268D03*
X0193517Y0104268D03*
X0193517Y0099268D03*
X0198517Y0099268D03*
X0203517Y0099268D03*
X0203517Y0094268D03*
X0198517Y0094268D03*
X0193517Y0094268D03*
X0193517Y0089268D03*
X0198517Y0089268D03*
X0203517Y0089268D03*
X0203517Y0084268D03*
X0198517Y0084268D03*
X0193517Y0084268D03*
X0188517Y0084268D03*
X0183517Y0084268D03*
X0178517Y0084268D03*
X0178517Y0089268D03*
X0183517Y0089268D03*
X0188517Y0089268D03*
X0188517Y0094268D03*
X0183517Y0094268D03*
X0178517Y0094268D03*
X0178517Y0099268D03*
X0183517Y0099268D03*
X0188517Y0099268D03*
X0188517Y0104268D03*
X0183517Y0104268D03*
X0178517Y0104268D03*
X0173517Y0104268D03*
X0168517Y0104268D03*
X0168517Y0099268D03*
X0173517Y0099268D03*
X0173517Y0094268D03*
X0168517Y0094268D03*
X0168517Y0089268D03*
X0173517Y0089268D03*
X0173517Y0084268D03*
X0168517Y0084268D03*
X0163517Y0084268D03*
X0158517Y0084268D03*
X0158517Y0089268D03*
X0163517Y0089268D03*
X0163517Y0094268D03*
X0158517Y0094268D03*
X0158517Y0099268D03*
X0163517Y0099268D03*
X0163517Y0104268D03*
X0158517Y0104268D03*
X0158517Y0109268D03*
X0163517Y0109268D03*
X0168517Y0109268D03*
X0173517Y0109268D03*
X0178517Y0109268D03*
X0183517Y0109268D03*
X0188517Y0109268D03*
X0193517Y0109268D03*
X0198517Y0109268D03*
X0203517Y0109268D03*
X0208517Y0109268D03*
X0213517Y0109268D03*
X0218517Y0109268D03*
X0223517Y0109268D03*
X0228517Y0109268D03*
X0233517Y0109268D03*
X0238517Y0109268D03*
X0243517Y0109268D03*
X0243517Y0114268D03*
X0238517Y0114268D03*
X0233517Y0114268D03*
X0233517Y0119268D03*
X0238517Y0119268D03*
X0243517Y0119268D03*
X0243517Y0124268D03*
X0238517Y0124268D03*
X0233517Y0124268D03*
X0228517Y0124268D03*
X0223517Y0124268D03*
X0218517Y0124268D03*
X0218517Y0119268D03*
X0223517Y0119268D03*
X0228517Y0119268D03*
X0228517Y0114268D03*
X0223517Y0114268D03*
X0218517Y0114268D03*
X0213517Y0114268D03*
X0208517Y0114268D03*
X0208517Y0119268D03*
X0213517Y0119268D03*
X0213517Y0124268D03*
X0208517Y0124268D03*
X0203517Y0124268D03*
X0198517Y0124268D03*
X0193517Y0124268D03*
X0193517Y0119268D03*
X0198517Y0119268D03*
X0203517Y0119268D03*
X0203517Y0114268D03*
X0198517Y0114268D03*
X0193517Y0114268D03*
X0188517Y0114268D03*
X0183517Y0114268D03*
X0178517Y0114268D03*
X0178517Y0119268D03*
X0183517Y0119268D03*
X0188517Y0119268D03*
X0188517Y0124268D03*
X0183517Y0124268D03*
X0178517Y0124268D03*
X0173517Y0124268D03*
X0168517Y0124268D03*
X0168517Y0119268D03*
X0173517Y0119268D03*
X0173517Y0114268D03*
X0168517Y0114268D03*
X0163517Y0114268D03*
X0158517Y0114268D03*
X0158517Y0119268D03*
X0163517Y0119268D03*
X0163517Y0124268D03*
X0158517Y0124268D03*
X0158517Y0039268D03*
X0163517Y0039268D03*
X0168517Y0039268D03*
X0173517Y0039268D03*
X0178517Y0039268D03*
X0183517Y0039268D03*
X0188517Y0039268D03*
X0193517Y0039268D03*
X0198517Y0039268D03*
X0203517Y0039268D03*
X0208517Y0039268D03*
X0213517Y0039268D03*
X0218517Y0039268D03*
X0223517Y0039268D03*
X0228517Y0039268D03*
X0233517Y0039268D03*
X0238517Y0039268D03*
X0243517Y0039268D03*
X0248517Y0039268D03*
X0253517Y0039268D03*
X0253517Y0034268D03*
X0248517Y0034268D03*
X0243517Y0034268D03*
X0238517Y0034268D03*
X0233517Y0034268D03*
X0228517Y0034268D03*
X0223517Y0034268D03*
X0218517Y0034268D03*
X0213517Y0034268D03*
X0208517Y0034268D03*
X0203517Y0034268D03*
X0198517Y0034268D03*
X0193517Y0034268D03*
X0188517Y0034268D03*
X0183517Y0034268D03*
X0178517Y0034268D03*
X0173517Y0034268D03*
X0168517Y0034268D03*
X0163517Y0034268D03*
X0158517Y0034268D03*
D28*
X0151167Y0022168D03*
X0140967Y0022368D03*
X0199767Y0026368D03*
X0249967Y0026568D03*
X0147667Y0168368D03*
X0156067Y0185768D03*
X0195517Y0178568D03*
X0242167Y0178918D03*
X0267667Y0189118D03*
X0275467Y0187918D03*
X0271567Y0181918D03*
X0280117Y0180968D03*
X0286867Y0186718D03*
D29*
X0175317Y0185968D03*
X0175317Y0182268D03*
X0175317Y0178568D03*
X0165117Y0178568D03*
X0165117Y0185968D03*
D30*
X0145967Y0084468D03*
X0133368Y0084468D03*
X0133368Y0062814D03*
X0145967Y0062814D03*
D31*
X0145267Y0137207D03*
X0145267Y0152168D03*
D32*
X0041537Y0154850D03*
X0041537Y0157409D03*
X0041537Y0159968D03*
X0041537Y0162527D03*
X0041537Y0165086D03*
D33*
X0030317Y0164889D03*
X0030317Y0155046D03*
D34*
X0030317Y0144220D03*
X0030317Y0175716D03*
D35*
X0086092Y0113080D03*
X0086092Y0090639D03*
D36*
X0034320Y0084339D03*
X0030383Y0136111D03*
D37*
X0045541Y0117765D03*
X0047115Y0113434D03*
X0045541Y0109103D03*
X0044753Y0104772D03*
X0045541Y0100442D03*
X0044753Y0096111D03*
X0045541Y0091780D03*
X0045541Y0087450D03*
D38*
X0034767Y0084668D02*
X0034320Y0084339D01*
X0034767Y0084043D01*
X0034767Y0060918D01*
X0052267Y0060918D01*
X0052267Y0020293D01*
X0052417Y0019902D01*
X0063086Y0031988D02*
X0063517Y0032168D01*
X0063517Y0037793D01*
X0076017Y0037793D01*
X0076417Y0037968D01*
X0082417Y0037968D02*
X0082892Y0037793D01*
X0094142Y0037793D01*
X0094142Y0034043D01*
X0096642Y0031543D01*
X0099767Y0031543D01*
X0099767Y0060293D01*
X0096017Y0064043D01*
X0095917Y0064418D01*
X0096017Y0064668D01*
X0096017Y0095293D01*
X0095392Y0095293D01*
X0096017Y0095293D02*
X0096017Y0110918D01*
X0092892Y0114043D01*
X0086642Y0102168D02*
X0080392Y0095918D01*
X0080392Y0059668D01*
X0080017Y0059468D01*
X0081017Y0059668D01*
X0089142Y0059668D01*
X0089317Y0059124D01*
X0089767Y0059668D01*
X0095392Y0059668D01*
X0095917Y0060018D01*
X0096017Y0059668D01*
X0096017Y0035293D01*
X0097267Y0034043D01*
X0074017Y0059468D02*
X0073517Y0059668D01*
X0063517Y0059668D01*
X0063086Y0059547D01*
X0052267Y0060918D02*
X0052267Y0071543D01*
X0052417Y0071634D01*
X0061642Y0068418D02*
X0067267Y0068418D01*
X0067667Y0067868D01*
X0089317Y0066211D02*
X0089767Y0065918D01*
X0089767Y0064668D01*
X0095392Y0064668D01*
X0095917Y0064418D01*
X0141642Y0032168D02*
X0141642Y0029668D01*
X0141567Y0029468D01*
X0145967Y0029468D02*
X0146017Y0029668D01*
X0148517Y0032168D01*
X0148517Y0035918D01*
X0152892Y0037168D02*
X0153517Y0036543D01*
X0152892Y0037168D02*
X0152892Y0086543D01*
X0152267Y0087168D01*
X0152267Y0124668D01*
X0134767Y0124668D02*
X0134767Y0113418D01*
X0132892Y0111543D01*
X0130392Y0109668D02*
X0130392Y0114043D01*
X0128517Y0115293D02*
X0127892Y0114668D01*
X0127892Y0109043D01*
X0134767Y0102168D01*
X0134767Y0100918D01*
X0134767Y0105293D02*
X0130392Y0109668D01*
X0128517Y0115293D02*
X0128517Y0127168D01*
X0132267Y0127168D01*
X0134767Y0124668D02*
X0134767Y0153418D01*
X0134767Y0173418D01*
X0139142Y0177793D01*
X0125392Y0190293D02*
X0124810Y0189968D01*
X0125392Y0190293D02*
X0125392Y0215918D01*
X0131017Y0215918D01*
X0145392Y0215918D01*
X0169142Y0192168D01*
X0169142Y0182793D01*
X0170392Y0182793D01*
X0170392Y0179668D01*
X0170392Y0142168D01*
X0167892Y0139668D01*
X0195392Y0135293D02*
X0195392Y0151543D01*
X0202892Y0149668D02*
X0202892Y0139043D01*
X0229767Y0143418D02*
X0229767Y0158418D01*
X0252892Y0184668D02*
X0252892Y0191543D01*
X0257267Y0195918D01*
X0257667Y0195968D01*
X0257267Y0196543D01*
X0254767Y0199043D01*
X0254767Y0209668D01*
X0257267Y0212168D01*
X0261642Y0212168D01*
X0261642Y0214043D01*
X0262067Y0214568D01*
X0262267Y0214668D01*
X0262267Y0219668D01*
X0262067Y0219968D01*
X0237867Y0198368D02*
X0237892Y0197793D01*
X0239767Y0195918D01*
X0237867Y0198368D02*
X0237267Y0198418D01*
X0228517Y0207168D01*
X0228517Y0207793D01*
X0223517Y0207793D01*
X0221017Y0207793D01*
X0219142Y0205918D01*
X0219142Y0204668D01*
X0217267Y0202793D01*
X0216867Y0202568D01*
X0216642Y0202168D01*
X0216642Y0200293D01*
X0216017Y0199668D01*
X0196642Y0189668D02*
X0192267Y0185293D01*
X0192267Y0185168D01*
X0192267Y0184668D01*
X0182892Y0184668D01*
X0182892Y0180918D01*
X0182667Y0180368D01*
X0182267Y0180918D01*
X0175392Y0180918D01*
X0175392Y0182168D01*
X0175317Y0182268D01*
X0174767Y0182793D01*
X0170392Y0182793D01*
X0165117Y0178568D02*
X0164767Y0179043D01*
X0163517Y0180293D01*
X0163517Y0181543D01*
X0165117Y0178568D02*
X0165392Y0178418D01*
X0165392Y0176543D01*
X0167892Y0174043D01*
X0167892Y0159668D01*
X0132267Y0137793D02*
X0126642Y0132168D01*
X0126172Y0131576D01*
X0126642Y0131543D01*
X0126642Y0127168D01*
X0128517Y0127168D01*
X0126172Y0131576D02*
X0126017Y0131543D01*
X0120392Y0131543D01*
X0120267Y0131576D01*
X0119767Y0131543D01*
X0119767Y0129043D01*
X0114142Y0129043D02*
X0114142Y0125918D01*
X0114361Y0125868D01*
X0154767Y0087793D02*
X0154767Y0049668D01*
X0158517Y0049668D01*
X0158517Y0049268D01*
X0158517Y0044268D01*
X0161017Y0041543D02*
X0163517Y0044043D01*
X0163517Y0044268D01*
X0163517Y0043418D01*
X0166017Y0040918D01*
X0166017Y0037168D01*
X0168517Y0034668D01*
X0168517Y0034268D01*
X0168517Y0034043D01*
X0173517Y0029043D01*
X0173517Y0022793D01*
X0173667Y0022368D01*
X0174142Y0022793D01*
X0179142Y0022793D01*
X0179367Y0022368D01*
X0179767Y0022793D01*
X0185392Y0022793D01*
X0185967Y0022368D01*
X0186017Y0022168D01*
X0191642Y0022168D01*
X0192067Y0021768D01*
X0192267Y0022168D01*
X0195392Y0025293D01*
X0195392Y0024668D01*
X0201017Y0019043D01*
X0203517Y0019043D01*
X0206017Y0021543D01*
X0206067Y0021768D01*
X0206642Y0021543D01*
X0208517Y0021543D01*
X0211017Y0019043D01*
X0215392Y0019043D01*
X0215517Y0018718D01*
X0216017Y0019043D01*
X0221642Y0019043D01*
X0222117Y0018718D01*
X0222267Y0018418D01*
X0234142Y0018418D01*
X0234142Y0019043D01*
X0234667Y0019318D01*
X0234767Y0019043D01*
X0237267Y0016543D01*
X0242892Y0016543D01*
X0242892Y0017793D01*
X0243467Y0018268D01*
X0243517Y0018418D01*
X0254142Y0018418D01*
X0254142Y0016543D01*
X0254142Y0018418D02*
X0254142Y0024668D01*
X0254454Y0024980D01*
X0256017Y0023418D01*
X0256367Y0023418D01*
X0254454Y0024980D02*
X0254142Y0025293D01*
X0254142Y0030293D01*
X0251017Y0033418D01*
X0251017Y0041543D01*
X0250704Y0041855D01*
X0248517Y0039668D01*
X0248517Y0039268D01*
X0250704Y0041855D02*
X0251954Y0043105D01*
X0252267Y0042793D01*
X0256017Y0042793D01*
X0253517Y0044268D02*
X0253517Y0044668D01*
X0251954Y0043105D01*
X0238517Y0039268D02*
X0238517Y0039043D01*
X0236017Y0039043D01*
X0238517Y0039043D02*
X0238517Y0034268D01*
X0238517Y0031543D01*
X0236017Y0034668D02*
X0233517Y0034668D01*
X0233517Y0034268D01*
X0233517Y0034668D02*
X0228517Y0034668D01*
X0228517Y0034268D01*
X0218517Y0034268D02*
X0218517Y0034668D01*
X0213517Y0034668D01*
X0213517Y0034268D01*
X0213517Y0034043D01*
X0211017Y0031543D01*
X0203517Y0039043D02*
X0203517Y0039268D01*
X0203517Y0039043D02*
X0201017Y0036543D01*
X0196017Y0036543D01*
X0196017Y0030918D01*
X0161017Y0039668D02*
X0161017Y0041543D01*
X0161017Y0039668D02*
X0158517Y0039668D01*
X0158517Y0039268D01*
X0164767Y0071543D02*
X0164767Y0072793D01*
X0163517Y0074043D01*
X0163517Y0074268D01*
X0163517Y0079268D01*
X0208517Y0074668D02*
X0208517Y0074268D01*
X0208517Y0072793D01*
X0209767Y0071543D01*
X0208517Y0074668D02*
X0211017Y0077168D01*
X0211017Y0103418D01*
X0229767Y0091543D02*
X0229767Y0090918D01*
X0228517Y0089668D01*
X0228517Y0089268D01*
X0228517Y0089043D01*
X0226017Y0086543D01*
X0226017Y0073418D01*
X0223517Y0070918D01*
X0223517Y0069268D01*
X0264767Y0089043D02*
X0266642Y0090918D01*
X0266967Y0091518D01*
X0267267Y0091543D01*
X0267267Y0125918D01*
X0269142Y0127793D01*
X0269317Y0128218D01*
X0269767Y0128418D01*
X0269767Y0130918D01*
X0278817Y0123818D02*
X0279142Y0124043D01*
X0279142Y0157793D01*
X0279142Y0161543D01*
X0280017Y0161418D01*
X0279767Y0161543D01*
X0272892Y0168418D01*
X0270392Y0168418D01*
X0270392Y0175293D01*
X0269267Y0175818D01*
X0269767Y0175293D01*
X0270392Y0175293D01*
X0274767Y0175293D01*
X0275317Y0175318D01*
X0310767Y0162068D02*
X0311017Y0161543D01*
X0311017Y0152168D01*
X0310767Y0152068D01*
X0310767Y0142068D02*
X0311017Y0141543D01*
X0311017Y0132168D01*
X0310767Y0132068D01*
X0322267Y0133418D02*
X0322267Y0134043D01*
X0322267Y0133418D02*
X0325392Y0133418D01*
X0325867Y0133368D01*
X0326017Y0133418D01*
X0331017Y0133418D01*
X0331267Y0133368D01*
X0334767Y0119043D02*
X0334767Y0155918D01*
X0334142Y0156543D01*
X0331642Y0154668D02*
X0327267Y0154668D01*
X0326923Y0154888D01*
X0331642Y0154668D02*
X0331642Y0154043D01*
X0326923Y0160006D02*
X0327267Y0160293D01*
X0332267Y0160293D01*
X0350392Y0150293D02*
X0355392Y0150293D01*
X0355710Y0149770D01*
X0356642Y0149668D01*
X0359767Y0149668D01*
X0359767Y0161543D01*
X0356017Y0165293D01*
X0355710Y0165124D01*
X0356017Y0164668D01*
X0356017Y0162793D01*
X0355710Y0162565D01*
X0355710Y0149770D02*
X0356017Y0149668D01*
X0356017Y0147793D01*
X0355710Y0147211D01*
X0334767Y0119043D02*
X0333517Y0117793D01*
X0334142Y0117793D01*
X0334142Y0084668D01*
X0334767Y0084043D01*
X0334142Y0077793D02*
X0327892Y0071543D01*
X0326973Y0070965D01*
X0327267Y0071543D01*
X0327267Y0073418D01*
X0326973Y0073524D01*
X0326642Y0073418D01*
X0325079Y0071855D01*
X0321017Y0075918D01*
X0321017Y0090293D01*
X0310392Y0101543D02*
X0310767Y0102068D01*
X0310392Y0101543D02*
X0302892Y0094043D01*
X0302892Y0090293D01*
X0292892Y0080293D01*
X0303517Y0073418D02*
X0315392Y0073418D01*
X0322892Y0069668D02*
X0325079Y0071855D01*
X0322892Y0069668D02*
X0322892Y0058418D01*
X0321017Y0056543D01*
X0322892Y0058418D02*
X0326642Y0058418D01*
X0326973Y0058170D01*
X0327267Y0057793D01*
X0327267Y0055918D01*
X0326973Y0055611D01*
X0327267Y0055918D02*
X0330704Y0059355D01*
X0331017Y0059043D01*
X0331017Y0049043D01*
X0314767Y0032793D01*
X0314767Y0024043D01*
X0309142Y0018418D01*
X0297267Y0024043D02*
X0297267Y0036543D01*
X0299767Y0039043D01*
X0299767Y0058418D01*
X0303517Y0062168D01*
X0303517Y0062793D01*
X0303517Y0073418D01*
X0301017Y0070293D02*
X0297892Y0067168D01*
X0297892Y0055918D01*
X0278517Y0036543D01*
X0249767Y0027168D02*
X0249967Y0026568D01*
X0249767Y0027168D02*
X0245392Y0031543D01*
X0330704Y0059355D02*
X0332267Y0060918D01*
X0344142Y0060293D02*
X0344142Y0056543D01*
X0344142Y0060293D02*
X0355392Y0060293D01*
X0355760Y0060729D01*
X0355760Y0065847D02*
X0355392Y0065918D01*
X0348517Y0065918D01*
X0279767Y0109043D02*
X0279142Y0109668D01*
X0279142Y0114668D01*
X0279142Y0117168D01*
X0278817Y0117368D01*
X0279142Y0117793D01*
X0279142Y0123418D01*
X0278817Y0123818D01*
X0257267Y0125293D02*
X0257267Y0117168D01*
X0257267Y0125293D02*
X0253517Y0129043D01*
X0253517Y0129268D01*
X0310767Y0122068D02*
X0311017Y0121543D01*
X0311017Y0112168D01*
X0310767Y0112068D01*
X0125392Y0215918D02*
X0125392Y0219668D01*
X0126010Y0219968D01*
X0090392Y0195918D02*
X0087267Y0199043D01*
X0080392Y0199043D01*
X0080392Y0200293D01*
X0079142Y0201543D01*
X0070392Y0201543D01*
X0070392Y0189668D01*
X0077267Y0189668D01*
X0077467Y0189168D01*
X0070392Y0201543D02*
X0070392Y0208418D01*
X0067267Y0211543D01*
X0041017Y0211543D01*
X0041017Y0202793D01*
X0040906Y0202568D01*
X0041017Y0202168D01*
X0052267Y0190918D01*
X0052267Y0184043D01*
X0052717Y0183670D01*
X0052267Y0183418D01*
X0041017Y0172168D01*
X0041017Y0165293D01*
X0041537Y0165086D01*
X0041017Y0165293D02*
X0030392Y0165293D01*
X0030317Y0164889D01*
X0030392Y0164668D01*
X0030392Y0155293D01*
X0030317Y0155046D01*
X0030392Y0154668D01*
X0030392Y0144668D01*
X0030317Y0144220D01*
X0030392Y0144043D01*
X0030392Y0136543D01*
X0030383Y0136111D01*
X0030392Y0135918D01*
X0030392Y0100293D01*
X0034767Y0095918D01*
X0034767Y0084668D01*
X0034767Y0095918D02*
X0044142Y0095918D01*
X0044753Y0096111D01*
X0030392Y0165293D02*
X0030392Y0175293D01*
X0030317Y0175716D01*
D39*
X0056017Y0147793D03*
X0076017Y0145918D03*
X0076017Y0143418D03*
X0080392Y0137168D03*
X0074142Y0157168D03*
X0077267Y0179043D03*
X0074767Y0185293D03*
X0076017Y0192168D03*
X0088517Y0189668D03*
X0094767Y0187168D03*
X0102267Y0187168D03*
X0104767Y0187168D03*
X0099142Y0192793D03*
X0090392Y0195918D03*
X0087267Y0199043D03*
X0113517Y0185293D03*
X0121642Y0185293D03*
X0136017Y0177793D03*
X0139142Y0177793D03*
X0131642Y0167168D03*
X0112892Y0159043D03*
X0134767Y0153418D03*
X0140392Y0146543D03*
X0137267Y0142793D03*
X0132267Y0137793D03*
X0119767Y0129043D03*
X0114142Y0129043D03*
X0109142Y0132168D03*
X0115392Y0134043D03*
X0110392Y0122168D03*
X0116642Y0117793D03*
X0121642Y0117168D03*
X0123517Y0119043D03*
X0130392Y0114043D03*
X0132892Y0111543D03*
X0134142Y0109043D03*
X0134767Y0105293D03*
X0141642Y0108418D03*
X0144142Y0110293D03*
X0142267Y0112168D03*
X0149767Y0114043D03*
X0161642Y0121543D03*
X0161642Y0127168D03*
X0166642Y0127168D03*
X0171017Y0129043D03*
X0157892Y0132168D03*
X0150392Y0129043D03*
X0152267Y0124668D03*
X0144142Y0127168D03*
X0141017Y0127168D03*
X0134767Y0124668D03*
X0132267Y0127168D03*
X0105392Y0109043D03*
X0092892Y0114043D03*
X0096017Y0118418D03*
X0099767Y0117168D03*
X0086642Y0102168D03*
X0095392Y0095293D03*
X0112892Y0084043D03*
X0119142Y0078418D03*
X0121642Y0076543D03*
X0114767Y0070293D03*
X0111017Y0065293D03*
X0098517Y0065293D03*
X0093517Y0070293D03*
X0093517Y0078418D03*
X0098517Y0083418D03*
X0101017Y0082168D03*
X0118517Y0091543D03*
X0121017Y0091543D03*
X0134767Y0100918D03*
X0128517Y0105293D03*
X0146642Y0094043D03*
X0149767Y0093418D03*
X0149767Y0097793D03*
X0156017Y0098418D03*
X0161017Y0101543D03*
X0161017Y0093418D03*
X0156642Y0090918D03*
X0154767Y0087793D03*
X0157267Y0081543D03*
X0159767Y0081543D03*
X0166642Y0085918D03*
X0171642Y0081543D03*
X0179767Y0086543D03*
X0190392Y0081543D03*
X0196017Y0084668D03*
X0201642Y0086543D03*
X0196642Y0090918D03*
X0186017Y0099043D03*
X0184767Y0096543D03*
X0176017Y0099668D03*
X0174767Y0096543D03*
X0186017Y0104043D03*
X0192267Y0106543D03*
X0194767Y0101543D03*
X0181017Y0109668D03*
X0176642Y0111543D03*
X0176017Y0114668D03*
X0171642Y0115918D03*
X0166642Y0115918D03*
X0181642Y0117168D03*
X0186017Y0119043D03*
X0191017Y0124668D03*
X0190392Y0127168D03*
X0192267Y0131543D03*
X0188517Y0132793D03*
X0195392Y0135293D03*
X0197892Y0139043D03*
X0202892Y0139043D03*
X0211017Y0139043D03*
X0216017Y0139043D03*
X0212892Y0142168D03*
X0214142Y0149043D03*
X0211017Y0149043D03*
X0206017Y0149043D03*
X0202892Y0149668D03*
X0195392Y0151543D03*
X0190392Y0151543D03*
X0190392Y0159043D03*
X0188517Y0165918D03*
X0184142Y0171543D03*
X0182892Y0175293D03*
X0179142Y0175918D03*
X0176642Y0170918D03*
X0167892Y0174043D03*
X0170392Y0179668D03*
X0163517Y0181543D03*
X0161017Y0187168D03*
X0156017Y0179668D03*
X0152267Y0192168D03*
X0179767Y0185293D03*
X0187892Y0189668D03*
X0196642Y0189668D03*
X0204142Y0184668D03*
X0209142Y0182793D03*
X0201017Y0180293D03*
X0190392Y0180293D03*
X0202892Y0170918D03*
X0210392Y0171543D03*
X0214142Y0170293D03*
X0218517Y0174668D03*
X0226017Y0172168D03*
X0233517Y0167168D03*
X0237267Y0173418D03*
X0241642Y0168418D03*
X0246017Y0169043D03*
X0259142Y0164043D03*
X0256017Y0153418D03*
X0253517Y0153418D03*
X0248517Y0155293D03*
X0244142Y0149668D03*
X0242892Y0145918D03*
X0229767Y0143418D03*
X0237267Y0135918D03*
X0241017Y0135918D03*
X0246642Y0135918D03*
X0250392Y0130918D03*
X0239767Y0126543D03*
X0235392Y0126543D03*
X0236017Y0129043D03*
X0231642Y0125918D03*
X0227267Y0126543D03*
X0225392Y0121543D03*
X0222267Y0121543D03*
X0222267Y0116543D03*
X0225392Y0115918D03*
X0229767Y0111543D03*
X0231017Y0119668D03*
X0236017Y0119043D03*
X0246642Y0122168D03*
X0251642Y0122168D03*
X0257267Y0117168D03*
X0261017Y0114668D03*
X0251017Y0113418D03*
X0246642Y0105918D03*
X0231642Y0097168D03*
X0229767Y0091543D03*
X0220392Y0092168D03*
X0214767Y0081543D03*
X0214767Y0076543D03*
X0217267Y0076543D03*
X0209767Y0071543D03*
X0206017Y0068418D03*
X0210392Y0066543D03*
X0201017Y0069043D03*
X0206017Y0075293D03*
X0221017Y0064668D03*
X0221017Y0059043D03*
X0221017Y0053418D03*
X0226017Y0055293D03*
X0231017Y0055293D03*
X0236017Y0057168D03*
X0231017Y0059043D03*
X0241017Y0063418D03*
X0241642Y0071543D03*
X0245392Y0071543D03*
X0237267Y0071543D03*
X0226017Y0069668D03*
X0241017Y0079043D03*
X0239767Y0081543D03*
X0250392Y0081543D03*
X0254767Y0091543D03*
X0264767Y0094043D03*
X0264767Y0089043D03*
X0271017Y0093418D03*
X0271017Y0101543D03*
X0276642Y0103418D03*
X0279767Y0109043D03*
X0281642Y0114043D03*
X0279142Y0114668D03*
X0269767Y0114668D03*
X0264767Y0125293D03*
X0262267Y0124043D03*
X0272267Y0125918D03*
X0269767Y0130918D03*
X0263517Y0133418D03*
X0262267Y0137168D03*
X0259767Y0141543D03*
X0267267Y0141543D03*
X0273517Y0140293D03*
X0283517Y0145293D03*
X0279142Y0157793D03*
X0272892Y0161543D03*
X0278517Y0169043D03*
X0272892Y0170918D03*
X0252892Y0184668D03*
X0257267Y0190293D03*
X0259767Y0190293D03*
X0247892Y0192168D03*
X0239767Y0195918D03*
X0236017Y0202793D03*
X0231642Y0210293D03*
X0223517Y0207793D03*
X0221642Y0205293D03*
X0221642Y0199668D03*
X0219142Y0199043D03*
X0216017Y0199668D03*
X0206642Y0195918D03*
X0219142Y0192168D03*
X0224142Y0191543D03*
X0226642Y0191543D03*
X0233517Y0190293D03*
X0231642Y0186543D03*
X0224767Y0180918D03*
X0207892Y0162793D03*
X0218517Y0160918D03*
X0222267Y0157168D03*
X0227892Y0162168D03*
X0229767Y0158418D03*
X0235392Y0158418D03*
X0237267Y0154043D03*
X0230392Y0133418D03*
X0225392Y0133418D03*
X0220392Y0127168D03*
X0216017Y0126543D03*
X0212267Y0126543D03*
X0206017Y0124668D03*
X0200392Y0120918D03*
X0206017Y0120293D03*
X0211017Y0119043D03*
X0214767Y0116543D03*
X0206017Y0113418D03*
X0199767Y0116543D03*
X0201017Y0128418D03*
X0182267Y0139043D03*
X0172892Y0146543D03*
X0180392Y0151543D03*
X0176642Y0159668D03*
X0167892Y0159668D03*
X0151642Y0159043D03*
X0167892Y0139668D03*
X0219767Y0106543D03*
X0211017Y0103418D03*
X0181017Y0077793D03*
X0181017Y0075293D03*
X0181017Y0069043D03*
X0180392Y0066543D03*
X0174767Y0066543D03*
X0171642Y0066543D03*
X0164767Y0071543D03*
X0161642Y0071543D03*
X0161017Y0065293D03*
X0157267Y0076543D03*
X0140392Y0082793D03*
X0136642Y0076543D03*
X0124142Y0067168D03*
X0140392Y0058418D03*
X0150392Y0056543D03*
X0161017Y0053418D03*
X0165392Y0052168D03*
X0169767Y0056543D03*
X0171642Y0052168D03*
X0174767Y0056543D03*
X0176017Y0060293D03*
X0186017Y0064668D03*
X0191017Y0055293D03*
X0192267Y0051543D03*
X0189767Y0051543D03*
X0196017Y0053418D03*
X0201642Y0060918D03*
X0206017Y0060293D03*
X0221017Y0047793D03*
X0226642Y0047168D03*
X0231017Y0043418D03*
X0236017Y0044043D03*
X0235392Y0046543D03*
X0236017Y0049043D03*
X0244767Y0051543D03*
X0246017Y0044668D03*
X0246017Y0039043D03*
X0245392Y0031543D03*
X0240392Y0027168D03*
X0239767Y0022793D03*
X0237892Y0019043D03*
X0234767Y0026543D03*
X0232892Y0030918D03*
X0236017Y0034668D03*
X0238517Y0031543D03*
X0236017Y0039043D03*
X0222267Y0026543D03*
X0225392Y0020918D03*
X0215392Y0026543D03*
X0211017Y0022168D03*
X0209142Y0025918D03*
X0204142Y0025918D03*
X0202892Y0021543D03*
X0209767Y0017168D03*
X0202267Y0015293D03*
X0195392Y0017168D03*
X0188517Y0019043D03*
X0182267Y0019043D03*
X0182267Y0026543D03*
X0180392Y0028418D03*
X0177892Y0030918D03*
X0176017Y0026543D03*
X0185392Y0029668D03*
X0191017Y0029043D03*
X0196017Y0030918D03*
X0191017Y0034668D03*
X0201017Y0034043D03*
X0204767Y0041543D03*
X0211017Y0031543D03*
X0195392Y0025293D03*
X0169767Y0017793D03*
X0158517Y0026543D03*
X0153517Y0036543D03*
X0151017Y0035293D03*
X0148517Y0035918D03*
X0141642Y0032168D03*
X0120392Y0043418D03*
X0122892Y0046543D03*
X0125392Y0046543D03*
X0125392Y0054668D03*
X0097267Y0034043D03*
X0072267Y0062793D03*
X0061642Y0068418D03*
X0061642Y0075918D03*
X0052892Y0080293D03*
X0062267Y0082168D03*
X0071017Y0078418D03*
X0077892Y0078418D03*
X0067892Y0094043D03*
X0052892Y0099668D03*
X0051017Y0104043D03*
X0041642Y0112168D03*
X0049767Y0063418D03*
X0175392Y0047168D03*
X0184767Y0051543D03*
X0248517Y0022793D03*
X0254142Y0016543D03*
X0258517Y0028418D03*
X0266017Y0034043D03*
X0268517Y0034043D03*
X0278517Y0036543D03*
X0289767Y0038418D03*
X0297267Y0036543D03*
X0302892Y0033418D03*
X0299767Y0030293D03*
X0301017Y0025293D03*
X0297267Y0024043D03*
X0309142Y0018418D03*
X0281017Y0023418D03*
X0259767Y0040293D03*
X0256017Y0042793D03*
X0269142Y0047168D03*
X0271017Y0049043D03*
X0272267Y0051543D03*
X0274767Y0053418D03*
X0274767Y0059668D03*
X0278517Y0061543D03*
X0282267Y0055918D03*
X0286642Y0057793D03*
X0281642Y0052793D03*
X0297267Y0046543D03*
X0302892Y0045918D03*
X0316642Y0047793D03*
X0322267Y0046543D03*
X0321017Y0056543D03*
X0314767Y0055918D03*
X0310392Y0060293D03*
X0303517Y0062793D03*
X0302892Y0058418D03*
X0319142Y0066543D03*
X0315392Y0073418D03*
X0303517Y0073418D03*
X0301017Y0070293D03*
X0292892Y0080293D03*
X0286642Y0080918D03*
X0286642Y0078418D03*
X0283517Y0077168D03*
X0274767Y0077168D03*
X0274767Y0084668D03*
X0281017Y0097793D03*
X0296642Y0087168D03*
X0302892Y0094043D03*
X0306642Y0091543D03*
X0314142Y0099043D03*
X0321017Y0090293D03*
X0325392Y0089668D03*
X0317267Y0084043D03*
X0334142Y0077793D03*
X0334767Y0084043D03*
X0339142Y0087793D03*
X0344767Y0089668D03*
X0345392Y0094668D03*
X0339142Y0097793D03*
X0331017Y0095918D03*
X0329142Y0101543D03*
X0342892Y0110918D03*
X0349142Y0103418D03*
X0333517Y0117793D03*
X0316017Y0125293D03*
X0322267Y0134043D03*
X0327267Y0136543D03*
X0337267Y0140293D03*
X0332267Y0142168D03*
X0331642Y0151543D03*
X0331642Y0154043D03*
X0334142Y0156543D03*
X0332267Y0160293D03*
X0331642Y0162793D03*
X0322267Y0166543D03*
X0317892Y0162168D03*
X0342892Y0154668D03*
X0345392Y0154043D03*
X0348517Y0157168D03*
X0351017Y0162793D03*
X0350392Y0150293D03*
X0281642Y0124668D03*
X0348517Y0085293D03*
X0357892Y0080918D03*
X0351017Y0075293D03*
X0351017Y0072793D03*
X0344767Y0072793D03*
X0341017Y0069043D03*
X0348517Y0065918D03*
X0348517Y0057168D03*
X0344142Y0056543D03*
X0341642Y0054668D03*
X0346017Y0048418D03*
X0351017Y0050293D03*
X0356017Y0047793D03*
X0332267Y0060918D03*
X0284767Y0069668D03*
X0280392Y0067793D03*
X0262892Y0055293D03*
X0122892Y0202793D03*
X0131017Y0215918D03*
X0144767Y0213418D03*
X0109142Y0218418D03*
X0094767Y0224043D03*
X0180392Y0217168D03*
X0217892Y0218418D03*
X0222267Y0222793D03*
X0246017Y0205293D03*
X0254142Y0214668D03*
X0254142Y0217168D03*
X0273517Y0208418D03*
X0325392Y0205293D03*
D40*
X0307267Y0223418D01*
X0222267Y0223418D01*
X0222267Y0222793D01*
X0217892Y0218418D02*
X0211642Y0212168D01*
X0211567Y0211568D01*
X0211642Y0211543D01*
X0211642Y0203418D01*
X0211267Y0202968D01*
X0211642Y0202793D01*
X0214142Y0200293D01*
X0214142Y0197793D01*
X0216017Y0197793D01*
X0221017Y0192793D01*
X0221017Y0188418D01*
X0237267Y0188418D01*
X0246017Y0179668D01*
X0246017Y0169043D01*
X0241642Y0168418D02*
X0238517Y0165293D01*
X0248517Y0155293D01*
X0251017Y0153418D02*
X0251017Y0214043D01*
X0254142Y0217168D01*
X0257267Y0220293D01*
X0257667Y0219968D01*
X0256017Y0222168D02*
X0275392Y0222168D01*
X0275392Y0188418D01*
X0275467Y0187918D01*
X0279142Y0186543D02*
X0279142Y0190293D01*
X0287892Y0190293D01*
X0294767Y0183418D01*
X0294767Y0086543D01*
X0286642Y0078418D01*
X0286642Y0080918D02*
X0286642Y0186543D01*
X0286867Y0186718D01*
X0279142Y0186543D02*
X0274767Y0182168D01*
X0271642Y0182168D01*
X0271567Y0181918D01*
X0267267Y0177793D02*
X0267267Y0141543D01*
X0262267Y0137168D02*
X0261642Y0136543D01*
X0261642Y0124668D01*
X0262267Y0124043D01*
X0264767Y0125293D02*
X0264767Y0127793D01*
X0264917Y0128218D01*
X0263517Y0133418D02*
X0264767Y0134668D01*
X0264767Y0175293D01*
X0264867Y0175818D01*
X0267267Y0177793D02*
X0276642Y0177793D01*
X0277267Y0177168D01*
X0277267Y0172793D01*
X0275392Y0170918D01*
X0275317Y0170918D01*
X0272892Y0170918D01*
X0278517Y0169043D02*
X0278517Y0179668D01*
X0279767Y0180918D01*
X0280117Y0180968D01*
X0267667Y0189118D02*
X0267267Y0189043D01*
X0257267Y0179043D01*
X0257267Y0157168D01*
X0253517Y0153418D01*
X0256017Y0153418D02*
X0258517Y0155918D01*
X0258517Y0163418D01*
X0259142Y0164043D01*
X0251017Y0153418D02*
X0261642Y0142793D01*
X0261642Y0140918D01*
X0260392Y0139668D01*
X0260392Y0115293D01*
X0261017Y0114668D01*
X0256642Y0114043D02*
X0253517Y0117168D01*
X0251642Y0117168D01*
X0251642Y0122168D01*
X0246642Y0122168D02*
X0246642Y0135918D01*
X0244767Y0137168D02*
X0241642Y0134043D01*
X0241642Y0083418D01*
X0239767Y0081543D01*
X0241017Y0079043D02*
X0241642Y0078418D01*
X0241642Y0071543D01*
X0245392Y0071543D02*
X0245392Y0061543D01*
X0243517Y0059668D01*
X0243517Y0059268D01*
X0241017Y0062168D02*
X0241017Y0063418D01*
X0241017Y0062168D02*
X0238517Y0059668D01*
X0238517Y0059268D01*
X0236017Y0057168D02*
X0236642Y0056543D01*
X0236642Y0070918D01*
X0237267Y0071543D01*
X0246642Y0070293D02*
X0247267Y0070918D01*
X0247267Y0072793D01*
X0246642Y0073418D01*
X0246642Y0105918D01*
X0250392Y0112793D02*
X0250392Y0081543D01*
X0251642Y0080293D02*
X0253517Y0082168D01*
X0255392Y0082168D01*
X0255392Y0090918D01*
X0254767Y0091543D01*
X0261017Y0089668D02*
X0262267Y0090918D01*
X0262567Y0091518D01*
X0262892Y0091543D01*
X0262892Y0092168D01*
X0264767Y0094043D01*
X0270392Y0092793D02*
X0271017Y0093418D01*
X0270392Y0092793D02*
X0270392Y0049668D01*
X0271017Y0049043D01*
X0269142Y0047168D02*
X0269142Y0099668D01*
X0271017Y0101543D01*
X0276642Y0103418D02*
X0276642Y0160293D01*
X0276017Y0160918D01*
X0275617Y0161418D01*
X0275392Y0161543D01*
X0272892Y0161543D01*
X0283517Y0145293D02*
X0283517Y0077168D01*
X0276642Y0075293D02*
X0276642Y0033418D01*
X0293517Y0016543D01*
X0316642Y0016543D01*
X0316642Y0029668D01*
X0341642Y0054668D01*
X0344142Y0054668D02*
X0348517Y0054668D01*
X0348517Y0057168D01*
X0344142Y0054668D02*
X0317892Y0028418D01*
X0317892Y0014668D01*
X0292267Y0014668D01*
X0267267Y0039668D01*
X0267267Y0050918D01*
X0262892Y0055293D01*
X0261017Y0054668D02*
X0261017Y0089668D01*
X0251642Y0080293D02*
X0251642Y0062793D01*
X0248517Y0059668D01*
X0248517Y0059268D01*
X0253517Y0059268D02*
X0253517Y0059668D01*
X0256642Y0062793D01*
X0256642Y0114043D01*
X0251017Y0113418D02*
X0250392Y0112793D01*
X0236017Y0119043D02*
X0235392Y0118418D01*
X0235392Y0061543D01*
X0233517Y0059668D01*
X0233517Y0059268D01*
X0231017Y0059043D02*
X0231017Y0055293D01*
X0233517Y0054268D02*
X0233517Y0054043D01*
X0236642Y0054043D01*
X0236642Y0053418D01*
X0238517Y0051543D01*
X0241642Y0051543D01*
X0241642Y0029668D01*
X0248517Y0022793D01*
X0243467Y0022668D02*
X0242892Y0022793D01*
X0239767Y0022793D01*
X0237892Y0025918D02*
X0237892Y0019043D01*
X0234667Y0023718D02*
X0234767Y0024043D01*
X0234767Y0026543D01*
X0237892Y0025918D02*
X0232892Y0030918D01*
X0240392Y0027168D02*
X0240392Y0047168D01*
X0238517Y0049043D01*
X0238517Y0049268D01*
X0236017Y0049043D02*
X0233517Y0049043D01*
X0233517Y0049268D01*
X0235392Y0046543D02*
X0233517Y0044668D01*
X0233517Y0044268D01*
X0236017Y0044043D02*
X0238517Y0044043D01*
X0238517Y0044268D01*
X0243517Y0044268D02*
X0243517Y0044668D01*
X0246017Y0044668D01*
X0248517Y0044268D02*
X0248517Y0044043D01*
X0246017Y0041543D01*
X0246017Y0039043D01*
X0259767Y0040293D02*
X0266017Y0034043D01*
X0268517Y0034043D02*
X0253517Y0049043D01*
X0253517Y0049268D01*
X0251642Y0049668D02*
X0251642Y0050293D01*
X0252892Y0051543D01*
X0264767Y0051543D01*
X0264767Y0040293D01*
X0281017Y0024043D01*
X0281017Y0023418D01*
X0289767Y0022168D02*
X0289767Y0038418D01*
X0297267Y0045918D01*
X0297267Y0046543D01*
X0302892Y0045918D02*
X0302892Y0058418D01*
X0304767Y0054668D02*
X0304767Y0032168D01*
X0299142Y0026543D01*
X0299142Y0023418D01*
X0297892Y0022168D01*
X0289767Y0022168D01*
X0301017Y0025293D02*
X0306017Y0030293D01*
X0306017Y0037168D01*
X0316642Y0047793D01*
X0316017Y0052793D02*
X0322267Y0046543D01*
X0326973Y0050493D02*
X0327267Y0050918D01*
X0327267Y0052793D01*
X0326973Y0053052D01*
X0326642Y0053418D01*
X0317267Y0053418D01*
X0317267Y0084043D01*
X0325392Y0089668D02*
X0325392Y0128418D01*
X0325867Y0128968D01*
X0324142Y0127168D02*
X0323517Y0127793D01*
X0323517Y0130293D01*
X0324142Y0130918D01*
X0331017Y0130918D01*
X0331017Y0129043D01*
X0331267Y0128968D01*
X0331017Y0128418D01*
X0331017Y0095918D01*
X0329142Y0101543D02*
X0329142Y0080918D01*
X0327267Y0079043D01*
X0326973Y0078643D01*
X0327267Y0078418D01*
X0327267Y0076543D01*
X0326973Y0076083D01*
X0327267Y0068418D02*
X0326973Y0068406D01*
X0327267Y0067793D01*
X0327267Y0065918D01*
X0326973Y0065847D01*
X0327267Y0063418D02*
X0326973Y0063288D01*
X0327267Y0062793D01*
X0327267Y0060918D01*
X0326973Y0060729D01*
X0327267Y0063418D02*
X0339142Y0063418D01*
X0339142Y0087793D01*
X0344767Y0089668D02*
X0344767Y0083418D01*
X0346642Y0081543D01*
X0346642Y0063418D01*
X0355392Y0063418D01*
X0355760Y0063288D01*
X0356017Y0058418D02*
X0355760Y0058170D01*
X0356017Y0058418D02*
X0358517Y0058418D01*
X0359767Y0059668D01*
X0359767Y0092793D01*
X0349142Y0103418D01*
X0342892Y0097168D02*
X0342892Y0110918D01*
X0338717Y0103168D02*
X0338517Y0102793D01*
X0337267Y0101543D01*
X0337267Y0068418D01*
X0327267Y0068418D01*
X0319142Y0066543D02*
X0319142Y0157168D01*
X0324142Y0162168D01*
X0326642Y0162168D01*
X0326923Y0162565D01*
X0327267Y0162793D01*
X0331642Y0162793D01*
X0326923Y0165124D02*
X0326642Y0164668D01*
X0314767Y0164668D01*
X0314767Y0130293D01*
X0310392Y0125918D01*
X0296642Y0125918D01*
X0296642Y0087168D01*
X0300392Y0082793D02*
X0316017Y0098418D01*
X0316017Y0125293D01*
X0320392Y0123418D02*
X0321642Y0122168D01*
X0324142Y0122168D01*
X0324142Y0127168D01*
X0320392Y0123418D02*
X0320392Y0149668D01*
X0326642Y0149668D01*
X0326923Y0149770D01*
X0327267Y0152168D02*
X0326923Y0152329D01*
X0327267Y0152168D02*
X0331642Y0152168D01*
X0331642Y0151543D01*
X0326923Y0147211D02*
X0326642Y0147168D01*
X0324767Y0147168D01*
X0322892Y0145293D01*
X0322892Y0140918D01*
X0327267Y0136543D01*
X0336642Y0140918D02*
X0336642Y0156543D01*
X0334767Y0158418D01*
X0327267Y0158418D01*
X0327267Y0157793D01*
X0326923Y0157447D01*
X0317892Y0162168D02*
X0317892Y0094668D01*
X0301642Y0078418D01*
X0301642Y0072793D01*
X0298517Y0072793D01*
X0295392Y0069668D01*
X0284767Y0069668D01*
X0280392Y0067793D02*
X0291017Y0078418D01*
X0300392Y0078418D01*
X0300392Y0082793D01*
X0306642Y0091543D02*
X0314142Y0099043D01*
X0301017Y0112168D02*
X0300767Y0112068D01*
X0301017Y0112168D02*
X0301017Y0121543D01*
X0300767Y0122068D01*
X0300767Y0132068D02*
X0301017Y0132168D01*
X0301017Y0141543D01*
X0300767Y0142068D01*
X0300767Y0152068D02*
X0301017Y0152168D01*
X0301017Y0161543D01*
X0300767Y0162068D01*
X0301017Y0162168D01*
X0301017Y0171543D01*
X0300767Y0172068D01*
X0322267Y0166543D02*
X0323517Y0166543D01*
X0324142Y0167168D01*
X0326642Y0167168D01*
X0326923Y0167683D01*
X0326923Y0170243D02*
X0326642Y0170293D01*
X0325392Y0171543D01*
X0325392Y0205293D01*
X0330392Y0202793D02*
X0330392Y0171543D01*
X0347267Y0154668D01*
X0347267Y0091543D01*
X0348517Y0090293D01*
X0348517Y0085293D01*
X0346642Y0083418D02*
X0349142Y0080918D01*
X0349142Y0072168D01*
X0352892Y0068418D01*
X0355392Y0068418D01*
X0355760Y0068406D01*
X0355760Y0070965D02*
X0355392Y0071543D01*
X0351642Y0071543D01*
X0351642Y0072168D01*
X0351017Y0072793D01*
X0352267Y0074043D02*
X0355392Y0074043D01*
X0355760Y0073524D01*
X0355760Y0076083D02*
X0356017Y0076543D01*
X0356017Y0078418D01*
X0355760Y0078643D01*
X0356017Y0079043D01*
X0357892Y0080918D01*
X0352267Y0074043D02*
X0351017Y0075293D01*
X0344767Y0072793D02*
X0341017Y0069043D01*
X0346642Y0083418D02*
X0346642Y0090293D01*
X0339142Y0097793D01*
X0342892Y0097168D02*
X0345392Y0094668D01*
X0338267Y0126418D02*
X0338517Y0126543D01*
X0341642Y0129668D01*
X0341642Y0150293D01*
X0345392Y0154043D01*
X0342892Y0154668D02*
X0339142Y0150918D01*
X0339142Y0133418D01*
X0338517Y0132793D01*
X0338267Y0132318D01*
X0348517Y0138418D02*
X0354142Y0132793D01*
X0354467Y0132318D01*
X0357892Y0129668D02*
X0354767Y0126543D01*
X0354467Y0126418D01*
X0357892Y0129668D02*
X0357892Y0139668D01*
X0356017Y0141543D01*
X0355710Y0142093D01*
X0356017Y0142168D01*
X0356017Y0144043D01*
X0355710Y0144652D01*
X0355392Y0152168D02*
X0348517Y0152168D01*
X0348517Y0138418D01*
X0337267Y0140293D02*
X0336642Y0140918D01*
X0332267Y0142168D02*
X0327267Y0142168D01*
X0326923Y0142093D01*
X0327267Y0142168D02*
X0327267Y0144043D01*
X0326923Y0144652D01*
X0348517Y0157168D02*
X0355392Y0157168D01*
X0355710Y0157447D01*
X0356017Y0157793D01*
X0356017Y0159668D01*
X0355710Y0160006D01*
X0355710Y0154888D02*
X0356017Y0154668D01*
X0356017Y0152793D01*
X0355710Y0152329D01*
X0355392Y0152168D01*
X0351017Y0162793D02*
X0351017Y0167168D01*
X0355392Y0167168D01*
X0355710Y0167683D01*
X0356017Y0167793D01*
X0356017Y0169668D01*
X0355710Y0170243D01*
X0330392Y0202793D02*
X0317892Y0215293D01*
X0317892Y0224668D01*
X0118517Y0224668D01*
X0115392Y0221543D01*
X0115392Y0159043D01*
X0112267Y0155918D01*
X0112267Y0118418D01*
X0116642Y0114043D01*
X0116642Y0055293D01*
X0125392Y0046543D01*
X0127267Y0045918D02*
X0111017Y0029668D01*
X0087892Y0029668D01*
X0082267Y0035293D01*
X0079142Y0035293D01*
X0079142Y0041543D01*
X0064767Y0055918D01*
X0056642Y0055918D01*
X0056642Y0065293D01*
X0059767Y0068418D01*
X0059767Y0080293D01*
X0049767Y0090293D01*
X0049767Y0097168D01*
X0046017Y0100918D01*
X0045541Y0100442D01*
X0044767Y0104668D02*
X0044753Y0104772D01*
X0044767Y0104668D02*
X0051017Y0104668D01*
X0051017Y0104043D01*
X0052892Y0104668D02*
X0048517Y0109043D01*
X0046017Y0109043D01*
X0045541Y0109103D01*
X0047115Y0113434D02*
X0047267Y0113418D01*
X0054767Y0105918D01*
X0054767Y0087168D01*
X0061017Y0080918D01*
X0061017Y0076543D01*
X0061642Y0075918D01*
X0062267Y0077793D02*
X0062267Y0082168D01*
X0062267Y0077793D02*
X0067267Y0072793D01*
X0067667Y0072268D01*
X0071017Y0078418D02*
X0056017Y0093418D01*
X0056017Y0110293D01*
X0049142Y0117168D01*
X0046017Y0117168D01*
X0045541Y0117765D01*
X0041642Y0112168D02*
X0041642Y0154668D01*
X0041537Y0154850D01*
X0041642Y0157168D02*
X0041537Y0157409D01*
X0041642Y0157168D02*
X0044142Y0157168D01*
X0057267Y0144043D01*
X0057267Y0104668D01*
X0067892Y0094043D01*
X0082267Y0095293D02*
X0088517Y0101543D01*
X0088517Y0102793D01*
X0076017Y0115293D01*
X0076017Y0143418D01*
X0076017Y0145918D02*
X0097892Y0124043D01*
X0097892Y0099043D01*
X0112892Y0084043D01*
X0114767Y0084668D02*
X0114767Y0070293D01*
X0112892Y0070293D02*
X0101017Y0082168D01*
X0098517Y0083418D02*
X0098517Y0077793D01*
X0111017Y0065293D01*
X0112892Y0070293D02*
X0112892Y0056543D01*
X0122892Y0046543D01*
X0120392Y0043418D02*
X0098517Y0065293D01*
X0093517Y0070293D02*
X0082267Y0081543D01*
X0082267Y0095293D01*
X0086092Y0090639D02*
X0086642Y0090293D01*
X0086642Y0085293D01*
X0093517Y0078418D01*
X0077892Y0078418D02*
X0074142Y0082168D01*
X0074142Y0157168D01*
X0056017Y0147793D02*
X0044142Y0159668D01*
X0041642Y0159668D01*
X0041537Y0159968D01*
X0041642Y0162168D02*
X0041537Y0162527D01*
X0041642Y0162168D02*
X0044142Y0162168D01*
X0072892Y0133418D01*
X0072892Y0063418D01*
X0072267Y0062793D01*
X0049767Y0063418D02*
X0041642Y0071543D01*
X0041642Y0089668D01*
X0043517Y0091543D01*
X0045392Y0091543D01*
X0045541Y0091780D01*
X0045541Y0087450D02*
X0046017Y0087168D01*
X0052892Y0080293D01*
X0052892Y0099668D02*
X0052892Y0104668D01*
X0080392Y0137168D02*
X0096017Y0121543D01*
X0096017Y0118418D01*
X0099767Y0117168D02*
X0099767Y0114668D01*
X0105392Y0109043D01*
X0114767Y0119668D02*
X0116642Y0117793D01*
X0114767Y0119668D02*
X0114361Y0120159D01*
X0117892Y0122168D02*
X0119767Y0120293D01*
X0120267Y0120159D01*
X0120392Y0119668D01*
X0120392Y0118418D01*
X0121642Y0117168D01*
X0123517Y0119043D02*
X0123517Y0067793D01*
X0124142Y0067168D01*
X0121642Y0076543D02*
X0121017Y0077168D01*
X0121017Y0091543D01*
X0118517Y0091543D02*
X0118517Y0079043D01*
X0119142Y0078418D01*
X0114767Y0084668D02*
X0107267Y0092168D01*
X0107267Y0153418D01*
X0112892Y0159043D01*
X0131642Y0167168D02*
X0131642Y0173418D01*
X0136017Y0177793D01*
X0136017Y0204668D01*
X0144767Y0213418D01*
X0122892Y0202793D02*
X0118517Y0202793D01*
X0118517Y0190918D01*
X0117892Y0190293D01*
X0117723Y0189968D01*
X0117892Y0189668D01*
X0121642Y0185918D01*
X0121642Y0185293D01*
X0113517Y0185293D02*
X0113517Y0187793D01*
X0111017Y0190293D01*
X0110813Y0190568D01*
X0104142Y0190918D02*
X0104120Y0190568D01*
X0103517Y0190293D01*
X0102267Y0189043D01*
X0102267Y0187168D01*
X0104767Y0187168D02*
X0104767Y0179668D01*
X0079142Y0179668D01*
X0075392Y0183418D01*
X0075392Y0184668D01*
X0074767Y0185293D01*
X0077467Y0184768D02*
X0077892Y0185293D01*
X0079767Y0187168D01*
X0094767Y0187168D01*
X0089142Y0189668D02*
X0088517Y0189668D01*
X0089142Y0189668D02*
X0094767Y0195293D01*
X0094767Y0196543D01*
X0092267Y0199043D01*
X0092267Y0220918D01*
X0092667Y0221168D01*
X0094767Y0223418D02*
X0094767Y0224043D01*
X0094767Y0223418D02*
X0096642Y0221543D01*
X0097067Y0221168D01*
X0109142Y0218418D02*
X0109142Y0204668D01*
X0109067Y0204368D01*
X0104667Y0204368D02*
X0104142Y0204043D01*
X0099142Y0199043D01*
X0099142Y0192793D01*
X0080392Y0196543D02*
X0080392Y0187793D01*
X0079767Y0187168D01*
X0076017Y0192168D02*
X0077892Y0194043D01*
X0078067Y0194368D01*
X0080392Y0196543D02*
X0078517Y0198418D01*
X0078067Y0198768D01*
X0065392Y0202168D02*
X0065392Y0190918D01*
X0077267Y0179043D01*
X0065392Y0202168D02*
X0064921Y0202568D01*
X0118517Y0202793D02*
X0118517Y0219668D01*
X0118923Y0219968D01*
X0152267Y0192168D02*
X0152267Y0183418D01*
X0156017Y0179668D01*
X0156067Y0185768D02*
X0156642Y0185918D01*
X0161017Y0185918D01*
X0161017Y0187168D01*
X0164767Y0187168D01*
X0164767Y0186543D01*
X0165117Y0185968D01*
X0175317Y0185968D02*
X0175392Y0185918D01*
X0175392Y0185293D01*
X0179767Y0185293D01*
X0187267Y0187793D02*
X0192267Y0187793D01*
X0196017Y0191543D01*
X0201017Y0191543D01*
X0201017Y0185293D01*
X0203517Y0182793D01*
X0209142Y0182793D01*
X0208517Y0180293D02*
X0208067Y0180368D01*
X0208517Y0180293D02*
X0210392Y0178418D01*
X0210392Y0171543D01*
X0212267Y0169668D02*
X0213517Y0168418D01*
X0216642Y0168418D01*
X0216642Y0189668D01*
X0219142Y0192168D01*
X0219142Y0196543D02*
X0224142Y0191543D01*
X0226642Y0191543D02*
X0221642Y0196543D01*
X0221642Y0199668D01*
X0219142Y0199043D02*
X0219142Y0196543D01*
X0214142Y0195918D02*
X0214142Y0170293D01*
X0212267Y0169668D02*
X0212267Y0184043D01*
X0209142Y0187168D01*
X0208867Y0187768D01*
X0204142Y0185918D02*
X0204142Y0184668D01*
X0204142Y0185918D02*
X0202892Y0187168D01*
X0202867Y0187768D01*
X0196667Y0185168D02*
X0196642Y0184668D01*
X0192267Y0180293D01*
X0192267Y0159043D01*
X0190392Y0159043D01*
X0192267Y0159043D02*
X0192267Y0131543D01*
X0193517Y0129668D02*
X0193517Y0129268D01*
X0193517Y0129668D02*
X0197892Y0134043D01*
X0197892Y0139043D01*
X0201017Y0132168D02*
X0201017Y0171543D01*
X0202267Y0172793D01*
X0207267Y0172793D01*
X0207267Y0171543D01*
X0212267Y0166543D01*
X0222892Y0166543D01*
X0222892Y0176543D01*
X0231642Y0185293D01*
X0231642Y0186543D01*
X0233517Y0190293D02*
X0249767Y0190293D01*
X0249767Y0215918D01*
X0256017Y0222168D01*
X0257267Y0214668D02*
X0254142Y0214668D01*
X0257267Y0214668D02*
X0257667Y0214568D01*
X0257667Y0208568D02*
X0257892Y0208418D01*
X0261642Y0204668D01*
X0264142Y0204668D01*
X0264142Y0194668D01*
X0259767Y0190293D01*
X0257267Y0190293D02*
X0259767Y0192793D01*
X0259767Y0200293D01*
X0257892Y0202168D01*
X0257667Y0202568D01*
X0262067Y0202568D02*
X0262267Y0202168D01*
X0262267Y0196543D01*
X0262067Y0195968D01*
X0247892Y0196543D02*
X0247892Y0205918D01*
X0243517Y0210293D01*
X0231642Y0210293D01*
X0236017Y0202793D02*
X0215392Y0223418D01*
X0178517Y0223418D01*
X0178517Y0196543D01*
X0187267Y0187793D01*
X0187892Y0189668D02*
X0186017Y0191543D01*
X0186017Y0193518D01*
X0186017Y0194043D01*
X0187267Y0195293D01*
X0187267Y0199668D01*
X0189142Y0201543D01*
X0189142Y0202793D01*
X0189717Y0202918D01*
X0189767Y0203418D01*
X0191017Y0204668D01*
X0191017Y0211543D01*
X0191567Y0211568D01*
X0191642Y0212168D01*
X0191642Y0220918D01*
X0191667Y0221168D01*
X0196017Y0220918D02*
X0196067Y0221168D01*
X0196017Y0220918D02*
X0196017Y0198418D01*
X0199767Y0198418D01*
X0199767Y0198568D01*
X0201642Y0200918D02*
X0199767Y0202793D01*
X0199767Y0202968D01*
X0199767Y0203418D01*
X0201017Y0204668D01*
X0201017Y0211543D01*
X0201567Y0211568D01*
X0205392Y0203418D02*
X0205267Y0202968D01*
X0205392Y0203418D02*
X0211017Y0203418D01*
X0211267Y0202968D01*
X0211267Y0198568D02*
X0211642Y0198418D01*
X0214142Y0195918D01*
X0208867Y0192168D02*
X0202867Y0192168D01*
X0202267Y0192168D01*
X0201642Y0192793D01*
X0201642Y0200918D01*
X0205267Y0198568D02*
X0205392Y0198418D01*
X0205392Y0197168D01*
X0206642Y0195918D01*
X0196017Y0198418D02*
X0189767Y0198418D01*
X0189767Y0194043D01*
X0189717Y0193518D01*
X0186017Y0202918D02*
X0186017Y0203418D01*
X0180392Y0209043D01*
X0180392Y0217168D01*
X0221642Y0205293D02*
X0221642Y0202793D01*
X0221267Y0202568D01*
X0237892Y0192793D02*
X0237867Y0192368D01*
X0237892Y0192793D02*
X0239767Y0192793D01*
X0239767Y0193418D01*
X0242892Y0196543D01*
X0247892Y0196543D01*
X0247892Y0192168D02*
X0242267Y0192168D01*
X0242267Y0192368D01*
X0242267Y0198368D02*
X0242267Y0198418D01*
X0246017Y0202168D01*
X0246017Y0205293D01*
X0262067Y0208568D02*
X0262267Y0208418D01*
X0273517Y0208418D01*
X0242167Y0178918D02*
X0241642Y0178418D01*
X0229767Y0178418D01*
X0224142Y0172793D01*
X0224142Y0144668D01*
X0210392Y0130918D01*
X0210392Y0127168D01*
X0206017Y0127168D01*
X0203517Y0124668D01*
X0203517Y0124268D01*
X0206017Y0124668D02*
X0208517Y0124668D01*
X0208517Y0124268D01*
X0212267Y0125918D02*
X0212267Y0126543D01*
X0212267Y0125918D02*
X0213517Y0124668D01*
X0213517Y0124268D01*
X0216017Y0126543D02*
X0213517Y0129043D01*
X0213517Y0129268D01*
X0216642Y0128418D02*
X0217892Y0127168D01*
X0217892Y0125293D01*
X0218517Y0124668D01*
X0218517Y0124268D01*
X0216642Y0125918D02*
X0216642Y0112793D01*
X0218517Y0110918D01*
X0218517Y0109268D01*
X0216642Y0110918D02*
X0215392Y0112168D01*
X0215392Y0115918D01*
X0214767Y0116543D01*
X0213517Y0119043D02*
X0213517Y0119268D01*
X0213517Y0119043D02*
X0211017Y0119043D01*
X0211642Y0116543D02*
X0208517Y0116543D01*
X0206642Y0118418D01*
X0206642Y0119668D01*
X0206017Y0120293D01*
X0203517Y0119268D02*
X0203517Y0119043D01*
X0206017Y0116543D01*
X0206017Y0113418D01*
X0208517Y0114268D02*
X0208517Y0114668D01*
X0209767Y0113418D01*
X0205392Y0109043D01*
X0205392Y0078418D01*
X0203517Y0076543D01*
X0201017Y0076543D01*
X0201017Y0069043D01*
X0206017Y0068418D02*
X0206017Y0075293D01*
X0214767Y0076543D02*
X0215392Y0075918D01*
X0215392Y0067168D01*
X0213517Y0067168D01*
X0211642Y0065293D01*
X0211642Y0052793D01*
X0208517Y0049668D01*
X0208517Y0049268D01*
X0206642Y0048418D02*
X0208517Y0046543D01*
X0210392Y0046543D01*
X0210392Y0033418D01*
X0209142Y0032168D01*
X0209142Y0025918D01*
X0206642Y0025918D02*
X0202892Y0022168D01*
X0202892Y0021543D01*
X0204142Y0025918D02*
X0205392Y0027168D01*
X0205392Y0040918D01*
X0204767Y0041543D01*
X0196642Y0042168D02*
X0196642Y0050293D01*
X0198517Y0052168D01*
X0201642Y0052168D01*
X0201642Y0055293D01*
X0203517Y0057168D01*
X0206017Y0057168D01*
X0206017Y0060293D01*
X0201642Y0060918D02*
X0201642Y0057793D01*
X0198517Y0054668D01*
X0198517Y0054268D01*
X0196017Y0053418D02*
X0195392Y0052793D01*
X0195392Y0046543D01*
X0193517Y0044668D01*
X0193517Y0044268D01*
X0191642Y0043418D02*
X0192892Y0042168D01*
X0196642Y0042168D01*
X0191642Y0043418D02*
X0191642Y0045918D01*
X0188517Y0049043D01*
X0188517Y0049268D01*
X0186642Y0048418D02*
X0188517Y0046543D01*
X0189142Y0046543D01*
X0190392Y0045293D01*
X0190392Y0035293D01*
X0191017Y0034668D01*
X0193517Y0034268D02*
X0193517Y0034043D01*
X0194142Y0033418D01*
X0194142Y0030293D01*
X0197892Y0026543D01*
X0199767Y0026543D01*
X0199767Y0026368D01*
X0206642Y0025918D02*
X0206642Y0046543D01*
X0203517Y0046543D01*
X0201642Y0048418D01*
X0201642Y0049043D01*
X0198517Y0049043D01*
X0198517Y0049268D01*
X0193517Y0049268D02*
X0193517Y0049668D01*
X0192267Y0050918D01*
X0192267Y0051543D01*
X0189767Y0051543D02*
X0189767Y0052793D01*
X0188517Y0054043D01*
X0188517Y0054268D01*
X0191017Y0055293D02*
X0191017Y0056543D01*
X0193517Y0056543D01*
X0195392Y0058418D01*
X0195392Y0059043D01*
X0198517Y0059043D01*
X0198517Y0059268D01*
X0196017Y0062168D02*
X0196017Y0084668D01*
X0190392Y0081543D02*
X0190392Y0110293D01*
X0189142Y0111543D01*
X0188517Y0111543D01*
X0186642Y0113418D01*
X0186642Y0114043D01*
X0183517Y0114043D01*
X0183517Y0114268D01*
X0181642Y0114043D02*
X0181642Y0113418D01*
X0183517Y0111543D01*
X0185392Y0111543D01*
X0185392Y0108418D01*
X0183517Y0106543D01*
X0181642Y0106543D01*
X0181642Y0078418D01*
X0181017Y0077793D01*
X0181017Y0075293D02*
X0181017Y0069043D01*
X0180392Y0067168D02*
X0178517Y0069043D01*
X0178517Y0069268D01*
X0180392Y0067168D02*
X0180392Y0066543D01*
X0180392Y0061543D01*
X0178517Y0059668D01*
X0178517Y0059268D01*
X0176017Y0060293D02*
X0176017Y0061543D01*
X0178517Y0064043D01*
X0178517Y0064268D01*
X0176642Y0064668D02*
X0173517Y0061543D01*
X0161017Y0061543D01*
X0161017Y0053418D01*
X0160392Y0051543D02*
X0158517Y0051543D01*
X0156642Y0053418D01*
X0156642Y0071543D01*
X0158517Y0071543D01*
X0160392Y0073418D01*
X0160392Y0077168D01*
X0158517Y0079043D01*
X0158517Y0079268D01*
X0159767Y0081543D02*
X0159767Y0082793D01*
X0158517Y0084043D01*
X0158517Y0084268D01*
X0156642Y0082168D02*
X0157267Y0081543D01*
X0156642Y0082168D02*
X0156642Y0090918D01*
X0158517Y0094268D02*
X0158517Y0094668D01*
X0154142Y0094668D01*
X0154142Y0128418D01*
X0150392Y0132168D01*
X0147892Y0129668D01*
X0147467Y0129668D01*
X0146017Y0127793D02*
X0144142Y0129668D01*
X0143067Y0129668D01*
X0142892Y0129668D01*
X0139767Y0132793D01*
X0139767Y0142793D01*
X0138517Y0144043D01*
X0138517Y0159668D01*
X0143067Y0159668D01*
X0145392Y0158418D02*
X0143517Y0156543D01*
X0139767Y0156543D01*
X0139767Y0147168D01*
X0140392Y0146543D01*
X0137267Y0142793D02*
X0137267Y0112793D01*
X0141642Y0108418D01*
X0144142Y0110293D02*
X0144142Y0127168D01*
X0146017Y0127793D02*
X0146017Y0101543D01*
X0149767Y0097793D01*
X0156017Y0098418D02*
X0156017Y0099043D01*
X0158517Y0099043D01*
X0158517Y0099268D01*
X0161017Y0101543D02*
X0161017Y0093418D01*
X0165392Y0088418D02*
X0163517Y0086543D01*
X0161642Y0086543D01*
X0161642Y0071543D01*
X0158517Y0074268D02*
X0158517Y0074668D01*
X0157267Y0075918D01*
X0157267Y0076543D01*
X0166642Y0071543D02*
X0166642Y0085918D01*
X0165392Y0088418D02*
X0165392Y0101543D01*
X0163517Y0101543D01*
X0161642Y0103418D01*
X0161642Y0110918D01*
X0158517Y0114043D01*
X0158517Y0114268D01*
X0160392Y0114668D02*
X0160392Y0115293D01*
X0158517Y0117168D01*
X0156642Y0117168D01*
X0156642Y0130918D01*
X0153517Y0134043D01*
X0153517Y0162168D01*
X0147892Y0167793D01*
X0147667Y0168368D01*
X0149142Y0161543D02*
X0145392Y0161543D01*
X0145392Y0158418D01*
X0146642Y0159043D02*
X0146642Y0150918D01*
X0145267Y0152168D01*
X0145392Y0152168D01*
X0146642Y0150918D01*
X0151017Y0146543D01*
X0151017Y0134668D01*
X0155392Y0130293D01*
X0155392Y0107793D01*
X0158517Y0104668D01*
X0158517Y0104268D01*
X0168517Y0104268D02*
X0168517Y0104043D01*
X0171642Y0100918D01*
X0171642Y0088418D01*
X0173517Y0086543D01*
X0175392Y0086543D01*
X0175392Y0067168D01*
X0174767Y0066543D01*
X0173517Y0064668D02*
X0173517Y0064268D01*
X0173517Y0064668D02*
X0171642Y0066543D01*
X0170392Y0068418D02*
X0168517Y0066543D01*
X0161017Y0066543D01*
X0161017Y0065293D01*
X0166642Y0071543D02*
X0168517Y0069668D01*
X0168517Y0069268D01*
X0170392Y0068418D02*
X0170392Y0080293D01*
X0169767Y0080918D01*
X0169767Y0082168D01*
X0170392Y0082793D01*
X0170392Y0097168D01*
X0168517Y0099043D01*
X0168517Y0099268D01*
X0173517Y0099268D02*
X0173517Y0099043D01*
X0174767Y0097793D01*
X0174767Y0096543D01*
X0176642Y0097168D02*
X0176642Y0064668D01*
X0173517Y0069268D02*
X0173517Y0069668D01*
X0171642Y0071543D01*
X0171642Y0081543D01*
X0179767Y0086543D02*
X0180392Y0087168D01*
X0180392Y0101543D01*
X0178517Y0101543D01*
X0176642Y0103418D01*
X0176642Y0105918D01*
X0173517Y0109043D01*
X0173517Y0109268D01*
X0174142Y0112168D02*
X0163517Y0112168D01*
X0163517Y0114268D01*
X0163517Y0114668D01*
X0160392Y0114668D01*
X0162892Y0117168D02*
X0165392Y0117168D01*
X0166017Y0117793D01*
X0167267Y0117793D01*
X0167892Y0117168D01*
X0170392Y0117168D01*
X0171017Y0117793D01*
X0172267Y0117793D01*
X0172892Y0117168D01*
X0178517Y0117168D01*
X0178517Y0119268D01*
X0178517Y0121543D01*
X0183517Y0121543D01*
X0185392Y0123418D01*
X0185392Y0127793D01*
X0186017Y0128418D01*
X0186017Y0172168D01*
X0182892Y0175293D01*
X0180392Y0174668D02*
X0180392Y0151543D01*
X0180392Y0126543D01*
X0178517Y0124668D01*
X0178517Y0124268D01*
X0175392Y0123418D02*
X0173517Y0121543D01*
X0173517Y0119268D01*
X0173517Y0121543D02*
X0167892Y0121543D01*
X0166642Y0120293D01*
X0166642Y0119668D01*
X0163517Y0119668D01*
X0163517Y0119268D01*
X0163517Y0119668D02*
X0161642Y0121543D01*
X0161642Y0119043D02*
X0158517Y0119043D01*
X0158517Y0119268D01*
X0161642Y0119043D02*
X0161642Y0118418D01*
X0162892Y0117168D01*
X0166642Y0115918D02*
X0166642Y0114668D01*
X0168517Y0114668D01*
X0168517Y0114268D01*
X0171642Y0114668D02*
X0171642Y0115918D01*
X0171642Y0114668D02*
X0173517Y0114668D01*
X0173517Y0114268D01*
X0175392Y0114043D02*
X0175392Y0113418D01*
X0174142Y0112168D01*
X0175392Y0114043D02*
X0176017Y0114668D01*
X0178517Y0114268D02*
X0178517Y0114043D01*
X0181642Y0114043D01*
X0181642Y0117168D02*
X0186642Y0117168D01*
X0188517Y0119043D01*
X0188517Y0119268D01*
X0188517Y0121543D02*
X0191642Y0121543D01*
X0191642Y0113418D01*
X0193517Y0111543D01*
X0195392Y0111543D01*
X0195392Y0102168D01*
X0194767Y0101543D01*
X0192267Y0106543D02*
X0191642Y0107168D01*
X0191642Y0110918D01*
X0188517Y0114043D01*
X0188517Y0114268D01*
X0188517Y0109268D02*
X0188517Y0109043D01*
X0186017Y0106543D01*
X0186017Y0104043D01*
X0186017Y0099043D02*
X0186642Y0098418D01*
X0186642Y0068418D01*
X0187267Y0067793D01*
X0187267Y0065918D01*
X0186017Y0064668D01*
X0183517Y0064268D02*
X0183517Y0064043D01*
X0186642Y0060918D01*
X0186642Y0048418D01*
X0185392Y0050918D02*
X0185392Y0044043D01*
X0186642Y0042793D01*
X0186642Y0033418D01*
X0191017Y0029043D01*
X0185392Y0029668D02*
X0185392Y0042168D01*
X0183517Y0044043D01*
X0183517Y0044268D01*
X0181642Y0047168D02*
X0181642Y0031543D01*
X0182267Y0030918D01*
X0182267Y0026543D01*
X0180392Y0028418D02*
X0180392Y0050918D01*
X0183517Y0054043D01*
X0183517Y0054268D01*
X0184767Y0051543D02*
X0185392Y0050918D01*
X0183517Y0049268D02*
X0183517Y0049043D01*
X0181642Y0047168D01*
X0178517Y0044268D02*
X0178517Y0044043D01*
X0176017Y0041543D01*
X0176017Y0026543D01*
X0177892Y0030918D02*
X0177892Y0033418D01*
X0178517Y0034043D01*
X0178517Y0034268D01*
X0163517Y0034268D02*
X0163517Y0034043D01*
X0157267Y0027793D01*
X0149767Y0027793D01*
X0144767Y0022793D01*
X0141017Y0022793D01*
X0140967Y0022368D01*
X0137267Y0020918D02*
X0142892Y0015293D01*
X0202267Y0015293D01*
X0206067Y0017368D02*
X0206642Y0017168D01*
X0209767Y0017168D01*
X0211017Y0022168D02*
X0211017Y0028418D01*
X0215392Y0028418D01*
X0220392Y0033418D01*
X0220392Y0044043D01*
X0222267Y0045918D01*
X0222267Y0046543D01*
X0223517Y0046543D01*
X0225392Y0048418D01*
X0225392Y0052168D01*
X0223517Y0054043D01*
X0223517Y0054268D01*
X0221017Y0053418D02*
X0221017Y0047793D01*
X0226642Y0047168D02*
X0228517Y0049043D01*
X0228517Y0049268D01*
X0231017Y0051543D02*
X0231017Y0043418D01*
X0228517Y0044043D02*
X0228517Y0044268D01*
X0228517Y0044043D02*
X0226642Y0042168D01*
X0226642Y0022168D01*
X0225392Y0020918D01*
X0222117Y0023118D02*
X0222267Y0023418D01*
X0222267Y0026543D01*
X0215392Y0026543D02*
X0215392Y0023418D01*
X0215517Y0023118D01*
X0203517Y0034043D02*
X0203517Y0034268D01*
X0203517Y0034043D02*
X0201017Y0034043D01*
X0206642Y0048418D02*
X0206642Y0050918D01*
X0203517Y0054043D01*
X0203517Y0054268D01*
X0208517Y0054268D02*
X0208517Y0054668D01*
X0210392Y0056543D01*
X0210392Y0066543D01*
X0220392Y0065293D02*
X0221017Y0064668D01*
X0220392Y0065293D02*
X0220392Y0092168D01*
X0231642Y0097168D02*
X0231642Y0062793D01*
X0228517Y0059668D01*
X0228517Y0059268D01*
X0223517Y0059268D02*
X0223517Y0059043D01*
X0221017Y0059043D01*
X0226017Y0055293D02*
X0226017Y0069668D01*
X0217267Y0076543D02*
X0216642Y0077168D01*
X0216642Y0110918D01*
X0215392Y0110293D02*
X0215392Y0082168D01*
X0214767Y0081543D01*
X0201642Y0086543D02*
X0201642Y0119043D01*
X0198517Y0119043D01*
X0198517Y0119268D01*
X0200392Y0120918D02*
X0201017Y0121543D01*
X0201017Y0127168D01*
X0204142Y0127168D01*
X0205392Y0128418D01*
X0205392Y0148418D01*
X0206017Y0149043D01*
X0211017Y0149043D02*
X0211017Y0139043D01*
X0216017Y0139043D02*
X0216017Y0157793D01*
X0202892Y0170918D01*
X0199767Y0172168D02*
X0196017Y0175918D01*
X0196017Y0178418D01*
X0195517Y0178568D01*
X0190392Y0180293D02*
X0187267Y0180293D01*
X0187067Y0180368D01*
X0180392Y0174668D02*
X0179142Y0175918D01*
X0175317Y0178568D02*
X0174767Y0178418D01*
X0174767Y0130918D01*
X0175392Y0130293D01*
X0175392Y0123418D01*
X0173517Y0124268D02*
X0173517Y0124668D01*
X0170392Y0124668D01*
X0170392Y0125293D01*
X0168517Y0127168D01*
X0166642Y0127168D01*
X0168517Y0124668D02*
X0163517Y0124668D01*
X0163517Y0124268D01*
X0161642Y0127168D02*
X0163517Y0129043D01*
X0163517Y0129268D01*
X0161642Y0129668D02*
X0161642Y0130918D01*
X0172892Y0142168D01*
X0172892Y0146543D01*
X0181642Y0138418D02*
X0182267Y0139043D01*
X0181642Y0138418D02*
X0181642Y0126543D01*
X0183517Y0124668D01*
X0183517Y0124268D01*
X0186642Y0123418D02*
X0188517Y0121543D01*
X0186642Y0123418D02*
X0186642Y0127168D01*
X0188517Y0129043D01*
X0188517Y0129268D01*
X0190392Y0129668D02*
X0190392Y0151543D01*
X0176642Y0159668D02*
X0176642Y0131543D01*
X0178517Y0129668D01*
X0178517Y0129268D01*
X0183517Y0129268D02*
X0183517Y0129668D01*
X0184142Y0130293D01*
X0184142Y0171543D01*
X0188517Y0165918D02*
X0188517Y0132793D01*
X0190392Y0129668D02*
X0192892Y0127168D01*
X0193517Y0127168D01*
X0195392Y0125293D01*
X0195392Y0121543D01*
X0193517Y0119668D01*
X0193517Y0119268D01*
X0196642Y0122168D02*
X0196642Y0090918D01*
X0184767Y0096543D02*
X0184767Y0097793D01*
X0183517Y0099043D01*
X0183517Y0099268D01*
X0178517Y0099268D02*
X0178517Y0099043D01*
X0176642Y0097168D01*
X0176017Y0099668D02*
X0176017Y0101543D01*
X0173517Y0104043D01*
X0173517Y0104268D01*
X0178517Y0109268D02*
X0178517Y0109668D01*
X0176642Y0111543D01*
X0181017Y0109668D02*
X0183517Y0109668D01*
X0183517Y0109268D01*
X0183517Y0119043D02*
X0183517Y0119268D01*
X0183517Y0119043D02*
X0186017Y0119043D01*
X0188517Y0124268D02*
X0188517Y0124668D01*
X0191017Y0124668D01*
X0191017Y0127168D02*
X0193517Y0124668D01*
X0193517Y0124268D01*
X0196642Y0122168D02*
X0198517Y0124043D01*
X0198517Y0124268D01*
X0201017Y0127168D02*
X0201017Y0128418D01*
X0203517Y0129268D02*
X0203517Y0129668D01*
X0201017Y0132168D01*
X0199767Y0130918D02*
X0198517Y0129668D01*
X0198517Y0129268D01*
X0199767Y0130918D02*
X0199767Y0172168D01*
X0201017Y0180293D02*
X0203517Y0180293D01*
X0203667Y0180368D01*
X0218517Y0174668D02*
X0224767Y0180918D01*
X0226017Y0172168D02*
X0226017Y0144668D01*
X0216642Y0135293D01*
X0216642Y0128418D01*
X0216017Y0126543D02*
X0216642Y0125918D01*
X0218517Y0129268D02*
X0218517Y0129668D01*
X0232267Y0143418D01*
X0232267Y0165918D01*
X0233517Y0167168D01*
X0238517Y0165293D02*
X0233517Y0160293D01*
X0233517Y0142793D01*
X0228517Y0137793D01*
X0228517Y0129268D01*
X0228517Y0127793D01*
X0227267Y0126543D01*
X0225392Y0126543D02*
X0225392Y0133418D01*
X0230392Y0133418D02*
X0230392Y0128418D01*
X0229767Y0127793D01*
X0229767Y0125918D01*
X0228517Y0124668D01*
X0228517Y0124268D01*
X0231642Y0125918D02*
X0231642Y0120293D01*
X0231017Y0119668D01*
X0233517Y0119268D02*
X0233517Y0119043D01*
X0231642Y0117168D01*
X0231642Y0113418D01*
X0229767Y0111543D01*
X0225392Y0115918D02*
X0228517Y0119043D01*
X0228517Y0119268D01*
X0225392Y0121543D02*
X0223517Y0119668D01*
X0223517Y0119268D01*
X0222267Y0121543D02*
X0221642Y0122168D01*
X0221642Y0125293D01*
X0222267Y0125918D01*
X0222267Y0127793D01*
X0223517Y0129043D01*
X0223517Y0129268D01*
X0225392Y0126543D02*
X0223517Y0124668D01*
X0223517Y0124268D01*
X0220392Y0127168D02*
X0220392Y0116543D01*
X0218517Y0114668D01*
X0218517Y0114268D01*
X0221642Y0115918D02*
X0222267Y0116543D01*
X0221642Y0115918D02*
X0221642Y0108418D01*
X0219767Y0106543D01*
X0215392Y0110293D02*
X0214142Y0111543D01*
X0213517Y0111543D01*
X0211642Y0113418D01*
X0211642Y0116543D01*
X0209767Y0113418D02*
X0213517Y0109668D01*
X0213517Y0109268D01*
X0199767Y0115918D02*
X0199767Y0116543D01*
X0199767Y0115918D02*
X0198517Y0114668D01*
X0198517Y0114268D01*
X0191017Y0127168D02*
X0190392Y0127168D01*
X0173517Y0129043D02*
X0173517Y0129268D01*
X0173517Y0129043D02*
X0171017Y0129043D01*
X0168517Y0124668D02*
X0168517Y0124268D01*
X0161642Y0129668D02*
X0159767Y0127793D01*
X0159767Y0125918D01*
X0158517Y0124668D01*
X0158517Y0124268D01*
X0158517Y0129268D02*
X0158517Y0129668D01*
X0157892Y0130293D01*
X0157892Y0132168D01*
X0150392Y0132168D02*
X0145392Y0137168D01*
X0145267Y0137207D01*
X0150392Y0129043D02*
X0150392Y0114668D01*
X0149767Y0114043D01*
X0142267Y0112168D02*
X0141017Y0113418D01*
X0141017Y0127168D01*
X0117892Y0131543D02*
X0117892Y0122168D01*
X0110392Y0122168D02*
X0110392Y0130918D01*
X0109142Y0132168D01*
X0115392Y0134043D02*
X0117892Y0131543D01*
X0134142Y0109043D02*
X0149767Y0093418D01*
X0146642Y0094043D02*
X0127267Y0094043D01*
X0127267Y0045918D01*
X0125392Y0054668D02*
X0126017Y0055293D01*
X0126017Y0102793D01*
X0128517Y0105293D01*
X0130817Y0091668D02*
X0131017Y0091543D01*
X0132892Y0089668D01*
X0132892Y0084668D01*
X0133368Y0084468D01*
X0133517Y0084043D01*
X0133517Y0079668D01*
X0136642Y0076543D01*
X0140392Y0082793D02*
X0145392Y0082793D01*
X0145392Y0084043D01*
X0145967Y0084468D01*
X0146017Y0084668D01*
X0146017Y0090293D01*
X0146642Y0090918D01*
X0147117Y0091368D01*
X0142717Y0091368D02*
X0139142Y0087793D01*
X0135392Y0091543D01*
X0135217Y0091668D01*
X0139142Y0087793D02*
X0138517Y0087168D01*
X0138517Y0062793D01*
X0143517Y0057793D01*
X0143517Y0027168D01*
X0147267Y0027168D01*
X0155392Y0035293D01*
X0155392Y0041543D01*
X0158517Y0041543D01*
X0160392Y0043418D01*
X0160392Y0051543D01*
X0165392Y0052168D02*
X0165392Y0055918D01*
X0168517Y0059043D01*
X0168517Y0059268D01*
X0169767Y0056543D02*
X0169767Y0055918D01*
X0168517Y0054668D01*
X0168517Y0054268D01*
X0171642Y0052168D02*
X0171642Y0057168D01*
X0173517Y0059043D01*
X0173517Y0059268D01*
X0174767Y0056543D02*
X0174767Y0055918D01*
X0173517Y0054668D01*
X0173517Y0054268D01*
X0173517Y0049268D02*
X0173517Y0049043D01*
X0175392Y0047168D01*
X0193517Y0059268D02*
X0193517Y0059668D01*
X0196017Y0062168D01*
X0228517Y0054268D02*
X0228517Y0054043D01*
X0231017Y0051543D01*
X0236642Y0056543D02*
X0238517Y0054668D01*
X0238517Y0054268D01*
X0243517Y0054268D02*
X0243517Y0054043D01*
X0244767Y0052793D01*
X0244767Y0051543D01*
X0243517Y0049668D02*
X0243517Y0049268D01*
X0243517Y0049668D02*
X0246642Y0049668D01*
X0246642Y0070293D01*
X0253517Y0057168D02*
X0259142Y0057168D01*
X0259142Y0140918D01*
X0259767Y0141543D01*
X0250392Y0143418D02*
X0250392Y0130918D01*
X0241017Y0135918D02*
X0238517Y0133418D01*
X0238517Y0129268D01*
X0238517Y0129043D01*
X0236017Y0129043D01*
X0233517Y0129043D01*
X0233517Y0129268D01*
X0235392Y0126543D02*
X0233517Y0124668D01*
X0233517Y0124268D01*
X0231642Y0125918D02*
X0231642Y0132168D01*
X0235392Y0135918D01*
X0235392Y0158418D01*
X0237267Y0154043D02*
X0244767Y0146543D01*
X0244767Y0137168D01*
X0242892Y0141543D02*
X0242892Y0145918D01*
X0244142Y0149668D02*
X0250392Y0143418D01*
X0242892Y0141543D02*
X0237267Y0135918D01*
X0239767Y0126543D02*
X0239767Y0125918D01*
X0238517Y0124668D01*
X0238517Y0124268D01*
X0208517Y0129268D02*
X0208517Y0129668D01*
X0207892Y0130293D01*
X0207892Y0162793D01*
X0218517Y0160918D02*
X0222267Y0157168D01*
X0227892Y0162168D02*
X0227892Y0164043D01*
X0237267Y0173418D01*
X0214142Y0149043D02*
X0212892Y0147793D01*
X0212892Y0142168D01*
X0176642Y0159668D02*
X0176642Y0170918D01*
X0151642Y0159043D02*
X0149142Y0161543D01*
X0147467Y0159668D02*
X0147267Y0159668D01*
X0146642Y0159043D01*
X0269767Y0123418D02*
X0269767Y0114668D01*
X0272892Y0115918D02*
X0274142Y0117168D01*
X0274417Y0117368D01*
X0274767Y0117793D01*
X0274767Y0123418D01*
X0274417Y0123818D01*
X0274142Y0124043D01*
X0274142Y0139668D01*
X0273517Y0140293D01*
X0272267Y0125918D02*
X0269767Y0123418D01*
X0281642Y0124668D02*
X0281642Y0114043D01*
X0272892Y0115918D02*
X0272892Y0052168D01*
X0272267Y0051543D01*
X0274767Y0053418D02*
X0274767Y0059668D01*
X0278517Y0061543D02*
X0282267Y0057793D01*
X0282267Y0055918D01*
X0281642Y0052793D02*
X0286642Y0057793D01*
X0304767Y0054668D02*
X0310392Y0060293D01*
X0314767Y0055918D02*
X0316017Y0054668D01*
X0316017Y0052793D01*
X0302892Y0033418D02*
X0299767Y0030293D01*
X0258517Y0028418D02*
X0258517Y0020918D01*
X0256642Y0019043D01*
X0256367Y0019018D01*
X0251642Y0049668D02*
X0248517Y0049668D01*
X0248517Y0049268D01*
X0248517Y0054268D02*
X0248517Y0054668D01*
X0251642Y0054668D01*
X0251642Y0055293D01*
X0253517Y0057168D01*
X0253517Y0054668D02*
X0253517Y0054268D01*
X0253517Y0054668D02*
X0261017Y0054668D01*
X0276642Y0075293D02*
X0274767Y0077168D01*
X0274767Y0084668D02*
X0281017Y0090918D01*
X0281017Y0097793D01*
X0346017Y0048418D02*
X0352892Y0055293D01*
X0355392Y0055293D01*
X0355760Y0055611D01*
X0355760Y0053052D02*
X0355392Y0052793D01*
X0353517Y0052793D01*
X0351017Y0050293D01*
X0355760Y0050493D02*
X0356017Y0050293D01*
X0356017Y0047793D01*
X0195392Y0017168D02*
X0192267Y0017168D01*
X0192067Y0017368D01*
X0188517Y0018418D02*
X0188517Y0019043D01*
X0188517Y0018418D02*
X0186017Y0018418D01*
X0185967Y0017968D01*
X0182267Y0018418D02*
X0182267Y0019043D01*
X0182267Y0018418D02*
X0179767Y0018418D01*
X0179367Y0017968D01*
X0173667Y0017968D02*
X0173517Y0017793D01*
X0169767Y0017793D01*
X0158517Y0026543D02*
X0151642Y0026543D01*
X0151642Y0022168D01*
X0151167Y0022168D01*
X0137267Y0020918D02*
X0137267Y0055293D01*
X0140392Y0058418D01*
X0150392Y0056543D02*
X0151017Y0055918D01*
X0151017Y0035293D01*
D41*
X0079767Y0024668D03*
X0339767Y0037168D03*
X0339767Y0202168D03*
X0079767Y0214668D03*
M02*
