%
M48
M72
T01C0.01000
T02C0.03100
T03C0.03740
T04C0.03937
T05C0.09055
T06C0.12500
%
T01
X97267Y34043
X120392Y43418
X122892Y46543
X125392Y46543
X125392Y54668
X140392Y58418
X150392Y56543
X161017Y53418
X165392Y52168
X169767Y56543
X171642Y52168
X174767Y56543
X176017Y60293
X174767Y66543
X171642Y66543
X164767Y71543
X161642Y71543
X161017Y65293
X157267Y76543
X157267Y81543
X159767Y81543
X154767Y87793
X156642Y90918
X161017Y93418
X156017Y98418
X149767Y97793
X149767Y93418
X146642Y94043
X134767Y100918
X134767Y105293
X134142Y109043
X128517Y105293
X132892Y111543
X130392Y114043
X123517Y119043
X121642Y117168
X116642Y117793
X110392Y122168
X114142Y129043
X119767Y129043
X115392Y134043
X109142Y132168
X96017Y118418
X99767Y117168
X92892Y114043
X105392Y109043
X95392Y95293
X86642Y102168
X67892Y94043
X52892Y99668
X51017Y104043
X41642Y112168
X80392Y137168
X76017Y143418
X76017Y145918
X74142Y157168
X56017Y147793
X77267Y179043
X74767Y185293
X76017Y192168
X88517Y189668
X94767Y187168
X102267Y187168
X104767Y187168
X99142Y192793
X90392Y195918
X87267Y199043
X113517Y185293
X121642Y185293
X136017Y177793
X139142Y177793
X131642Y167168
X112892Y159043
X134767Y153418
X140392Y146543
X137267Y142793
X132267Y137793
X132267Y127168
X134767Y124668
X141017Y127168
X144142Y127168
X150392Y129043
X152267Y124668
X157892Y132168
X161642Y127168
X166642Y127168
X171017Y129043
X161642Y121543
X166642Y115918
X171642Y115918
X176017Y114668
X176642Y111543
X181017Y109668
X181642Y117168
X186017Y119043
X191017Y124668
X190392Y127168
X192267Y131543
X188517Y132793
X195392Y135293
X197892Y139043
X202892Y139043
X211017Y139043
X216017Y139043
X212892Y142168
X214142Y149043
X211017Y149043
X206017Y149043
X202892Y149668
X195392Y151543
X190392Y151543
X190392Y159043
X188517Y165918
X184142Y171543
X182892Y175293
X179142Y175918
X176642Y170918
X167892Y174043
X170392Y179668
X163517Y181543
X161017Y187168
X156017Y179668
X152267Y192168
X179767Y185293
X187892Y189668
X196642Y189668
X204142Y184668
X209142Y182793
X201017Y180293
X190392Y180293
X202892Y170918
X210392Y171543
X214142Y170293
X218517Y174668
X226017Y172168
X233517Y167168
X237267Y173418
X241642Y168418
X246017Y169043
X259142Y164043
X256017Y153418
X253517Y153418
X248517Y155293
X244142Y149668
X242892Y145918
X229767Y143418
X237267Y135918
X241017Y135918
X246642Y135918
X250392Y130918
X239767Y126543
X235392Y126543
X236017Y129043
X231642Y125918
X227267Y126543
X225392Y121543
X222267Y121543
X222267Y116543
X225392Y115918
X229767Y111543
X231017Y119668
X236017Y119043
X246642Y122168
X251642Y122168
X257267Y117168
X261017Y114668
X251017Y113418
X246642Y105918
X231642Y97168
X229767Y91543
X220392Y92168
X214767Y81543
X214767Y76543
X217267Y76543
X209767Y71543
X206017Y68418
X210392Y66543
X201017Y69043
X206017Y75293
X196017Y84668
X190392Y81543
X181017Y77793
X181017Y75293
X181017Y69043
X180392Y66543
X186017Y64668
X191017Y55293
X192267Y51543
X189767Y51543
X196017Y53418
X201642Y60918
X206017Y60293
X221017Y59043
X221017Y64668
X226017Y69668
X237267Y71543
X241642Y71543
X245392Y71543
X241017Y63418
X236017Y57168
X231017Y59043
X231017Y55293
X226017Y55293
X221017Y53418
X221017Y47793
X226642Y47168
X231017Y43418
X236017Y44043
X235392Y46543
X236017Y49043
X244767Y51543
X246017Y44668
X246017Y39043
X245392Y31543
X240392Y27168
X239767Y22793
X237892Y19043
X234767Y26543
X232892Y30918
X236017Y34668
X238517Y31543
X236017Y39043
X222267Y26543
X225392Y20918
X215392Y26543
X211017Y22168
X209142Y25918
X204142Y25918
X202892Y21543
X209767Y17168
X202267Y15293
X195392Y17168
X188517Y19043
X182267Y19043
X182267Y26543
X180392Y28418
X177892Y30918
X176017Y26543
X185392Y29668
X191017Y29043
X196017Y30918
X191017Y34668
X201017Y34043
X204767Y41543
X211017Y31543
X195392Y25293
X169767Y17793
X158517Y26543
X153517Y36543
X151017Y35293
X148517Y35918
X141642Y32168
X175392Y47168
X184767Y51543
X171642Y81543
X166642Y85918
X179767Y86543
X184767Y96543
X186017Y99043
X186017Y104043
X192267Y106543
X194767Y101543
X196642Y90918
X201642Y86543
X211017Y103418
X219767Y106543
X206017Y113418
X199767Y116543
X200392Y120918
X206017Y120293
X206017Y124668
X201017Y128418
X212267Y126543
X216017Y126543
X220392Y127168
X225392Y133418
X230392Y133418
X211017Y119043
X214767Y116543
X182267Y139043
X172892Y146543
X180392Y151543
X176642Y159668
X167892Y159668
X151642Y159043
X167892Y139668
X149767Y114043
X144142Y110293
X142267Y112168
X141642Y108418
X161017Y101543
X174767Y96543
X176017Y99668
X140392Y82793
X136642Y76543
X121642Y76543
X119142Y78418
X112892Y84043
X118517Y91543
X121017Y91543
X101017Y82168
X98517Y83418
X93517Y78418
X93517Y70293
X98517Y65293
X111017Y65293
X114767Y70293
X124142Y67168
X77892Y78418
X71017Y78418
X62267Y82168
X61642Y75918
X52892Y80293
X61642Y68418
X72267Y62793
X49767Y63418
X207892Y162793
X218517Y160918
X222267Y157168
X227892Y162168
X229767Y158418
X235392Y158418
X237267Y154043
X259767Y141543
X262267Y137168
X267267Y141543
X273517Y140293
X283517Y145293
X279142Y157793
X272892Y161543
X278517Y169043
X272892Y170918
X252892Y184668
X257267Y190293
X259767Y190293
X247892Y192168
X239767Y195918
X236017Y202793
X231642Y210293
X223517Y207793
X221642Y205293
X221642Y199668
X219142Y199043
X216017Y199668
X206642Y195918
X219142Y192168
X224142Y191543
X226642Y191543
X233517Y190293
X231642Y186543
X224767Y180918
X246017Y205293
X254142Y214668
X254142Y217168
X273517Y208418
X325392Y205293
X322267Y166543
X317892Y162168
X331642Y162793
X332267Y160293
X334142Y156543
X331642Y154043
X331642Y151543
X342892Y154668
X345392Y154043
X348517Y157168
X351017Y162793
X350392Y150293
X337267Y140293
X332267Y142168
X327267Y136543
X322267Y134043
X316017Y125293
X333517Y117793
X342892Y110918
X349142Y103418
X339142Y97793
X345392Y94668
X344767Y89668
X339142Y87793
X334767Y84043
X334142Y77793
X344767Y72793
X341017Y69043
X348517Y65918
X351017Y72793
X351017Y75293
X357892Y80918
X348517Y85293
X331017Y95918
X329142Y101543
X314142Y99043
X306642Y91543
X302892Y94043
X296642Y87168
X292892Y80293
X286642Y80918
X286642Y78418
X283517Y77168
X274767Y77168
X274767Y84668
X264767Y89043
X264767Y94043
X271017Y93418
X271017Y101543
X276642Y103418
X279767Y109043
X281642Y114043
X279142Y114668
X269767Y114668
X264767Y125293
X262267Y124043
X272267Y125918
X269767Y130918
X263517Y133418
X281642Y124668
X281017Y97793
X254767Y91543
X250392Y81543
X241017Y79043
X239767Y81543
X274767Y59668
X278517Y61543
X282267Y55918
X286642Y57793
X281642Y52793
X274767Y53418
X272267Y51543
X271017Y49043
X269142Y47168
X262892Y55293
X256017Y42793
X259767Y40293
X266017Y34043
X268517Y34043
X258517Y28418
X248517Y22793
X254142Y16543
X281017Y23418
X297267Y24043
X301017Y25293
X299767Y30293
X302892Y33418
X297267Y36543
X289767Y38418
X278517Y36543
X297267Y46543
X302892Y45918
X316642Y47793
X322267Y46543
X321017Y56543
X314767Y55918
X310392Y60293
X303517Y62793
X302892Y58418
X319142Y66543
X315392Y73418
X303517Y73418
X301017Y70293
X284767Y69668
X280392Y67793
X317267Y84043
X321017Y90293
X325392Y89668
X332267Y60918
X341642Y54668
X344142Y56543
X348517Y57168
X351017Y50293
X346017Y48418
X356017Y47793
X309142Y18418
X122892Y202793
X131017Y215918
X144767Y213418
X109142Y218418
X94767Y224043
X180392Y217168
X217892Y218418
X222267Y222793
T02
X338267Y132318
X338267Y126418
X354467Y126418
X354467Y132318
X354917Y109068
X354917Y103168
X338717Y103168
X338717Y109068
T03
X63086Y59547
X63086Y49705
X63086Y41831
X63086Y31988
T04
X290767Y102068
X300767Y102068
X310767Y102068
X310767Y112068
X300767Y112068
X290767Y112068
X290767Y122068
X300767Y122068
X310767Y122068
X310767Y132068
X300767Y132068
X290767Y132068
X290767Y142068
X300767Y142068
X310767Y142068
X310767Y152068
X300767Y152068
X290767Y152068
X290767Y162068
X300767Y162068
X310767Y162068
X310767Y172068
X300767Y172068
X290767Y172068
X211567Y211568
X201567Y211568
X191567Y211568
X64921Y202568
X40906Y202568
X52717Y183670
T05
X52417Y19902
X52417Y71634
T06
X79767Y24668
X339767Y37168
X339767Y202168
X79767Y214668
M30
