%
M48
M72
T01C0.01000
T02C0.01600
T03C0.01969
T04C0.02362
T05C0.03000
T06C0.03100
T07C0.03200
T08C0.03937
T09C0.06299
T10C0.09055
T11C0.12500
%
T01
X92771Y48500
X92771Y55500
X112271Y61000
X121371Y57400
X124771Y55800
X131371Y53700
X142071Y52300
X136671Y44600
X148771Y40000
X148771Y37000
X164371Y38000
X170271Y38000
X176271Y38100
X189071Y38300
X189071Y40900
X194071Y43800
X194071Y48200
X201071Y47900
X207871Y46800
X210571Y46800
X209171Y42600
X213071Y40700
X216871Y40700
X220171Y47900
X228671Y50700
X231871Y49500
X236271Y43700
X236171Y40700
X240571Y46800
X243171Y46800
X248271Y40700
X250571Y42000
X252971Y43100
X252971Y46800
X256971Y46800
X259771Y49700
X263371Y48800
X270371Y48800
X272671Y51900
X272371Y57000
X275071Y63500
X277671Y63500
X280271Y63500
X273771Y73700
X270671Y73700
X267971Y73800
X265071Y73700
X261271Y72900
X258971Y76000
X256271Y75500
X254971Y72400
X247871Y73700
X244671Y73700
X242071Y73700
X239471Y73700
X236871Y73700
X231371Y73700
X229471Y70700
X226371Y74200
X228271Y76100
X231271Y81100
X223671Y80300
X219871Y78200
X217471Y80100
X217471Y83900
X215571Y85700
X213671Y87500
X211671Y85700
X208271Y88700
X205671Y89300
X200971Y83100
X198571Y81900
X196071Y80700
X190771Y79500
X170971Y88900
X163571Y89400
X149971Y89000
X148771Y91400
X150671Y93800
X144571Y92800
X142771Y86200
X135771Y82700
X135771Y77900
X140271Y77000
X143371Y73300
X148971Y73100
X149971Y76100
X160471Y76800
X160471Y74100
X164471Y64100
X162071Y54100
X162071Y51300
X164271Y44900
X198871Y57600
X209771Y60000
X214771Y59600
X213771Y64200
X217871Y72000
X237371Y64300
X241071Y64300
X248871Y64100
X248871Y60800
X258971Y60300
X259771Y54100
X277271Y46800
X277271Y43100
X281171Y46800
X285171Y46800
X292971Y46800
X296971Y46800
X301171Y53600
X301171Y56200
X307471Y58100
X301171Y60000
X301171Y62600
X300771Y74000
X296171Y74000
X291571Y74000
X292571Y80600
X286271Y82300
X282971Y85500
X280871Y90500
X276271Y93700
X279471Y95500
X284771Y95500
X283071Y100500
X291271Y103700
X290771Y106300
X286271Y108700
X281171Y115500
X276171Y115500
X271171Y115600
X266271Y115600
X266071Y120500
X271171Y120500
X271271Y124800
X276271Y124700
X281271Y124300
X281171Y120500
X276171Y120600
X286271Y119300
X266171Y125500
X266171Y129000
X261271Y131300
X256771Y136100
X246971Y140800
X248071Y145500
X244571Y150500
X241271Y148700
X236271Y148700
X231371Y146900
X231371Y144300
X231371Y141700
X231371Y139100
X231371Y136500
X236271Y136500
X239771Y135600
X240671Y140500
X237571Y140500
X235871Y130500
X231271Y130600
X230471Y125500
X233071Y125500
X236371Y125500
X241071Y125500
X245371Y125900
X248071Y125500
X241271Y129500
X252971Y115500
X251271Y111800
X254871Y110500
X261271Y108700
X266271Y106100
X258071Y100500
X255471Y100500
X252671Y100500
X250071Y100500
X251271Y94900
X255771Y95500
X248071Y90500
X251371Y86700
X251271Y83800
X248071Y77500
X244271Y78700
X241871Y79900
X241271Y88700
X241471Y91300
X234971Y95600
X239971Y100600
X236271Y108700
X233071Y110500
X230471Y110500
X226171Y110000
X226071Y105800
X240071Y110500
X242671Y110500
X246271Y112300
X266271Y90500
X259971Y79000
X296471Y96700
X301271Y97000
X296971Y90500
X301271Y86700
X301271Y83700
X304571Y85500
X312371Y85600
X314771Y90500
X321871Y87800
X323071Y85400
X324971Y83100
X326671Y81100
X334571Y82500
X334771Y74800
X328571Y71000
X325971Y67500
X326971Y64900
X334171Y68700
X339771Y59500
X341671Y57600
X330571Y46800
X326671Y46800
X327271Y42800
X326671Y39200
X330571Y39200
X340471Y26900
X358671Y44000
X362571Y43900
X366771Y56400
X319971Y85300
X310171Y79400
X310171Y76800
X337971Y93600
X337971Y97200
X341671Y100200
X333971Y103200
X320071Y95300
X316171Y116400
X321771Y116800
X320871Y120500
X324871Y122900
X330671Y117100
X328771Y115200
X337271Y122100
X340271Y123900
X343771Y121100
X351771Y120000
X336271Y129500
X344871Y133100
X336271Y138500
X323771Y138500
X323871Y134000
X323771Y129500
X311271Y129100
X311271Y131800
X312671Y140400
X311271Y148700
X308071Y150500
X305371Y150500
X311271Y151400
X305671Y155500
X311271Y158700
X306471Y161100
X311471Y161500
X311471Y164200
X311471Y166800
X316271Y168900
X320871Y170000
X323771Y165500
X323771Y161000
X323771Y158400
X323771Y152000
X323771Y147500
X323771Y143000
X336271Y147500
X336471Y151500
X336271Y158500
X336271Y165500
X336971Y177100
X337171Y185700
X336871Y197100
X357771Y194900
X357871Y192100
X381371Y180500
X380871Y177800
X394471Y183400
X394471Y187300
X361671Y173500
X357371Y174800
X358671Y164300
X383171Y159800
X383171Y155900
X380071Y150600
X380071Y148000
X391171Y139500
X393371Y140900
X385071Y138300
X381971Y138300
X376871Y138300
X385571Y127800
X358571Y135100
X357371Y146400
X398571Y147100
X367271Y99200
X367271Y94800
X316271Y119200
X281271Y144500
X281271Y147300
X276271Y147300
X266271Y147100
X255271Y150800
X257771Y155500
X251171Y154400
X252471Y160500
X255071Y160500
X257671Y160500
X261371Y162000
X261571Y159400
X266271Y159700
X266271Y157100
X266271Y154500
X266271Y162300
X276271Y161900
X276271Y159300
X280271Y160500
X282871Y160500
X291271Y164200
X291271Y166800
X289471Y170500
X286271Y170900
X282171Y170900
X276271Y170900
X271071Y176600
X266471Y176600
X261071Y176600
X256271Y176600
X236371Y176200
X231171Y176200
X226171Y176200
X231271Y169500
X239471Y160500
X242071Y160400
X244671Y160500
X247271Y160500
X249871Y160500
X237571Y155300
X234471Y155500
X236371Y151500
X240771Y151300
X231471Y151500
X231271Y158700
X214671Y166600
X212371Y164700
X209971Y162800
X200571Y167800
X197771Y169000
X193271Y170200
X188771Y170200
X184271Y170300
X179771Y170400
X175271Y170400
X176671Y165100
X176671Y162500
X176671Y159900
X176671Y157300
X172471Y155500
X172271Y152900
X176871Y151100
X176871Y148400
X176871Y145800
X176871Y143200
X173871Y138600
X174071Y136000
X176571Y132200
X170571Y128600
X168871Y130600
X168871Y126600
X165571Y122500
X167471Y120200
X167471Y117100
X163271Y114500
X161071Y112800
X168271Y112800
X177371Y115500
X182471Y110900
X185071Y110900
X187871Y110900
X193371Y110900
X191771Y115500
X188971Y115500
X196371Y117900
X192271Y99500
X189471Y99500
X186671Y99500
X155671Y101100
X152671Y101100
X150671Y114200
X154671Y116800
X152971Y119300
X152871Y122400
X159571Y122800
X133571Y130500
X151971Y140700
X151971Y144900
X157571Y144400
X158771Y141900
X158771Y139200
X165571Y140800
X162671Y145100
X163371Y149000
X163571Y151600
X163571Y155500
X168871Y148800
X171871Y148700
X189671Y150100
X191771Y152100
X193871Y154200
X198671Y154100
X195671Y159000
X207571Y154000
X212371Y156200
X212171Y147300
X212171Y144500
X208571Y144500
X208571Y147300
X198571Y146100
X167171Y163600
X162271Y167100
X158571Y167000
X156471Y175200
X159171Y175500
X162871Y175500
X153171Y175100
X148771Y175100
X145571Y167200
X143371Y165000
X140571Y168000
X135171Y168400
X129671Y169700
X124071Y170800
X118671Y173100
X113071Y173300
X105571Y173600
X105471Y176400
X105071Y180300
X103871Y171200
X95571Y168300
X92771Y168000
X89671Y168100
X94571Y173300
X108871Y191500
X112871Y191600
X119571Y195000
X135971Y193400
X136071Y190800
X143071Y200500
X147771Y200500
X161771Y200800
X171271Y198500
X181871Y205600
X168771Y207500
X158771Y216500
X156771Y224500
X166271Y224500
X183771Y224500
X189771Y224500
X206771Y205400
X235571Y202000
X235471Y194200
X235471Y191600
X235471Y189000
X235471Y186400
X211871Y182300
X193371Y182900
X177771Y183000
X177771Y189500
X170271Y188500
X80571Y138600
X114271Y116300
X113671Y108600
X110271Y81000
X124071Y81000
X129771Y79500
X84271Y69800
X80171Y69800
X76071Y69800
X75771Y81000
X205171Y40700
X241171Y28300
X266871Y28300
X300671Y155500
X300871Y170600
X297071Y170500
X294471Y170500
X289971Y175700
X309971Y175500
X312671Y175500
X281171Y192500
X282871Y195600
X285771Y195600
X288371Y195600
X296471Y207600
X296471Y210300
X275871Y221200
X365571Y212400
T02
X131771Y158000
X131771Y153000
X131771Y148000
X131771Y143000
X131771Y138000
X131771Y133000
X131771Y128000
X131771Y123000
X131771Y118000
X126771Y118000
X121771Y118000
X116771Y118000
X111771Y118000
X106771Y118000
X101771Y118000
X96771Y118000
X91771Y118000
X91771Y123000
X91771Y128000
X91771Y133000
X91771Y138000
X96771Y138000
X101771Y138000
X106771Y138000
X111771Y138000
X116771Y138000
X121771Y138000
X126771Y138000
X111771Y133000
X111771Y128000
X111771Y123000
X87271Y110500
X87271Y107000
X87271Y103500
X84271Y98500
X84271Y95500
X81271Y95500
X81271Y98500
X78271Y103500
X78271Y107000
X78271Y110500
X78271Y114000
X78271Y117500
X79771Y121500
X83271Y121500
X76271Y121500
X91771Y143000
X91771Y148000
X91771Y153000
X91771Y158000
X96771Y158000
X101771Y158000
X106771Y158000
X111771Y158000
X116771Y158000
X121771Y158000
X126771Y158000
X111771Y153000
X111771Y148000
X91271Y172300
X92771Y175600
X93171Y178800
X93171Y182000
X93171Y185200
T03
X81371Y192900
X134971Y205000
X136271Y210500
X139771Y210500
X138771Y221000
X142271Y221000
X145771Y221000
X149271Y221000
X149271Y224500
X145771Y224500
X142271Y224500
X138771Y224500
X198771Y225000
X202771Y225000
X206771Y225000
X210771Y225000
X214771Y225000
X214771Y215000
X210771Y215000
X206771Y215000
X202771Y215000
X198771Y215000
X234271Y206500
X241871Y193000
X248871Y193000
X260271Y195400
X260771Y185300
X264971Y185300
X274271Y204000
X271771Y208500
X271771Y212000
X268271Y212000
X268271Y208500
X270271Y226700
X274771Y226700
X279371Y226700
X283771Y226700
X292771Y226700
X305271Y226700
X311771Y204500
X315771Y204500
X349771Y218000
X353771Y218000
X353771Y221500
X349771Y221500
X265271Y226800
X260271Y226800
X255271Y226800
X249771Y226800
X381371Y129000
X372371Y127500
X396771Y127500
X400771Y127500
X348271Y113500
X344771Y113500
X341271Y113500
X345771Y92500
X345771Y87600
X345271Y72300
X345271Y64000
X276271Y100500
X261271Y115500
X215971Y101800
X181871Y97100
X141271Y113600
X127271Y96500
X104371Y100100
X126771Y43500
X147971Y26300
T04
X370771Y55400
X387771Y80600
X392271Y144300
X396471Y150100
X304271Y182100
X296071Y187100
T05
X108471Y207000
X108371Y215000
X84871Y214900
X84771Y207000
X92471Y192400
X100371Y192400
T06
X351771Y31000
X357671Y31000
X363571Y31000
X382271Y67550
X382271Y73450
X397771Y73450
X397771Y67550
X397771Y87050
X397771Y92950
X382271Y92950
X382271Y87050
T07
X281271Y181500
X219771Y165500
T08
X226871Y199300
X226871Y209300
X226871Y219300
X341771Y198500
X351771Y198500
X361771Y198500
X361771Y188500
X351771Y188500
X341771Y188500
X341771Y178500
X351771Y178500
X361771Y178500
X361771Y168500
X351771Y168500
X341771Y168500
X341771Y158500
X351771Y158500
X361771Y158500
X361771Y148500
X351771Y148500
X341771Y148500
X341771Y138500
X351771Y138500
X361771Y138500
X361771Y128500
X351771Y128500
X341771Y128500
X165771Y84000
X165771Y74000
X108412Y65780
X108412Y55937
X108412Y48063
X108412Y38220
T09
X96682Y192296
X108493Y210800
X84871Y210800
T10
X97743Y77866
X97743Y26134
T11
X124771Y29000
X384771Y41500
X384771Y206500
X124771Y219000
M30
